<svg width="428" height="926" viewBox="0 0 428 926" fill="none" xmlns="http://www.w3.org/2000/svg">
<rect width="428" height="926" fill="#505269"/>
<rect width="428" height="60" fill="#27293E"/>
<path d="M30.4091 35V23.3636H31.8182V33.75H37.2273V35H30.4091ZM41.7955 35.2045C41.2424 35.2045 40.7405 35.1004 40.2898 34.892C39.839 34.6799 39.4811 34.375 39.2159 33.9773C38.9508 33.5758 38.8182 33.0909 38.8182 32.5227C38.8182 32.0227 38.9167 31.6174 39.1136 31.3068C39.3106 30.9924 39.5739 30.7462 39.9034 30.5682C40.233 30.3902 40.5966 30.2576 40.9943 30.1705C41.3958 30.0795 41.7992 30.0076 42.2045 29.9545C42.7348 29.8864 43.1648 29.8352 43.4943 29.8011C43.8277 29.7633 44.0701 29.7008 44.2216 29.6136C44.3769 29.5265 44.4545 29.375 44.4545 29.1591V29.1136C44.4545 28.553 44.3011 28.1174 43.9943 27.8068C43.6913 27.4962 43.2311 27.3409 42.6136 27.3409C41.9735 27.3409 41.4716 27.4811 41.108 27.7614C40.7443 28.0417 40.4886 28.3409 40.3409 28.6591L39.0682 28.2045C39.2955 27.6742 39.5985 27.2614 39.9773 26.9659C40.3598 26.6667 40.7765 26.4583 41.2273 26.3409C41.6818 26.2197 42.1288 26.1591 42.5682 26.1591C42.8485 26.1591 43.1705 26.1932 43.5341 26.2614C43.9015 26.3258 44.2557 26.4602 44.5966 26.6648C44.9413 26.8693 45.2273 27.178 45.4545 27.5909C45.6818 28.0038 45.7955 28.5568 45.7955 29.25V35H44.4545V33.8182H44.3864C44.2955 34.0076 44.1439 34.2102 43.9318 34.4261C43.7197 34.642 43.4375 34.8258 43.0852 34.9773C42.733 35.1288 42.303 35.2045 41.7955 35.2045ZM42 34C42.5303 34 42.9773 33.8958 43.3409 33.6875C43.7083 33.4792 43.9848 33.2102 44.1705 32.8807C44.3598 32.5511 44.4545 32.2045 44.4545 31.8409V30.6136C44.3977 30.6818 44.2727 30.7443 44.0795 30.8011C43.8902 30.8542 43.6705 30.9015 43.4205 30.9432C43.1742 30.9811 42.9337 31.0152 42.6989 31.0455C42.4678 31.072 42.2803 31.0947 42.1364 31.1136C41.7879 31.1591 41.4621 31.233 41.1591 31.3352C40.8598 31.4337 40.6174 31.5833 40.4318 31.7841C40.25 31.9811 40.1591 32.25 40.1591 32.5909C40.1591 33.0568 40.3314 33.4091 40.6761 33.6477C41.0246 33.8826 41.4659 34 42 34ZM54.0838 23.3636V35H52.7429V23.3636H54.0838ZM56.5398 35V26.2727H57.8807V35H56.5398ZM57.2216 24.8182C56.9602 24.8182 56.7348 24.7292 56.5455 24.5511C56.3598 24.3731 56.267 24.1591 56.267 23.9091C56.267 23.6591 56.3598 23.4451 56.5455 23.267C56.7348 23.089 56.9602 23 57.2216 23C57.483 23 57.7064 23.089 57.892 23.267C58.0814 23.4451 58.1761 23.6591 58.1761 23.9091C58.1761 24.1591 58.0814 24.3731 57.892 24.5511C57.7064 24.7292 57.483 24.8182 57.2216 24.8182ZM63.8594 38.4545C63.2116 38.4545 62.6548 38.3712 62.1889 38.2045C61.723 38.0417 61.3348 37.8258 61.0241 37.5568C60.7173 37.2917 60.473 37.0076 60.2912 36.7045L61.3594 35.9545C61.4806 36.1136 61.634 36.2955 61.8196 36.5C62.0052 36.7083 62.259 36.8883 62.581 37.0398C62.9067 37.1951 63.3329 37.2727 63.8594 37.2727C64.5639 37.2727 65.1454 37.1023 65.6037 36.7614C66.062 36.4205 66.2912 35.8864 66.2912 35.1591V33.3864H66.1776C66.0791 33.5455 65.9389 33.7424 65.7571 33.9773C65.5791 34.2083 65.3215 34.4148 64.9844 34.5966C64.651 34.7746 64.2003 34.8636 63.6321 34.8636C62.9276 34.8636 62.295 34.697 61.7344 34.3636C61.1776 34.0303 60.7363 33.5455 60.4105 32.9091C60.0885 32.2727 59.9276 31.5 59.9276 30.5909C59.9276 29.697 60.0848 28.9186 60.3991 28.2557C60.7135 27.589 61.151 27.0739 61.7116 26.7102C62.2723 26.3428 62.92 26.1591 63.6548 26.1591C64.223 26.1591 64.6738 26.2538 65.0071 26.4432C65.3442 26.6288 65.6018 26.8409 65.7798 27.0795C65.9616 27.3144 66.1018 27.5076 66.2003 27.6591H66.3366V26.2727H67.6321V35.25C67.6321 36 67.4616 36.6098 67.1207 37.0795C66.7836 37.553 66.3291 37.8996 65.7571 38.1193C65.1889 38.3428 64.5563 38.4545 63.8594 38.4545ZM63.8139 33.6591C64.3518 33.6591 64.8063 33.536 65.1776 33.2898C65.5488 33.0436 65.831 32.6894 66.0241 32.2273C66.2173 31.7652 66.3139 31.2121 66.3139 30.5682C66.3139 29.9394 66.2192 29.3845 66.0298 28.9034C65.8404 28.4223 65.5601 28.0455 65.1889 27.7727C64.8177 27.5 64.3594 27.3636 63.8139 27.3636C63.2457 27.3636 62.7723 27.5076 62.3935 27.7955C62.0185 28.0833 61.7363 28.4697 61.5469 28.9545C61.3613 29.4394 61.2685 29.9773 61.2685 30.5682C61.2685 31.1742 61.3632 31.7102 61.5526 32.1761C61.7457 32.6383 62.0298 33.0019 62.4048 33.267C62.7836 33.5284 63.2533 33.6591 63.8139 33.6591ZM72.6548 35.2045C72.1018 35.2045 71.5999 35.1004 71.1491 34.892C70.6984 34.6799 70.3404 34.375 70.0753 33.9773C69.8101 33.5758 69.6776 33.0909 69.6776 32.5227C69.6776 32.0227 69.776 31.6174 69.973 31.3068C70.17 30.9924 70.4332 30.7462 70.7628 30.5682C71.0923 30.3902 71.456 30.2576 71.8537 30.1705C72.2552 30.0795 72.6586 30.0076 73.0639 29.9545C73.5942 29.8864 74.0241 29.8352 74.3537 29.8011C74.687 29.7633 74.9295 29.7008 75.081 29.6136C75.2363 29.5265 75.3139 29.375 75.3139 29.1591V29.1136C75.3139 28.553 75.1605 28.1174 74.8537 27.8068C74.5507 27.4962 74.0904 27.3409 73.473 27.3409C72.8329 27.3409 72.331 27.4811 71.9673 27.7614C71.6037 28.0417 71.348 28.3409 71.2003 28.6591L69.9276 28.2045C70.1548 27.6742 70.4579 27.2614 70.8366 26.9659C71.2192 26.6667 71.6359 26.4583 72.0866 26.3409C72.5412 26.2197 72.9882 26.1591 73.4276 26.1591C73.7079 26.1591 74.0298 26.1932 74.3935 26.2614C74.7609 26.3258 75.1151 26.4602 75.456 26.6648C75.8007 26.8693 76.0866 27.178 76.3139 27.5909C76.5412 28.0038 76.6548 28.5568 76.6548 29.25V35H75.3139V33.8182H75.2457C75.1548 34.0076 75.0033 34.2102 74.7912 34.4261C74.5791 34.642 74.2969 34.8258 73.9446 34.9773C73.5923 35.1288 73.1624 35.2045 72.6548 35.2045ZM72.8594 34C73.3897 34 73.8366 33.8958 74.2003 33.6875C74.5677 33.4792 74.8442 33.2102 75.0298 32.8807C75.2192 32.5511 75.3139 32.2045 75.3139 31.8409V30.6136C75.2571 30.6818 75.1321 30.7443 74.9389 30.8011C74.7495 30.8542 74.5298 30.9015 74.2798 30.9432C74.0336 30.9811 73.7931 31.0152 73.5582 31.0455C73.3272 31.072 73.1397 31.0947 72.9957 31.1136C72.6473 31.1591 72.3215 31.233 72.0185 31.3352C71.7192 31.4337 71.4768 31.5833 71.2912 31.7841C71.1094 31.9811 71.0185 32.25 71.0185 32.5909C71.0185 33.0568 71.1908 33.4091 71.5355 33.6477C71.884 33.8826 72.3253 34 72.8594 34Z" fill="white"/>
<path d="M20.0625 29.1435H8.94375L12.3469 25.4067C12.506 25.2316 12.5826 25.006 12.5597 24.7794C12.5369 24.5527 12.4165 24.3437 12.225 24.1982C12.0335 24.0527 11.7867 23.9827 11.5388 24.0036C11.2909 24.0245 11.0623 24.1346 10.9031 24.3096L6.21563 29.452C6.18409 29.4929 6.15589 29.5359 6.13125 29.5806C6.13125 29.6234 6.13125 29.6491 6.06563 29.692C6.02313 29.7903 6.00088 29.8949 6 30.0005C6.00088 30.1062 6.02313 30.2108 6.06563 30.3091C6.06563 30.3519 6.06562 30.3776 6.13125 30.4205C6.15589 30.4652 6.18409 30.5082 6.21563 30.5491L10.9031 35.6915C10.9913 35.7882 11.1017 35.866 11.2264 35.9193C11.3512 35.9727 11.4873 36.0002 11.625 36C11.844 36.0004 12.0563 35.9306 12.225 35.8029C12.3199 35.7309 12.3984 35.6426 12.4559 35.5428C12.5134 35.4431 12.5489 35.334 12.5602 35.2218C12.5715 35.1095 12.5585 34.9963 12.5219 34.8887C12.4853 34.781 12.4258 34.681 12.3469 34.5944L8.94375 30.8576H20.0625C20.3111 30.8576 20.5496 30.7673 20.7254 30.6066C20.9012 30.4458 21 30.2278 21 30.0005C21 29.7732 20.9012 29.5552 20.7254 29.3945C20.5496 29.2338 20.3111 29.1435 20.0625 29.1435Z" fill="white"/>
<rect x="39" y="107" width="162" height="138" rx="15" fill="#27293E"/>
<path d="M99 176V134H141V176H99ZM103.667 148H136.333V138.667H103.667V148ZM116.092 159.667H123.908V152.667H116.092V159.667ZM116.092 171.333H123.908V164.333H116.092V171.333ZM103.667 159.667H111.425V152.667H103.667V159.667ZM128.575 159.667H136.333V152.667H128.575V159.667ZM103.667 171.333H111.425V164.333H103.667V171.333ZM128.575 171.333H136.333V164.333H128.575V171.333Z" fill="#FF914D"/>
<path d="M98.5682 215.392V213.364H108.125V215.392H104.562V225H102.131V215.392H98.5682ZM110.955 225.165C110.398 225.165 109.902 225.068 109.466 224.875C109.03 224.678 108.686 224.388 108.432 224.006C108.182 223.619 108.057 223.138 108.057 222.562C108.057 222.078 108.146 221.67 108.324 221.341C108.502 221.011 108.744 220.746 109.051 220.545C109.358 220.345 109.706 220.193 110.097 220.091C110.491 219.989 110.903 219.917 111.335 219.875C111.843 219.822 112.252 219.773 112.562 219.727C112.873 219.678 113.098 219.606 113.239 219.511C113.379 219.417 113.449 219.277 113.449 219.091V219.057C113.449 218.697 113.335 218.419 113.108 218.222C112.884 218.025 112.566 217.926 112.153 217.926C111.718 217.926 111.371 218.023 111.114 218.216C110.856 218.405 110.686 218.644 110.602 218.932L108.364 218.75C108.477 218.22 108.701 217.761 109.034 217.375C109.367 216.985 109.797 216.686 110.324 216.477C110.854 216.265 111.468 216.159 112.165 216.159C112.65 216.159 113.114 216.216 113.557 216.33C114.004 216.443 114.4 216.619 114.744 216.858C115.093 217.097 115.367 217.403 115.568 217.778C115.769 218.15 115.869 218.595 115.869 219.114V225H113.574V223.79H113.506C113.366 224.062 113.178 224.303 112.943 224.511C112.708 224.716 112.426 224.877 112.097 224.994C111.767 225.108 111.386 225.165 110.955 225.165ZM111.648 223.494C112.004 223.494 112.318 223.424 112.591 223.284C112.864 223.14 113.078 222.947 113.233 222.705C113.388 222.462 113.466 222.187 113.466 221.881V220.955C113.39 221.004 113.286 221.049 113.153 221.091C113.025 221.129 112.879 221.165 112.716 221.199C112.553 221.229 112.39 221.258 112.227 221.284C112.064 221.307 111.917 221.328 111.784 221.347C111.5 221.388 111.252 221.455 111.04 221.545C110.828 221.636 110.663 221.759 110.545 221.915C110.428 222.066 110.369 222.256 110.369 222.483C110.369 222.812 110.489 223.064 110.727 223.239C110.97 223.409 111.277 223.494 111.648 223.494ZM117.793 225V213.364H120.213V217.739H120.287C120.393 217.504 120.546 217.265 120.747 217.023C120.952 216.777 121.217 216.572 121.543 216.409C121.872 216.242 122.281 216.159 122.77 216.159C123.406 216.159 123.993 216.326 124.531 216.659C125.069 216.989 125.499 217.487 125.821 218.153C126.143 218.816 126.304 219.648 126.304 220.648C126.304 221.621 126.147 222.443 125.832 223.114C125.522 223.78 125.098 224.286 124.56 224.631C124.026 224.972 123.427 225.142 122.764 225.142C122.295 225.142 121.895 225.064 121.565 224.909C121.24 224.754 120.973 224.559 120.764 224.324C120.556 224.085 120.397 223.845 120.287 223.602H120.179V225H117.793ZM120.162 220.636C120.162 221.155 120.234 221.608 120.378 221.994C120.522 222.381 120.73 222.682 121.003 222.898C121.276 223.11 121.607 223.216 121.997 223.216C122.391 223.216 122.724 223.108 122.997 222.892C123.27 222.672 123.476 222.369 123.616 221.983C123.76 221.593 123.832 221.144 123.832 220.636C123.832 220.133 123.762 219.689 123.622 219.307C123.482 218.924 123.276 218.625 123.003 218.409C122.73 218.193 122.395 218.085 121.997 218.085C121.603 218.085 121.27 218.189 120.997 218.398C120.728 218.606 120.522 218.902 120.378 219.284C120.234 219.667 120.162 220.117 120.162 220.636ZM130.339 213.364V225H127.919V213.364H130.339ZM136.256 225.17C135.358 225.17 134.585 224.989 133.938 224.625C133.294 224.258 132.797 223.739 132.449 223.068C132.1 222.394 131.926 221.597 131.926 220.676C131.926 219.778 132.1 218.991 132.449 218.312C132.797 217.634 133.288 217.106 133.92 216.727C134.557 216.348 135.303 216.159 136.159 216.159C136.735 216.159 137.271 216.252 137.767 216.438C138.267 216.619 138.703 216.894 139.074 217.261C139.449 217.629 139.741 218.091 139.949 218.648C140.157 219.201 140.261 219.848 140.261 220.591V221.256H132.892V219.756H137.983C137.983 219.407 137.907 219.098 137.756 218.83C137.604 218.561 137.394 218.35 137.125 218.199C136.86 218.044 136.551 217.966 136.199 217.966C135.831 217.966 135.506 218.051 135.222 218.222C134.941 218.388 134.722 218.614 134.562 218.898C134.403 219.178 134.322 219.491 134.318 219.835V221.261C134.318 221.693 134.398 222.066 134.557 222.381C134.72 222.695 134.949 222.938 135.244 223.108C135.54 223.278 135.89 223.364 136.295 223.364C136.564 223.364 136.811 223.326 137.034 223.25C137.258 223.174 137.449 223.061 137.608 222.909C137.767 222.758 137.888 222.572 137.972 222.352L140.21 222.5C140.097 223.038 139.864 223.508 139.511 223.909C139.163 224.307 138.712 224.617 138.159 224.841C137.61 225.061 136.975 225.17 136.256 225.17Z" fill="#FF914D"/>
<rect x="235" y="107" width="162" height="138" rx="15" fill="#27293E"/>
<path d="M324.4 176V171.333C324.4 168.858 323.515 166.484 321.94 164.734C320.364 162.983 318.228 162 316 162H303.4C301.172 162 299.036 162.983 297.46 164.734C295.885 166.484 295 168.858 295 171.333V176" stroke="#FF914D" stroke-width="1.33333" stroke-linecap="round" stroke-linejoin="round"/>
<path d="M309.7 152.667C314.339 152.667 318.1 148.488 318.1 143.333C318.1 138.179 314.339 134 309.7 134C305.061 134 301.3 138.179 301.3 143.333C301.3 148.488 305.061 152.667 309.7 152.667Z" stroke="#FF914D" stroke-width="1.33333" stroke-linecap="round" stroke-linejoin="round"/>
<path d="M337 176V171.333C336.998 169.265 336.379 167.256 335.239 165.622C334.098 163.988 332.502 162.82 330.7 162.303M324.4 134.303C326.207 134.817 327.808 135.985 328.952 137.622C330.095 139.259 330.716 141.273 330.716 143.345C330.716 145.417 330.095 147.431 328.952 149.068C327.808 150.705 326.207 151.873 324.4 152.387" stroke="#FF914D" stroke-width="1.33333" stroke-linecap="round" stroke-linejoin="round"/>
<path d="M290.568 216.392V214.364H300.125V216.392H296.562V226H294.131V216.392H290.568ZM304.365 226.17C303.467 226.17 302.695 225.989 302.047 225.625C301.403 225.258 300.907 224.739 300.558 224.068C300.21 223.394 300.036 222.597 300.036 221.676C300.036 220.778 300.21 219.991 300.558 219.312C300.907 218.634 301.397 218.106 302.03 217.727C302.666 217.348 303.412 217.159 304.268 217.159C304.844 217.159 305.38 217.252 305.876 217.438C306.376 217.619 306.812 217.894 307.183 218.261C307.558 218.629 307.85 219.091 308.058 219.648C308.267 220.201 308.371 220.848 308.371 221.591V222.256H301.001V220.756H306.092C306.092 220.407 306.017 220.098 305.865 219.83C305.714 219.561 305.503 219.35 305.234 219.199C304.969 219.044 304.661 218.966 304.308 218.966C303.941 218.966 303.615 219.051 303.331 219.222C303.051 219.388 302.831 219.614 302.672 219.898C302.513 220.178 302.431 220.491 302.428 220.835V222.261C302.428 222.693 302.507 223.066 302.666 223.381C302.829 223.695 303.058 223.938 303.354 224.108C303.649 224.278 304 224.364 304.405 224.364C304.674 224.364 304.92 224.326 305.143 224.25C305.367 224.174 305.558 224.061 305.717 223.909C305.876 223.758 305.998 223.572 306.081 223.352L308.32 223.5C308.206 224.038 307.973 224.508 307.621 224.909C307.272 225.307 306.821 225.617 306.268 225.841C305.719 226.061 305.085 226.17 304.365 226.17ZM312.439 226.165C311.882 226.165 311.386 226.068 310.95 225.875C310.515 225.678 310.17 225.388 309.916 225.006C309.666 224.619 309.541 224.138 309.541 223.562C309.541 223.078 309.63 222.67 309.808 222.341C309.986 222.011 310.229 221.746 310.536 221.545C310.842 221.345 311.191 221.193 311.581 221.091C311.975 220.989 312.388 220.917 312.82 220.875C313.327 220.822 313.736 220.773 314.047 220.727C314.357 220.678 314.583 220.606 314.723 220.511C314.863 220.417 314.933 220.277 314.933 220.091V220.057C314.933 219.697 314.82 219.419 314.592 219.222C314.369 219.025 314.051 218.926 313.638 218.926C313.202 218.926 312.856 219.023 312.598 219.216C312.34 219.405 312.17 219.644 312.087 219.932L309.848 219.75C309.962 219.22 310.185 218.761 310.518 218.375C310.852 217.985 311.282 217.686 311.808 217.477C312.339 217.265 312.952 217.159 313.649 217.159C314.134 217.159 314.598 217.216 315.041 217.33C315.488 217.443 315.884 217.619 316.229 217.858C316.577 218.097 316.852 218.403 317.053 218.778C317.253 219.15 317.354 219.595 317.354 220.114V226H315.058V224.79H314.99C314.85 225.062 314.662 225.303 314.428 225.511C314.193 225.716 313.911 225.877 313.581 225.994C313.251 226.108 312.871 226.165 312.439 226.165ZM313.132 224.494C313.488 224.494 313.803 224.424 314.075 224.284C314.348 224.14 314.562 223.947 314.717 223.705C314.873 223.462 314.95 223.187 314.95 222.881V221.955C314.875 222.004 314.77 222.049 314.638 222.091C314.509 222.129 314.363 222.165 314.2 222.199C314.037 222.229 313.875 222.258 313.712 222.284C313.549 222.307 313.401 222.328 313.268 222.347C312.984 222.388 312.736 222.455 312.524 222.545C312.312 222.636 312.147 222.759 312.03 222.915C311.912 223.066 311.854 223.256 311.854 223.483C311.854 223.812 311.973 224.064 312.212 224.239C312.454 224.409 312.761 224.494 313.132 224.494ZM319.232 226V217.273H321.538V218.812H321.641C321.822 218.301 322.125 217.898 322.55 217.602C322.974 217.307 323.482 217.159 324.072 217.159C324.671 217.159 325.18 217.309 325.601 217.608C326.021 217.903 326.302 218.305 326.442 218.812H326.533C326.711 218.312 327.033 217.913 327.499 217.614C327.968 217.311 328.523 217.159 329.163 217.159C329.978 217.159 330.639 217.419 331.146 217.938C331.658 218.453 331.913 219.184 331.913 220.131V226H329.499V220.608C329.499 220.123 329.37 219.759 329.112 219.517C328.855 219.275 328.533 219.153 328.146 219.153C327.707 219.153 327.364 219.294 327.118 219.574C326.872 219.85 326.749 220.216 326.749 220.67V226H324.402V220.557C324.402 220.129 324.279 219.788 324.033 219.534C323.79 219.28 323.47 219.153 323.072 219.153C322.804 219.153 322.561 219.222 322.345 219.358C322.133 219.491 321.964 219.678 321.839 219.92C321.714 220.159 321.652 220.439 321.652 220.761V226H319.232ZM341.087 219.761L338.871 219.898C338.833 219.708 338.751 219.538 338.626 219.386C338.501 219.231 338.337 219.108 338.132 219.017C337.931 218.922 337.691 218.875 337.411 218.875C337.036 218.875 336.719 218.955 336.462 219.114C336.204 219.269 336.075 219.477 336.075 219.739C336.075 219.947 336.159 220.123 336.325 220.267C336.492 220.411 336.778 220.527 337.183 220.614L338.763 220.932C339.611 221.106 340.244 221.386 340.661 221.773C341.077 222.159 341.286 222.667 341.286 223.295C341.286 223.867 341.117 224.369 340.78 224.801C340.446 225.233 339.988 225.57 339.405 225.812C338.825 226.051 338.157 226.17 337.399 226.17C336.244 226.17 335.323 225.93 334.638 225.449C333.956 224.964 333.556 224.305 333.439 223.472L335.82 223.347C335.892 223.699 336.066 223.968 336.342 224.153C336.619 224.335 336.973 224.426 337.405 224.426C337.829 224.426 338.17 224.345 338.428 224.182C338.689 224.015 338.821 223.801 338.825 223.54C338.821 223.32 338.729 223.14 338.547 223C338.365 222.856 338.085 222.746 337.706 222.67L336.195 222.369C335.342 222.199 334.708 221.903 334.291 221.483C333.878 221.062 333.672 220.527 333.672 219.875C333.672 219.314 333.823 218.831 334.126 218.426C334.433 218.021 334.863 217.708 335.416 217.489C335.973 217.269 336.625 217.159 337.371 217.159C338.473 217.159 339.34 217.392 339.973 217.858C340.609 218.324 340.981 218.958 341.087 219.761Z" fill="#FF914D"/>
<rect x="39" y="282" width="162" height="138" rx="15" fill="#27293E"/>
<path d="M103.2 309C100.869 309 99 311.336 99 314.25V345.75C99 347.142 99.4425 348.478 100.23 349.462C101.018 350.447 102.086 351 103.2 351H136.8C137.914 351 138.982 350.447 139.77 349.462C140.557 348.478 141 347.142 141 345.75V314.25C141 312.858 140.557 311.522 139.77 310.538C138.982 309.553 137.914 309 136.8 309H103.2ZM103.2 314.25H117.9V319.841C114.204 321.049 111.6 325.222 111.6 330C111.605 332.325 112.226 334.583 113.366 336.421C114.505 338.259 116.1 339.573 117.9 340.159V345.75H103.2V340.5H109.5V319.5H103.2V314.25ZM122.1 314.25H136.8V319.5H130.5V340.5H136.8V345.75H122.1V340.159C125.796 338.951 128.4 334.778 128.4 330C128.395 327.675 127.774 325.417 126.634 323.579C125.495 321.741 123.9 320.427 122.1 319.841V314.25ZM103.2 324.75H105.3V335.25H103.2V324.75ZM134.7 324.75H136.8V335.25H134.7V324.75ZM122.1 325.459C123.402 326.404 124.2 328.136 124.2 330C124.2 331.864 123.402 333.596 122.1 334.541V325.459ZM117.9 325.459V334.541C116.598 333.596 115.8 331.864 115.8 330C115.8 328.136 116.598 326.404 117.9 325.459Z" fill="#FF914D"/>
<path d="M89.0114 402V390.364H96.7159V392.392H91.4716V395.165H96.2045V397.193H91.4716V402H89.0114ZM98.3253 402V393.273H100.746V402H98.3253ZM99.5412 392.148C99.1813 392.148 98.8726 392.028 98.6151 391.79C98.3613 391.547 98.2344 391.258 98.2344 390.92C98.2344 390.587 98.3613 390.301 98.6151 390.062C98.8726 389.82 99.1813 389.699 99.5412 389.699C99.901 389.699 100.208 389.82 100.462 390.062C100.719 390.301 100.848 390.587 100.848 390.92C100.848 391.258 100.719 391.547 100.462 391.79C100.208 392.028 99.901 392.148 99.5412 392.148ZM104.707 393.273L106.31 396.324L107.952 393.273H110.435L107.906 397.636L110.503 402H108.031L106.31 398.983L104.616 402H102.116L104.707 397.636L102.207 393.273H104.707ZM116.514 393.273V395.091H111.259V393.273H116.514ZM112.452 391.182H114.872V399.318C114.872 399.542 114.906 399.716 114.974 399.841C115.043 399.962 115.137 400.047 115.259 400.097C115.384 400.146 115.527 400.17 115.69 400.17C115.804 400.17 115.918 400.161 116.031 400.142C116.145 400.119 116.232 400.102 116.293 400.091L116.673 401.892C116.552 401.93 116.382 401.973 116.162 402.023C115.942 402.076 115.675 402.108 115.361 402.119C114.777 402.142 114.266 402.064 113.827 401.886C113.391 401.708 113.052 401.432 112.81 401.057C112.567 400.682 112.448 400.208 112.452 399.636V391.182ZM123.688 398.284V393.273H126.108V402H123.784V400.415H123.693C123.496 400.926 123.169 401.337 122.71 401.648C122.256 401.958 121.701 402.114 121.045 402.114C120.462 402.114 119.949 401.981 119.506 401.716C119.063 401.451 118.716 401.074 118.466 400.585C118.22 400.097 118.095 399.511 118.091 398.83V393.273H120.511V398.398C120.515 398.913 120.653 399.32 120.926 399.619C121.199 399.919 121.564 400.068 122.023 400.068C122.314 400.068 122.587 400.002 122.841 399.869C123.095 399.733 123.299 399.532 123.455 399.267C123.614 399.002 123.691 398.674 123.688 398.284ZM128.044 402V393.273H130.391V394.795H130.482C130.641 394.254 130.908 393.845 131.283 393.568C131.658 393.288 132.089 393.148 132.578 393.148C132.699 393.148 132.83 393.155 132.97 393.17C133.11 393.186 133.233 393.206 133.339 393.233V395.381C133.226 395.347 133.069 395.316 132.868 395.29C132.667 395.263 132.483 395.25 132.317 395.25C131.961 395.25 131.643 395.328 131.362 395.483C131.086 395.634 130.866 395.847 130.703 396.119C130.544 396.392 130.464 396.706 130.464 397.062V402H128.044ZM138.162 402.17C137.264 402.17 136.491 401.989 135.844 401.625C135.2 401.258 134.704 400.739 134.355 400.068C134.007 399.394 133.832 398.597 133.832 397.676C133.832 396.778 134.007 395.991 134.355 395.312C134.704 394.634 135.194 394.106 135.827 393.727C136.463 393.348 137.209 393.159 138.065 393.159C138.641 393.159 139.177 393.252 139.673 393.438C140.173 393.619 140.609 393.894 140.98 394.261C141.355 394.629 141.647 395.091 141.855 395.648C142.063 396.201 142.168 396.848 142.168 397.591V398.256H134.798V396.756H139.889C139.889 396.407 139.813 396.098 139.662 395.83C139.51 395.561 139.3 395.35 139.031 395.199C138.766 395.044 138.457 394.966 138.105 394.966C137.738 394.966 137.412 395.051 137.128 395.222C136.848 395.388 136.628 395.614 136.469 395.898C136.31 396.178 136.228 396.491 136.224 396.835V398.261C136.224 398.693 136.304 399.066 136.463 399.381C136.626 399.695 136.855 399.938 137.151 400.108C137.446 400.278 137.796 400.364 138.202 400.364C138.471 400.364 138.717 400.326 138.94 400.25C139.164 400.174 139.355 400.061 139.514 399.909C139.673 399.758 139.795 399.572 139.878 399.352L142.116 399.5C142.003 400.038 141.77 400.508 141.418 400.909C141.069 401.307 140.618 401.617 140.065 401.841C139.516 402.061 138.882 402.17 138.162 402.17ZM151.009 395.761L148.793 395.898C148.755 395.708 148.673 395.538 148.548 395.386C148.423 395.231 148.259 395.108 148.054 395.017C147.853 394.922 147.613 394.875 147.332 394.875C146.957 394.875 146.641 394.955 146.384 395.114C146.126 395.269 145.997 395.477 145.997 395.739C145.997 395.947 146.08 396.123 146.247 396.267C146.414 396.411 146.7 396.527 147.105 396.614L148.685 396.932C149.533 397.106 150.166 397.386 150.582 397.773C150.999 398.159 151.207 398.667 151.207 399.295C151.207 399.867 151.039 400.369 150.702 400.801C150.368 401.233 149.91 401.57 149.327 401.812C148.747 402.051 148.079 402.17 147.321 402.17C146.166 402.17 145.245 401.93 144.56 401.449C143.878 400.964 143.478 400.305 143.361 399.472L145.741 399.347C145.813 399.699 145.988 399.968 146.264 400.153C146.541 400.335 146.895 400.426 147.327 400.426C147.751 400.426 148.092 400.345 148.349 400.182C148.611 400.015 148.743 399.801 148.747 399.54C148.743 399.32 148.651 399.14 148.469 399C148.287 398.856 148.007 398.746 147.628 398.67L146.116 398.369C145.264 398.199 144.63 397.903 144.213 397.483C143.8 397.062 143.594 396.527 143.594 395.875C143.594 395.314 143.745 394.831 144.048 394.426C144.355 394.021 144.785 393.708 145.338 393.489C145.895 393.269 146.546 393.159 147.293 393.159C148.395 393.159 149.262 393.392 149.895 393.858C150.531 394.324 150.902 394.958 151.009 395.761Z" fill="#FF914D"/>
<rect x="237" y="282" width="162" height="138" rx="15" fill="#27293E"/>
<path d="M306.333 341.667H311V325.333H306.333V341.667ZM315.667 341.667H320.333V318.333H315.667V341.667ZM325 341.667H329.667V332.333H325V341.667ZM297 351V309H339V351H297Z" fill="#FF914D"/>
<path d="M288.324 394.71C288.278 394.252 288.083 393.896 287.739 393.642C287.394 393.388 286.926 393.261 286.335 393.261C285.934 393.261 285.595 393.318 285.318 393.432C285.042 393.542 284.83 393.695 284.682 393.892C284.538 394.089 284.466 394.312 284.466 394.562C284.458 394.771 284.502 394.953 284.597 395.108C284.695 395.263 284.83 395.398 285 395.511C285.17 395.621 285.367 395.718 285.591 395.801C285.814 395.881 286.053 395.949 286.307 396.006L287.352 396.256C287.86 396.369 288.326 396.521 288.75 396.71C289.174 396.9 289.542 397.133 289.852 397.409C290.163 397.686 290.403 398.011 290.574 398.386C290.748 398.761 290.837 399.191 290.841 399.676C290.837 400.388 290.655 401.006 290.295 401.528C289.939 402.047 289.424 402.451 288.75 402.739C288.08 403.023 287.271 403.165 286.324 403.165C285.384 403.165 284.566 403.021 283.869 402.733C283.176 402.445 282.634 402.019 282.244 401.455C281.858 400.886 281.655 400.184 281.636 399.347H284.017C284.044 399.737 284.155 400.062 284.352 400.324C284.553 400.581 284.82 400.777 285.153 400.909C285.491 401.038 285.871 401.102 286.295 401.102C286.712 401.102 287.074 401.042 287.381 400.92C287.691 400.799 287.932 400.631 288.102 400.415C288.273 400.199 288.358 399.951 288.358 399.67C288.358 399.409 288.28 399.189 288.125 399.011C287.973 398.833 287.75 398.682 287.455 398.557C287.163 398.432 286.805 398.318 286.381 398.216L285.114 397.898C284.133 397.659 283.358 397.286 282.79 396.778C282.222 396.271 281.939 395.587 281.943 394.727C281.939 394.023 282.127 393.407 282.506 392.881C282.888 392.354 283.413 391.943 284.08 391.648C284.746 391.352 285.504 391.205 286.352 391.205C287.216 391.205 287.97 391.352 288.614 391.648C289.261 391.943 289.765 392.354 290.125 392.881C290.485 393.407 290.67 394.017 290.682 394.71H288.324ZM297.092 394.273V396.091H291.837V394.273H297.092ZM293.03 392.182H295.45V400.318C295.45 400.542 295.484 400.716 295.553 400.841C295.621 400.962 295.715 401.047 295.837 401.097C295.962 401.146 296.106 401.17 296.268 401.17C296.382 401.17 296.496 401.161 296.609 401.142C296.723 401.119 296.81 401.102 296.871 401.091L297.251 402.892C297.13 402.93 296.96 402.973 296.74 403.023C296.52 403.076 296.253 403.108 295.939 403.119C295.356 403.142 294.844 403.064 294.405 402.886C293.969 402.708 293.63 402.432 293.388 402.057C293.145 401.682 293.026 401.208 293.03 400.636V392.182ZM301.158 403.165C300.601 403.165 300.105 403.068 299.669 402.875C299.233 402.678 298.889 402.388 298.635 402.006C298.385 401.619 298.26 401.138 298.26 400.562C298.26 400.078 298.349 399.67 298.527 399.341C298.705 399.011 298.947 398.746 299.254 398.545C299.561 398.345 299.91 398.193 300.3 398.091C300.694 397.989 301.107 397.917 301.538 397.875C302.046 397.822 302.455 397.773 302.766 397.727C303.076 397.678 303.302 397.606 303.442 397.511C303.582 397.417 303.652 397.277 303.652 397.091V397.057C303.652 396.697 303.538 396.419 303.311 396.222C303.088 396.025 302.769 395.926 302.357 395.926C301.921 395.926 301.574 396.023 301.317 396.216C301.059 396.405 300.889 396.644 300.805 396.932L298.567 396.75C298.68 396.22 298.904 395.761 299.237 395.375C299.571 394.985 300 394.686 300.527 394.477C301.057 394.265 301.671 394.159 302.368 394.159C302.853 394.159 303.317 394.216 303.76 394.33C304.207 394.443 304.603 394.619 304.947 394.858C305.296 395.097 305.571 395.403 305.771 395.778C305.972 396.15 306.072 396.595 306.072 397.114V403H303.777V401.79H303.709C303.569 402.062 303.381 402.303 303.146 402.511C302.911 402.716 302.629 402.877 302.3 402.994C301.97 403.108 301.589 403.165 301.158 403.165ZM301.851 401.494C302.207 401.494 302.521 401.424 302.794 401.284C303.067 401.14 303.281 400.947 303.436 400.705C303.591 400.462 303.669 400.187 303.669 399.881V398.955C303.593 399.004 303.489 399.049 303.357 399.091C303.228 399.129 303.082 399.165 302.919 399.199C302.756 399.229 302.593 399.258 302.43 399.284C302.268 399.307 302.12 399.328 301.987 399.347C301.703 399.388 301.455 399.455 301.243 399.545C301.031 399.636 300.866 399.759 300.749 399.915C300.631 400.066 300.572 400.256 300.572 400.483C300.572 400.812 300.692 401.064 300.93 401.239C301.173 401.409 301.48 401.494 301.851 401.494ZM312.592 394.273V396.091H307.337V394.273H312.592ZM308.53 392.182H310.95V400.318C310.95 400.542 310.984 400.716 311.053 400.841C311.121 400.962 311.215 401.047 311.337 401.097C311.462 401.146 311.606 401.17 311.768 401.17C311.882 401.17 311.996 401.161 312.109 401.142C312.223 401.119 312.31 401.102 312.371 401.091L312.751 402.892C312.63 402.93 312.46 402.973 312.24 403.023C312.02 403.076 311.753 403.108 311.439 403.119C310.856 403.142 310.344 403.064 309.905 402.886C309.469 402.708 309.13 402.432 308.888 402.057C308.645 401.682 308.526 401.208 308.53 400.636V392.182ZM314.169 403V394.273H316.589V403H314.169ZM315.385 393.148C315.025 393.148 314.716 393.028 314.459 392.79C314.205 392.547 314.078 392.258 314.078 391.92C314.078 391.587 314.205 391.301 314.459 391.062C314.716 390.82 315.025 390.699 315.385 390.699C315.745 390.699 316.052 390.82 316.305 391.062C316.563 391.301 316.692 391.587 316.692 391.92C316.692 392.258 316.563 392.547 316.305 392.79C316.052 393.028 315.745 393.148 315.385 393.148ZM325.79 396.761L323.574 396.898C323.536 396.708 323.455 396.538 323.33 396.386C323.205 396.231 323.04 396.108 322.835 396.017C322.634 395.922 322.394 395.875 322.114 395.875C321.739 395.875 321.422 395.955 321.165 396.114C320.907 396.269 320.778 396.477 320.778 396.739C320.778 396.947 320.862 397.123 321.028 397.267C321.195 397.411 321.481 397.527 321.886 397.614L323.466 397.932C324.314 398.106 324.947 398.386 325.364 398.773C325.78 399.159 325.989 399.667 325.989 400.295C325.989 400.867 325.82 401.369 325.483 401.801C325.15 402.233 324.691 402.57 324.108 402.812C323.528 403.051 322.86 403.17 322.102 403.17C320.947 403.17 320.027 402.93 319.341 402.449C318.659 401.964 318.259 401.305 318.142 400.472L320.523 400.347C320.595 400.699 320.769 400.968 321.045 401.153C321.322 401.335 321.676 401.426 322.108 401.426C322.532 401.426 322.873 401.345 323.131 401.182C323.392 401.015 323.525 400.801 323.528 400.54C323.525 400.32 323.432 400.14 323.25 400C323.068 399.856 322.788 399.746 322.409 399.67L320.898 399.369C320.045 399.199 319.411 398.903 318.994 398.483C318.581 398.062 318.375 397.527 318.375 396.875C318.375 396.314 318.527 395.831 318.83 395.426C319.136 395.021 319.566 394.708 320.119 394.489C320.676 394.269 321.328 394.159 322.074 394.159C323.176 394.159 324.044 394.392 324.676 394.858C325.313 395.324 325.684 395.958 325.79 396.761ZM332.155 394.273V396.091H326.899V394.273H332.155ZM328.092 392.182H330.513V400.318C330.513 400.542 330.547 400.716 330.615 400.841C330.683 400.962 330.778 401.047 330.899 401.097C331.024 401.146 331.168 401.17 331.331 401.17C331.445 401.17 331.558 401.161 331.672 401.142C331.786 401.119 331.873 401.102 331.933 401.091L332.314 402.892C332.193 402.93 332.022 402.973 331.803 403.023C331.583 403.076 331.316 403.108 331.001 403.119C330.418 403.142 329.907 403.064 329.467 402.886C329.032 402.708 328.693 402.432 328.45 402.057C328.208 401.682 328.089 401.208 328.092 400.636V392.182ZM333.732 403V394.273H336.152V403H333.732ZM334.947 393.148C334.588 393.148 334.279 393.028 334.021 392.79C333.768 392.547 333.641 392.258 333.641 391.92C333.641 391.587 333.768 391.301 334.021 391.062C334.279 390.82 334.588 390.699 334.947 390.699C335.307 390.699 335.614 390.82 335.868 391.062C336.125 391.301 336.254 391.587 336.254 391.92C336.254 392.258 336.125 392.547 335.868 392.79C335.614 393.028 335.307 393.148 334.947 393.148ZM342.034 403.17C341.14 403.17 340.371 402.981 339.727 402.602C339.087 402.22 338.595 401.689 338.25 401.011C337.909 400.333 337.739 399.553 337.739 398.67C337.739 397.777 337.911 396.992 338.256 396.318C338.604 395.64 339.098 395.112 339.739 394.733C340.379 394.35 341.14 394.159 342.023 394.159C342.784 394.159 343.451 394.297 344.023 394.574C344.595 394.85 345.047 395.239 345.381 395.739C345.714 396.239 345.898 396.826 345.932 397.5H343.648C343.583 397.064 343.413 396.714 343.136 396.449C342.864 396.18 342.506 396.045 342.062 396.045C341.688 396.045 341.36 396.148 341.08 396.352C340.803 396.553 340.587 396.847 340.432 397.233C340.277 397.619 340.199 398.087 340.199 398.636C340.199 399.193 340.275 399.667 340.426 400.057C340.581 400.447 340.799 400.744 341.08 400.949C341.36 401.153 341.688 401.256 342.062 401.256C342.339 401.256 342.587 401.199 342.807 401.085C343.03 400.972 343.214 400.807 343.358 400.591C343.506 400.371 343.602 400.108 343.648 399.801H345.932C345.894 400.468 345.712 401.055 345.386 401.562C345.064 402.066 344.619 402.46 344.051 402.744C343.483 403.028 342.811 403.17 342.034 403.17ZM354.743 396.761L352.527 396.898C352.489 396.708 352.408 396.538 352.283 396.386C352.158 396.231 351.993 396.108 351.788 396.017C351.588 395.922 351.347 395.875 351.067 395.875C350.692 395.875 350.375 395.955 350.118 396.114C349.86 396.269 349.732 396.477 349.732 396.739C349.732 396.947 349.815 397.123 349.982 397.267C350.148 397.411 350.434 397.527 350.839 397.614L352.419 397.932C353.268 398.106 353.9 398.386 354.317 398.773C354.733 399.159 354.942 399.667 354.942 400.295C354.942 400.867 354.773 401.369 354.436 401.801C354.103 402.233 353.644 402.57 353.061 402.812C352.482 403.051 351.813 403.17 351.055 403.17C349.9 403.17 348.98 402.93 348.294 402.449C347.612 401.964 347.213 401.305 347.095 400.472L349.476 400.347C349.548 400.699 349.722 400.968 349.999 401.153C350.275 401.335 350.629 401.426 351.061 401.426C351.485 401.426 351.826 401.345 352.084 401.182C352.345 401.015 352.478 400.801 352.482 400.54C352.478 400.32 352.385 400.14 352.203 400C352.021 399.856 351.741 399.746 351.362 399.67L349.851 399.369C348.999 399.199 348.364 398.903 347.947 398.483C347.535 398.062 347.328 397.527 347.328 396.875C347.328 396.314 347.48 395.831 347.783 395.426C348.089 395.021 348.519 394.708 349.072 394.489C349.629 394.269 350.281 394.159 351.027 394.159C352.129 394.159 352.997 394.392 353.629 394.858C354.266 395.324 354.637 395.958 354.743 396.761Z" fill="#FF914D"/>
</svg>
