<svg width="1363" height="167" viewBox="0 0 1363 167" fill="none" xmlns="http://www.w3.org/2000/svg">
<rect width="1363" height="167" rx="15" fill="#F0F0F0"/>
<path d="M0 15C0 6.71573 6.71573 0 15 0H37V167H15C6.71573 167 0 160.284 0 152V15Z" fill="#424241"/>
<path d="M100.906 50.9219L93.3945 48.2383V45.0859L103.602 49.375V51.6367L100.906 50.9219ZM93.3945 53.1719L100.918 50.4297L103.602 49.7852V52.0352L93.3945 56.3242V53.1719ZM115.414 40.9375V58H111.898V40.9375H115.414ZM122.211 48.2266V50.9688H114.453V48.2266H122.211ZM123.031 40.9375V43.6914H114.453V40.9375H123.031ZM124.062 51.7891V51.543C124.062 50.6133 124.195 49.7578 124.461 48.9766C124.727 48.1875 125.113 47.5039 125.621 46.9258C126.129 46.3477 126.754 45.8984 127.496 45.5781C128.238 45.25 129.09 45.0859 130.051 45.0859C131.012 45.0859 131.867 45.25 132.617 45.5781C133.367 45.8984 133.996 46.3477 134.504 46.9258C135.02 47.5039 135.41 48.1875 135.676 48.9766C135.941 49.7578 136.074 50.6133 136.074 51.543V51.7891C136.074 52.7109 135.941 53.5664 135.676 54.3555C135.41 55.1367 135.02 55.8203 134.504 56.4062C133.996 56.9844 133.371 57.4336 132.629 57.7539C131.887 58.0742 131.035 58.2344 130.074 58.2344C129.113 58.2344 128.258 58.0742 127.508 57.7539C126.766 57.4336 126.137 56.9844 125.621 56.4062C125.113 55.8203 124.727 55.1367 124.461 54.3555C124.195 53.5664 124.062 52.7109 124.062 51.7891ZM127.438 51.543V51.7891C127.438 52.3203 127.484 52.8164 127.578 53.2773C127.672 53.7383 127.82 54.1445 128.023 54.4961C128.234 54.8398 128.508 55.1094 128.844 55.3047C129.18 55.5 129.59 55.5977 130.074 55.5977C130.543 55.5977 130.945 55.5 131.281 55.3047C131.617 55.1094 131.887 54.8398 132.09 54.4961C132.293 54.1445 132.441 53.7383 132.535 53.2773C132.637 52.8164 132.688 52.3203 132.688 51.7891V51.543C132.688 51.0273 132.637 50.543 132.535 50.0898C132.441 49.6289 132.289 49.2227 132.078 48.8711C131.875 48.5117 131.605 48.2305 131.27 48.0273C130.934 47.8242 130.527 47.7227 130.051 47.7227C129.574 47.7227 129.168 47.8242 128.832 48.0273C128.504 48.2305 128.234 48.5117 128.023 48.8711C127.82 49.2227 127.672 49.6289 127.578 50.0898C127.484 50.543 127.438 51.0273 127.438 51.543ZM137.609 51.7891V51.543C137.609 50.6133 137.742 49.7578 138.008 48.9766C138.273 48.1875 138.66 47.5039 139.168 46.9258C139.676 46.3477 140.301 45.8984 141.043 45.5781C141.785 45.25 142.637 45.0859 143.598 45.0859C144.559 45.0859 145.414 45.25 146.164 45.5781C146.914 45.8984 147.543 46.3477 148.051 46.9258C148.566 47.5039 148.957 48.1875 149.223 48.9766C149.488 49.7578 149.621 50.6133 149.621 51.543V51.7891C149.621 52.7109 149.488 53.5664 149.223 54.3555C148.957 55.1367 148.566 55.8203 148.051 56.4062C147.543 56.9844 146.918 57.4336 146.176 57.7539C145.434 58.0742 144.582 58.2344 143.621 58.2344C142.66 58.2344 141.805 58.0742 141.055 57.7539C140.312 57.4336 139.684 56.9844 139.168 56.4062C138.66 55.8203 138.273 55.1367 138.008 54.3555C137.742 53.5664 137.609 52.7109 137.609 51.7891ZM140.984 51.543V51.7891C140.984 52.3203 141.031 52.8164 141.125 53.2773C141.219 53.7383 141.367 54.1445 141.57 54.4961C141.781 54.8398 142.055 55.1094 142.391 55.3047C142.727 55.5 143.137 55.5977 143.621 55.5977C144.09 55.5977 144.492 55.5 144.828 55.3047C145.164 55.1094 145.434 54.8398 145.637 54.4961C145.84 54.1445 145.988 53.7383 146.082 53.2773C146.184 52.8164 146.234 52.3203 146.234 51.7891V51.543C146.234 51.0273 146.184 50.543 146.082 50.0898C145.988 49.6289 145.836 49.2227 145.625 48.8711C145.422 48.5117 145.152 48.2305 144.816 48.0273C144.48 47.8242 144.074 47.7227 143.598 47.7227C143.121 47.7227 142.715 47.8242 142.379 48.0273C142.051 48.2305 141.781 48.5117 141.57 48.8711C141.367 49.2227 141.219 49.6289 141.125 50.0898C141.031 50.543 140.984 51.0273 140.984 51.543ZM157.906 45.3203V47.7109H150.523V45.3203H157.906ZM152.352 42.1914H155.727V54.1797C155.727 54.5469 155.773 54.8281 155.867 55.0234C155.969 55.2188 156.117 55.3555 156.312 55.4336C156.508 55.5039 156.754 55.5391 157.051 55.5391C157.262 55.5391 157.449 55.5312 157.613 55.5156C157.785 55.4922 157.93 55.4688 158.047 55.4453L158.059 57.9297C157.77 58.0234 157.457 58.0977 157.121 58.1523C156.785 58.207 156.414 58.2344 156.008 58.2344C155.266 58.2344 154.617 58.1133 154.062 57.8711C153.516 57.6211 153.094 57.2227 152.797 56.6758C152.5 56.1289 152.352 55.4102 152.352 54.5195V42.1914ZM166.719 50.5117H162.336L162.312 48.0977H165.992C166.641 48.0977 167.172 48.0156 167.586 47.8516C168 47.6797 168.309 47.4336 168.512 47.1133C168.723 46.7852 168.828 46.3867 168.828 45.918C168.828 45.3867 168.727 44.957 168.523 44.6289C168.328 44.3008 168.02 44.0625 167.598 43.9141C167.184 43.7656 166.648 43.6914 165.992 43.6914H163.555V58H160.039V40.9375H165.992C166.984 40.9375 167.871 41.0312 168.652 41.2188C169.441 41.4062 170.109 41.6914 170.656 42.0742C171.203 42.457 171.621 42.9414 171.91 43.5273C172.199 44.1055 172.344 44.793 172.344 45.5898C172.344 46.293 172.184 46.9414 171.863 47.5352C171.551 48.1289 171.055 48.6133 170.375 48.9883C169.703 49.3633 168.824 49.5703 167.738 49.6094L166.719 50.5117ZM166.566 58H161.375L162.746 55.2578H166.566C167.184 55.2578 167.688 55.1602 168.078 54.9648C168.469 54.7617 168.758 54.4883 168.945 54.1445C169.133 53.8008 169.227 53.4062 169.227 52.9609C169.227 52.4609 169.141 52.0273 168.969 51.6602C168.805 51.293 168.539 51.0117 168.172 50.8164C167.805 50.6133 167.32 50.5117 166.719 50.5117H163.332L163.355 48.0977H167.574L168.383 49.0469C169.422 49.0312 170.258 49.2148 170.891 49.5977C171.531 49.9727 171.996 50.4609 172.285 51.0625C172.582 51.6641 172.73 52.3086 172.73 52.9961C172.73 54.0898 172.492 55.0117 172.016 55.7617C171.539 56.5039 170.84 57.0625 169.918 57.4375C169.004 57.8125 167.887 58 166.566 58ZM182 55.1406V49.4922C182 49.0859 181.934 48.7383 181.801 48.4492C181.668 48.1523 181.461 47.9219 181.18 47.7578C180.906 47.5938 180.551 47.5117 180.113 47.5117C179.738 47.5117 179.414 47.5781 179.141 47.7109C178.867 47.8359 178.656 48.0195 178.508 48.2617C178.359 48.4961 178.285 48.7734 178.285 49.0938H174.91C174.91 48.5547 175.035 48.043 175.285 47.5586C175.535 47.0742 175.898 46.6484 176.375 46.2812C176.852 45.9062 177.418 45.6133 178.074 45.4023C178.738 45.1914 179.48 45.0859 180.301 45.0859C181.285 45.0859 182.16 45.25 182.926 45.5781C183.691 45.9062 184.293 46.3984 184.73 47.0547C185.176 47.7109 185.398 48.5312 185.398 49.5156V54.9414C185.398 55.6367 185.441 56.207 185.527 56.6523C185.613 57.0898 185.738 57.4727 185.902 57.8008V58H182.492C182.328 57.6562 182.203 57.2266 182.117 56.7109C182.039 56.1875 182 55.6641 182 55.1406ZM182.445 50.2773L182.469 52.1875H180.582C180.137 52.1875 179.75 52.2383 179.422 52.3398C179.094 52.4414 178.824 52.5859 178.613 52.7734C178.402 52.9531 178.246 53.1641 178.145 53.4062C178.051 53.6484 178.004 53.9141 178.004 54.2031C178.004 54.4922 178.07 54.7539 178.203 54.9883C178.336 55.2148 178.527 55.3945 178.777 55.5273C179.027 55.6523 179.32 55.7148 179.656 55.7148C180.164 55.7148 180.605 55.6133 180.98 55.4102C181.355 55.207 181.645 54.957 181.848 54.6602C182.059 54.3633 182.168 54.082 182.176 53.8164L183.066 55.2461C182.941 55.5664 182.77 55.8984 182.551 56.2422C182.34 56.5859 182.07 56.9102 181.742 57.2148C181.414 57.5117 181.02 57.7578 180.559 57.9531C180.098 58.1406 179.551 58.2344 178.918 58.2344C178.113 58.2344 177.383 58.0742 176.727 57.7539C176.078 57.4258 175.562 56.9766 175.18 56.4062C174.805 55.8281 174.617 55.1719 174.617 54.4375C174.617 53.7734 174.742 53.1836 174.992 52.668C175.242 52.1523 175.609 51.7188 176.094 51.3672C176.586 51.0078 177.199 50.7383 177.934 50.5586C178.668 50.3711 179.52 50.2773 180.488 50.2773H182.445ZM191.562 40V58H188.176V40H191.562ZM197.914 40V58H194.527V40H197.914ZM206.891 40.9375H213.254C214.559 40.9375 215.68 41.1328 216.617 41.5234C217.562 41.9141 218.289 42.4922 218.797 43.2578C219.305 44.0234 219.559 44.9648 219.559 46.082C219.559 46.9961 219.402 47.7812 219.09 48.4375C218.785 49.0859 218.352 49.6289 217.789 50.0664C217.234 50.4961 216.582 50.8398 215.832 51.0977L214.719 51.6836H209.188L209.164 48.9414H213.277C213.895 48.9414 214.406 48.832 214.812 48.6133C215.219 48.3945 215.523 48.0898 215.727 47.6992C215.938 47.3086 216.043 46.8555 216.043 46.3398C216.043 45.793 215.941 45.3203 215.738 44.9219C215.535 44.5234 215.227 44.2188 214.812 44.0078C214.398 43.7969 213.879 43.6914 213.254 43.6914H210.406V58H206.891V40.9375ZM216.43 58L212.539 50.3945L216.254 50.3711L220.191 57.8359V58H216.43ZM228.898 55.1406V49.4922C228.898 49.0859 228.832 48.7383 228.699 48.4492C228.566 48.1523 228.359 47.9219 228.078 47.7578C227.805 47.5938 227.449 47.5117 227.012 47.5117C226.637 47.5117 226.312 47.5781 226.039 47.7109C225.766 47.8359 225.555 48.0195 225.406 48.2617C225.258 48.4961 225.184 48.7734 225.184 49.0938H221.809C221.809 48.5547 221.934 48.043 222.184 47.5586C222.434 47.0742 222.797 46.6484 223.273 46.2812C223.75 45.9062 224.316 45.6133 224.973 45.4023C225.637 45.1914 226.379 45.0859 227.199 45.0859C228.184 45.0859 229.059 45.25 229.824 45.5781C230.59 45.9062 231.191 46.3984 231.629 47.0547C232.074 47.7109 232.297 48.5312 232.297 49.5156V54.9414C232.297 55.6367 232.34 56.207 232.426 56.6523C232.512 57.0898 232.637 57.4727 232.801 57.8008V58H229.391C229.227 57.6562 229.102 57.2266 229.016 56.7109C228.938 56.1875 228.898 55.6641 228.898 55.1406ZM229.344 50.2773L229.367 52.1875H227.48C227.035 52.1875 226.648 52.2383 226.32 52.3398C225.992 52.4414 225.723 52.5859 225.512 52.7734C225.301 52.9531 225.145 53.1641 225.043 53.4062C224.949 53.6484 224.902 53.9141 224.902 54.2031C224.902 54.4922 224.969 54.7539 225.102 54.9883C225.234 55.2148 225.426 55.3945 225.676 55.5273C225.926 55.6523 226.219 55.7148 226.555 55.7148C227.062 55.7148 227.504 55.6133 227.879 55.4102C228.254 55.207 228.543 54.957 228.746 54.6602C228.957 54.3633 229.066 54.082 229.074 53.8164L229.965 55.2461C229.84 55.5664 229.668 55.8984 229.449 56.2422C229.238 56.5859 228.969 56.9102 228.641 57.2148C228.312 57.5117 227.918 57.7578 227.457 57.9531C226.996 58.1406 226.449 58.2344 225.816 58.2344C225.012 58.2344 224.281 58.0742 223.625 57.7539C222.977 57.4258 222.461 56.9766 222.078 56.4062C221.703 55.8281 221.516 55.1719 221.516 54.4375C221.516 53.7734 221.641 53.1836 221.891 52.668C222.141 52.1523 222.508 51.7188 222.992 51.3672C223.484 51.0078 224.098 50.7383 224.832 50.5586C225.566 50.3711 226.418 50.2773 227.387 50.2773H229.344ZM239.023 55.5391L241.836 45.3203H245.363L241.086 58H238.953L239.023 55.5391ZM237.09 45.3203L239.914 55.5508L239.973 58H237.828L233.551 45.3203H237.09ZM252.547 58.2344C251.562 58.2344 250.68 58.0781 249.898 57.7656C249.117 57.4453 248.453 57.0039 247.906 56.4414C247.367 55.8789 246.953 55.2266 246.664 54.4844C246.375 53.7344 246.23 52.9375 246.23 52.0938V51.625C246.23 50.6641 246.367 49.7852 246.641 48.9883C246.914 48.1914 247.305 47.5 247.812 46.9141C248.328 46.3281 248.953 45.8789 249.688 45.5664C250.422 45.2461 251.25 45.0859 252.172 45.0859C253.07 45.0859 253.867 45.2344 254.562 45.5312C255.258 45.8281 255.84 46.25 256.309 46.7969C256.785 47.3438 257.145 48 257.387 48.7656C257.629 49.5234 257.75 50.3672 257.75 51.2969V52.7031H247.672V50.4531H254.434V50.1953C254.434 49.7266 254.348 49.3086 254.176 48.9414C254.012 48.5664 253.762 48.2695 253.426 48.0508C253.09 47.832 252.66 47.7227 252.137 47.7227C251.691 47.7227 251.309 47.8203 250.988 48.0156C250.668 48.2109 250.406 48.4844 250.203 48.8359C250.008 49.1875 249.859 49.6016 249.758 50.0781C249.664 50.5469 249.617 51.0625 249.617 51.625V52.0938C249.617 52.6016 249.688 53.0703 249.828 53.5C249.977 53.9297 250.184 54.3008 250.449 54.6133C250.723 54.9258 251.051 55.168 251.434 55.3398C251.824 55.5117 252.266 55.5977 252.758 55.5977C253.367 55.5977 253.934 55.4805 254.457 55.2461C254.988 55.0039 255.445 54.6406 255.828 54.1562L257.469 55.9375C257.203 56.3203 256.84 56.6875 256.379 57.0391C255.926 57.3906 255.379 57.6797 254.738 57.9062C254.098 58.125 253.367 58.2344 252.547 58.2344Z" fill="#888888"/>
<path d="M107.205 107.146H99.251V101.191H107.205C108.289 101.191 109.168 101.008 109.842 100.642C110.516 100.275 111.006 99.77 111.314 99.1255C111.636 98.4663 111.797 97.7266 111.797 96.9062C111.797 96.0273 111.636 95.2144 111.314 94.4673C111.006 93.7202 110.516 93.1196 109.842 92.6655C109.168 92.1968 108.289 91.9624 107.205 91.9624H102.151V118H94.439V86.0078H107.205C109.769 86.0078 111.973 86.4766 113.819 87.4141C115.679 88.3516 117.107 89.6406 118.104 91.2812C119.1 92.9072 119.598 94.7676 119.598 96.8623C119.598 98.9277 119.1 100.729 118.104 102.268C117.107 103.806 115.679 105.007 113.819 105.871C111.973 106.721 109.769 107.146 107.205 107.146ZM130.87 100.114V118H123.465V94.2256H130.386L130.87 100.114ZM137.901 94.0498L137.769 100.927C137.476 100.898 137.081 100.861 136.583 100.817C136.084 100.773 135.667 100.751 135.33 100.751C134.466 100.751 133.719 100.854 133.089 101.059C132.474 101.25 131.961 101.542 131.551 101.938C131.155 102.319 130.862 102.802 130.672 103.388C130.496 103.974 130.416 104.655 130.43 105.432L129.09 104.553C129.09 102.956 129.244 101.506 129.551 100.202C129.874 98.8838 130.328 97.7485 130.914 96.7964C131.5 95.8296 132.21 95.0898 133.045 94.5771C133.88 94.0498 134.817 93.7861 135.857 93.7861C136.224 93.7861 136.583 93.8081 136.934 93.8521C137.3 93.896 137.623 93.9619 137.901 94.0498ZM138.736 106.354V105.893C138.736 104.15 138.985 102.546 139.483 101.081C139.981 99.6016 140.713 98.3198 141.68 97.2358C142.647 96.1519 143.841 95.3096 145.262 94.709C146.683 94.0938 148.323 93.7861 150.184 93.7861C152.059 93.7861 153.707 94.0938 155.127 94.709C156.563 95.3096 157.764 96.1519 158.731 97.2358C159.698 98.3198 160.43 99.6016 160.928 101.081C161.426 102.546 161.675 104.15 161.675 105.893V106.354C161.675 108.083 161.426 109.687 160.928 111.167C160.43 112.631 159.698 113.913 158.731 115.012C157.764 116.096 156.57 116.938 155.149 117.539C153.729 118.139 152.088 118.439 150.228 118.439C148.367 118.439 146.719 118.139 145.284 117.539C143.848 116.938 142.647 116.096 141.68 115.012C140.713 113.913 139.981 112.631 139.483 111.167C138.985 109.687 138.736 108.083 138.736 106.354ZM146.141 105.893V106.354C146.141 107.248 146.207 108.083 146.338 108.859C146.47 109.636 146.69 110.317 146.998 110.903C147.305 111.474 147.723 111.921 148.25 112.243C148.777 112.565 149.437 112.727 150.228 112.727C151.004 112.727 151.648 112.565 152.161 112.243C152.688 111.921 153.106 111.474 153.414 110.903C153.721 110.317 153.941 109.636 154.073 108.859C154.205 108.083 154.271 107.248 154.271 106.354V105.893C154.271 105.029 154.205 104.216 154.073 103.454C153.941 102.678 153.721 101.997 153.414 101.411C153.106 100.81 152.688 100.341 152.161 100.004C151.634 99.6675 150.975 99.499 150.184 99.499C149.407 99.499 148.755 99.6675 148.228 100.004C147.715 100.341 147.305 100.81 146.998 101.411C146.69 101.997 146.47 102.678 146.338 103.454C146.207 104.216 146.141 105.029 146.141 105.893ZM177.496 94.2256V99.3672H163.169V94.2256H177.496ZM166.18 88.3149H173.584V110.244C173.584 110.874 173.658 111.364 173.804 111.716C173.951 112.053 174.2 112.294 174.551 112.441C174.917 112.573 175.401 112.639 176.001 112.639C176.426 112.639 176.778 112.631 177.056 112.617C177.334 112.587 177.598 112.551 177.847 112.507V117.802C177.217 118.007 176.558 118.161 175.87 118.264C175.181 118.381 174.449 118.439 173.672 118.439C172.09 118.439 170.735 118.19 169.607 117.692C168.494 117.194 167.645 116.411 167.059 115.341C166.473 114.272 166.18 112.88 166.18 111.167V88.3149ZM178.858 106.354V105.893C178.858 104.15 179.107 102.546 179.605 101.081C180.103 99.6016 180.835 98.3198 181.802 97.2358C182.769 96.1519 183.963 95.3096 185.384 94.709C186.805 94.0938 188.445 93.7861 190.306 93.7861C192.181 93.7861 193.829 94.0938 195.25 94.709C196.685 95.3096 197.886 96.1519 198.853 97.2358C199.82 98.3198 200.552 99.6016 201.05 101.081C201.548 102.546 201.797 104.15 201.797 105.893V106.354C201.797 108.083 201.548 109.687 201.05 111.167C200.552 112.631 199.82 113.913 198.853 115.012C197.886 116.096 196.692 116.938 195.271 117.539C193.851 118.139 192.21 118.439 190.35 118.439C188.489 118.439 186.841 118.139 185.406 117.539C183.97 116.938 182.769 116.096 181.802 115.012C180.835 113.913 180.103 112.631 179.605 111.167C179.107 109.687 178.858 108.083 178.858 106.354ZM186.263 105.893V106.354C186.263 107.248 186.329 108.083 186.46 108.859C186.592 109.636 186.812 110.317 187.12 110.903C187.427 111.474 187.845 111.921 188.372 112.243C188.899 112.565 189.559 112.727 190.35 112.727C191.126 112.727 191.771 112.565 192.283 112.243C192.811 111.921 193.228 111.474 193.536 110.903C193.843 110.317 194.063 109.636 194.195 108.859C194.327 108.083 194.393 107.248 194.393 106.354V105.893C194.393 105.029 194.327 104.216 194.195 103.454C194.063 102.678 193.843 101.997 193.536 101.411C193.228 100.81 192.811 100.341 192.283 100.004C191.756 99.6675 191.097 99.499 190.306 99.499C189.529 99.499 188.877 99.6675 188.35 100.004C187.837 100.341 187.427 100.81 187.12 101.411C186.812 101.997 186.592 102.678 186.46 103.454C186.329 104.216 186.263 105.029 186.263 105.893ZM217.618 94.2256V99.3672H203.292V94.2256H217.618ZM206.302 88.3149H213.707V110.244C213.707 110.874 213.78 111.364 213.926 111.716C214.073 112.053 214.322 112.294 214.673 112.441C215.04 112.573 215.523 112.639 216.124 112.639C216.548 112.639 216.9 112.631 217.178 112.617C217.457 112.587 217.72 112.551 217.969 112.507V117.802C217.339 118.007 216.68 118.161 215.992 118.264C215.303 118.381 214.571 118.439 213.794 118.439C212.212 118.439 210.857 118.19 209.729 117.692C208.616 117.194 207.767 116.411 207.181 115.341C206.595 114.272 206.302 112.88 206.302 111.167V88.3149ZM227.857 115.209L234.009 94.2256H241.963L232.405 121.538C232.2 122.138 231.929 122.783 231.592 123.471C231.255 124.174 230.794 124.841 230.208 125.471C229.622 126.101 228.868 126.613 227.945 127.009C227.037 127.404 225.909 127.602 224.561 127.602C223.843 127.602 223.316 127.565 222.979 127.492C222.657 127.434 222.159 127.324 221.485 127.163V121.867C221.675 121.867 221.836 121.867 221.968 121.867C222.115 121.867 222.276 121.867 222.452 121.867C223.243 121.867 223.873 121.787 224.341 121.625C224.825 121.464 225.191 121.23 225.44 120.922C225.704 120.615 225.909 120.241 226.055 119.802L227.857 115.209ZM226.297 94.2256L230.977 110.859L231.79 118.703H226.824L218.365 94.2256H226.297ZM251.368 98.7959V127.141H243.963V94.2256H250.862L251.368 98.7959ZM265.958 105.827V106.289C265.958 108.017 265.76 109.621 265.364 111.101C264.969 112.58 264.383 113.869 263.606 114.968C262.83 116.066 261.863 116.923 260.706 117.539C259.563 118.139 258.238 118.439 256.729 118.439C255.308 118.439 254.085 118.125 253.06 117.495C252.034 116.865 251.177 115.993 250.489 114.88C249.8 113.767 249.244 112.492 248.819 111.057C248.394 109.621 248.057 108.105 247.808 106.508V105.915C248.057 104.201 248.394 102.612 248.819 101.147C249.244 99.6675 249.8 98.3784 250.489 97.2798C251.177 96.1812 252.027 95.3242 253.038 94.709C254.063 94.0938 255.286 93.7861 256.707 93.7861C258.216 93.7861 259.542 94.0718 260.684 94.6431C261.841 95.2144 262.808 96.0347 263.584 97.104C264.375 98.1587 264.969 99.4258 265.364 100.905C265.76 102.385 265.958 104.025 265.958 105.827ZM258.553 106.289V105.827C258.553 104.904 258.487 104.062 258.355 103.3C258.223 102.524 258.011 101.85 257.718 101.279C257.439 100.708 257.066 100.268 256.597 99.9604C256.128 99.6528 255.55 99.499 254.861 99.499C254.07 99.499 253.404 99.6235 252.862 99.8726C252.334 100.107 251.91 100.473 251.587 100.971C251.28 101.455 251.06 102.062 250.928 102.795C250.811 103.513 250.76 104.355 250.774 105.322V107.124C250.745 108.237 250.855 109.218 251.104 110.068C251.353 110.903 251.785 111.555 252.4 112.023C253.016 112.492 253.851 112.727 254.905 112.727C255.608 112.727 256.194 112.565 256.663 112.243C257.132 111.906 257.505 111.445 257.784 110.859C258.062 110.258 258.26 109.57 258.377 108.793C258.494 108.017 258.553 107.182 258.553 106.289ZM277.076 94.2256V118H269.649V94.2256H277.076ZM269.209 88.0952C269.209 87.0405 269.59 86.1763 270.352 85.5024C271.114 84.8286 272.103 84.4917 273.318 84.4917C274.534 84.4917 275.523 84.8286 276.285 85.5024C277.046 86.1763 277.427 87.0405 277.427 88.0952C277.427 89.1499 277.046 90.0142 276.285 90.688C275.523 91.3618 274.534 91.6987 273.318 91.6987C272.103 91.6987 271.114 91.3618 270.352 90.688C269.59 90.0142 269.209 89.1499 269.209 88.0952ZM288.919 99.3013V118H281.514V94.2256H288.458L288.919 99.3013ZM288.04 105.3L286.304 105.344C286.304 103.527 286.524 101.909 286.963 100.488C287.403 99.0522 288.025 97.8364 288.831 96.8403C289.637 95.8442 290.596 95.0898 291.709 94.5771C292.837 94.0498 294.09 93.7861 295.467 93.7861C296.565 93.7861 297.569 93.9473 298.477 94.2695C299.4 94.5918 300.191 95.1118 300.85 95.8296C301.524 96.5474 302.037 97.4995 302.388 98.686C302.754 99.8579 302.938 101.308 302.938 103.037V118H295.489V103.015C295.489 102.062 295.357 101.337 295.093 100.839C294.83 100.327 294.449 99.9751 293.951 99.7847C293.453 99.5942 292.845 99.499 292.127 99.499C291.365 99.499 290.721 99.6455 290.193 99.9385C289.666 100.231 289.241 100.642 288.919 101.169C288.611 101.682 288.384 102.29 288.238 102.993C288.106 103.696 288.04 104.465 288.04 105.3ZM321.988 94.2256H328.711V117.077C328.711 119.274 328.206 121.135 327.195 122.658C326.185 124.196 324.771 125.361 322.955 126.152C321.153 126.958 319.043 127.36 316.626 127.36C315.557 127.36 314.466 127.221 313.353 126.943C312.239 126.679 311.199 126.284 310.232 125.756C309.266 125.229 308.453 124.577 307.793 123.801L310.892 119.45C311.492 120.124 312.247 120.695 313.155 121.164C314.063 121.647 315.132 121.889 316.363 121.889C317.432 121.889 318.326 121.699 319.043 121.318C319.776 120.937 320.333 120.38 320.713 119.648C321.094 118.93 321.285 118.059 321.285 117.033V99.8506L321.988 94.2256ZM306.189 106.398V105.937C306.189 104.135 306.409 102.495 306.849 101.015C307.303 99.521 307.947 98.2393 308.782 97.1699C309.632 96.0859 310.657 95.251 311.858 94.665C313.06 94.0791 314.415 93.7861 315.923 93.7861C317.549 93.7861 318.882 94.1011 319.922 94.731C320.977 95.3462 321.819 96.2104 322.449 97.3237C323.094 98.437 323.592 99.7407 323.943 101.235C324.31 102.714 324.617 104.311 324.866 106.025V106.574C324.617 108.186 324.273 109.709 323.833 111.145C323.409 112.565 322.852 113.825 322.164 114.924C321.475 116.022 320.611 116.887 319.571 117.517C318.545 118.132 317.315 118.439 315.879 118.439C314.385 118.439 313.038 118.139 311.836 117.539C310.65 116.938 309.632 116.096 308.782 115.012C307.947 113.928 307.303 112.653 306.849 111.188C306.409 109.724 306.189 108.127 306.189 106.398ZM313.594 105.937V106.398C313.594 107.292 313.675 108.12 313.836 108.881C314.012 109.643 314.275 110.317 314.627 110.903C314.979 111.474 315.411 111.921 315.923 112.243C316.451 112.565 317.066 112.727 317.769 112.727C318.838 112.727 319.703 112.5 320.362 112.045C321.021 111.591 321.497 110.947 321.79 110.112C322.083 109.277 322.208 108.295 322.164 107.167V105.432C322.193 104.465 322.127 103.615 321.966 102.883C321.805 102.136 321.548 101.513 321.197 101.015C320.86 100.517 320.406 100.144 319.834 99.8945C319.278 99.6309 318.604 99.499 317.813 99.499C317.125 99.499 316.517 99.6602 315.989 99.9824C315.462 100.305 315.022 100.759 314.671 101.345C314.319 101.916 314.048 102.597 313.858 103.388C313.682 104.165 313.594 105.014 313.594 105.937Z" fill="#424241"/>
<path d="M1363 15C1363 6.71573 1356.28 0 1348 0H1134V167H1348C1356.28 167 1363 160.284 1363 152V15Z" fill="#27293E"/>
<path fill-rule="evenodd" clip-rule="evenodd" d="M1203 49C1203 47.8954 1203.9 47 1205 47H1292.5C1293.6 47 1294.5 47.8954 1294.5 49V118.996C1294.5 120.101 1293.6 120.996 1292.5 120.996H1205C1203.9 120.996 1203 120.101 1203 118.996V49ZM1207 51V55.4945H1290.5V51H1207ZM1290.5 59.4945H1235.44V116.996H1290.5V59.4945ZM1231.44 116.996V59.4945H1207V116.996H1231.44Z" fill="white"/>
<path fill-rule="evenodd" clip-rule="evenodd" d="M1209.97 64.8004C1209.97 63.6958 1210.87 62.8004 1211.97 62.8004H1225.97C1227.08 62.8004 1227.97 63.6958 1227.97 64.8004V84.1956C1227.97 85.3001 1227.08 86.1956 1225.97 86.1956H1211.97C1210.87 86.1956 1209.97 85.3001 1209.97 84.1956V64.8004ZM1213.97 66.8004V82.1956H1223.97V66.8004H1213.97ZM1239.58 65.6964C1239.58 64.5918 1240.47 63.6964 1241.58 63.6964H1284.5C1285.61 63.6964 1286.5 64.5918 1286.5 65.6964V111.905C1286.5 113.01 1285.61 113.905 1284.5 113.905H1241.58C1240.47 113.905 1239.58 113.01 1239.58 111.905V65.6964ZM1243.58 67.6964V109.905H1282.5V67.6964H1243.58ZM1209.81 95.9363C1209.81 94.8317 1210.71 93.9363 1211.81 93.9363H1220.73C1221.84 93.9363 1222.73 94.8317 1222.73 95.9363C1222.73 97.0409 1221.84 97.9363 1220.73 97.9363H1211.81C1210.71 97.9363 1209.81 97.0409 1209.81 95.9363ZM1209.81 102.936C1209.81 101.832 1210.71 100.936 1211.81 100.936H1226.35C1227.46 100.936 1228.35 101.832 1228.35 102.936C1228.35 104.041 1227.46 104.936 1226.35 104.936H1211.81C1210.71 104.936 1209.81 104.041 1209.81 102.936ZM1209.81 109.936C1209.81 108.832 1210.71 107.936 1211.81 107.936H1220.73C1221.84 107.936 1222.73 108.832 1222.73 109.936C1222.73 111.041 1221.84 111.936 1220.73 111.936H1211.81C1210.71 111.936 1209.81 111.041 1209.81 109.936Z" fill="white"/>
</svg>
