<svg width="1363" height="167" viewBox="0 0 1363 167" fill="none" xmlns="http://www.w3.org/2000/svg">
<rect width="1363" height="167" rx="15" fill="#F0F0F0"/>
<path d="M0 15C0 6.71573 6.71573 0 15 0H37V167H15C6.71573 167 0 160.284 0 152V15Z" fill="#424241"/>
<path d="M100.906 54.9219L93.3945 52.2383V49.0859L103.602 53.375V55.6367L100.906 54.9219ZM93.3945 57.1719L100.918 54.4297L103.602 53.7852V56.0352L93.3945 60.3242V57.1719ZM109.438 44.9375V62H105.922V44.9375H109.438ZM116.234 52.2266V54.9688H108.477V52.2266H116.234ZM117.055 44.9375V47.6914H108.477V44.9375H117.055ZM118.086 55.7891V55.543C118.086 54.6133 118.219 53.7578 118.484 52.9766C118.75 52.1875 119.137 51.5039 119.645 50.9258C120.152 50.3477 120.777 49.8984 121.52 49.5781C122.262 49.25 123.113 49.0859 124.074 49.0859C125.035 49.0859 125.891 49.25 126.641 49.5781C127.391 49.8984 128.02 50.3477 128.527 50.9258C129.043 51.5039 129.434 52.1875 129.699 52.9766C129.965 53.7578 130.098 54.6133 130.098 55.543V55.7891C130.098 56.7109 129.965 57.5664 129.699 58.3555C129.434 59.1367 129.043 59.8203 128.527 60.4062C128.02 60.9844 127.395 61.4336 126.652 61.7539C125.91 62.0742 125.059 62.2344 124.098 62.2344C123.137 62.2344 122.281 62.0742 121.531 61.7539C120.789 61.4336 120.16 60.9844 119.645 60.4062C119.137 59.8203 118.75 59.1367 118.484 58.3555C118.219 57.5664 118.086 56.7109 118.086 55.7891ZM121.461 55.543V55.7891C121.461 56.3203 121.508 56.8164 121.602 57.2773C121.695 57.7383 121.844 58.1445 122.047 58.4961C122.258 58.8398 122.531 59.1094 122.867 59.3047C123.203 59.5 123.613 59.5977 124.098 59.5977C124.566 59.5977 124.969 59.5 125.305 59.3047C125.641 59.1094 125.91 58.8398 126.113 58.4961C126.316 58.1445 126.465 57.7383 126.559 57.2773C126.66 56.8164 126.711 56.3203 126.711 55.7891V55.543C126.711 55.0273 126.66 54.543 126.559 54.0898C126.465 53.6289 126.312 53.2227 126.102 52.8711C125.898 52.5117 125.629 52.2305 125.293 52.0273C124.957 51.8242 124.551 51.7227 124.074 51.7227C123.598 51.7227 123.191 51.8242 122.855 52.0273C122.527 52.2305 122.258 52.5117 122.047 52.8711C121.844 53.2227 121.695 53.6289 121.602 54.0898C121.508 54.543 121.461 55.0273 121.461 55.543ZM131.633 55.7891V55.543C131.633 54.6133 131.766 53.7578 132.031 52.9766C132.297 52.1875 132.684 51.5039 133.191 50.9258C133.699 50.3477 134.324 49.8984 135.066 49.5781C135.809 49.25 136.66 49.0859 137.621 49.0859C138.582 49.0859 139.438 49.25 140.188 49.5781C140.938 49.8984 141.566 50.3477 142.074 50.9258C142.59 51.5039 142.98 52.1875 143.246 52.9766C143.512 53.7578 143.645 54.6133 143.645 55.543V55.7891C143.645 56.7109 143.512 57.5664 143.246 58.3555C142.98 59.1367 142.59 59.8203 142.074 60.4062C141.566 60.9844 140.941 61.4336 140.199 61.7539C139.457 62.0742 138.605 62.2344 137.645 62.2344C136.684 62.2344 135.828 62.0742 135.078 61.7539C134.336 61.4336 133.707 60.9844 133.191 60.4062C132.684 59.8203 132.297 59.1367 132.031 58.3555C131.766 57.5664 131.633 56.7109 131.633 55.7891ZM135.008 55.543V55.7891C135.008 56.3203 135.055 56.8164 135.148 57.2773C135.242 57.7383 135.391 58.1445 135.594 58.4961C135.805 58.8398 136.078 59.1094 136.414 59.3047C136.75 59.5 137.16 59.5977 137.645 59.5977C138.113 59.5977 138.516 59.5 138.852 59.3047C139.188 59.1094 139.457 58.8398 139.66 58.4961C139.863 58.1445 140.012 57.7383 140.105 57.2773C140.207 56.8164 140.258 56.3203 140.258 55.7891V55.543C140.258 55.0273 140.207 54.543 140.105 54.0898C140.012 53.6289 139.859 53.2227 139.648 52.8711C139.445 52.5117 139.176 52.2305 138.84 52.0273C138.504 51.8242 138.098 51.7227 137.621 51.7227C137.145 51.7227 136.738 51.8242 136.402 52.0273C136.074 52.2305 135.805 52.5117 135.594 52.8711C135.391 53.2227 135.242 53.6289 135.148 54.0898C135.055 54.543 135.008 55.0273 135.008 55.543ZM151.93 49.3203V51.7109H144.547V49.3203H151.93ZM146.375 46.1914H149.75V58.1797C149.75 58.5469 149.797 58.8281 149.891 59.0234C149.992 59.2188 150.141 59.3555 150.336 59.4336C150.531 59.5039 150.777 59.5391 151.074 59.5391C151.285 59.5391 151.473 59.5312 151.637 59.5156C151.809 59.4922 151.953 59.4688 152.07 59.4453L152.082 61.9297C151.793 62.0234 151.48 62.0977 151.145 62.1523C150.809 62.207 150.438 62.2344 150.031 62.2344C149.289 62.2344 148.641 62.1133 148.086 61.8711C147.539 61.6211 147.117 61.2227 146.82 60.6758C146.523 60.1289 146.375 59.4102 146.375 58.5195V46.1914ZM160.742 54.5117H156.359L156.336 52.0977H160.016C160.664 52.0977 161.195 52.0156 161.609 51.8516C162.023 51.6797 162.332 51.4336 162.535 51.1133C162.746 50.7852 162.852 50.3867 162.852 49.918C162.852 49.3867 162.75 48.957 162.547 48.6289C162.352 48.3008 162.043 48.0625 161.621 47.9141C161.207 47.7656 160.672 47.6914 160.016 47.6914H157.578V62H154.062V44.9375H160.016C161.008 44.9375 161.895 45.0312 162.676 45.2188C163.465 45.4062 164.133 45.6914 164.68 46.0742C165.227 46.457 165.645 46.9414 165.934 47.5273C166.223 48.1055 166.367 48.793 166.367 49.5898C166.367 50.293 166.207 50.9414 165.887 51.5352C165.574 52.1289 165.078 52.6133 164.398 52.9883C163.727 53.3633 162.848 53.5703 161.762 53.6094L160.742 54.5117ZM160.59 62H155.398L156.77 59.2578H160.59C161.207 59.2578 161.711 59.1602 162.102 58.9648C162.492 58.7617 162.781 58.4883 162.969 58.1445C163.156 57.8008 163.25 57.4062 163.25 56.9609C163.25 56.4609 163.164 56.0273 162.992 55.6602C162.828 55.293 162.562 55.0117 162.195 54.8164C161.828 54.6133 161.344 54.5117 160.742 54.5117H157.355L157.379 52.0977H161.598L162.406 53.0469C163.445 53.0312 164.281 53.2148 164.914 53.5977C165.555 53.9727 166.02 54.4609 166.309 55.0625C166.605 55.6641 166.754 56.3086 166.754 56.9961C166.754 58.0898 166.516 59.0117 166.039 59.7617C165.562 60.5039 164.863 61.0625 163.941 61.4375C163.027 61.8125 161.91 62 160.59 62ZM176.023 59.1406V53.4922C176.023 53.0859 175.957 52.7383 175.824 52.4492C175.691 52.1523 175.484 51.9219 175.203 51.7578C174.93 51.5938 174.574 51.5117 174.137 51.5117C173.762 51.5117 173.438 51.5781 173.164 51.7109C172.891 51.8359 172.68 52.0195 172.531 52.2617C172.383 52.4961 172.309 52.7734 172.309 53.0938H168.934C168.934 52.5547 169.059 52.043 169.309 51.5586C169.559 51.0742 169.922 50.6484 170.398 50.2812C170.875 49.9062 171.441 49.6133 172.098 49.4023C172.762 49.1914 173.504 49.0859 174.324 49.0859C175.309 49.0859 176.184 49.25 176.949 49.5781C177.715 49.9062 178.316 50.3984 178.754 51.0547C179.199 51.7109 179.422 52.5312 179.422 53.5156V58.9414C179.422 59.6367 179.465 60.207 179.551 60.6523C179.637 61.0898 179.762 61.4727 179.926 61.8008V62H176.516C176.352 61.6562 176.227 61.2266 176.141 60.7109C176.062 60.1875 176.023 59.6641 176.023 59.1406ZM176.469 54.2773L176.492 56.1875H174.605C174.16 56.1875 173.773 56.2383 173.445 56.3398C173.117 56.4414 172.848 56.5859 172.637 56.7734C172.426 56.9531 172.27 57.1641 172.168 57.4062C172.074 57.6484 172.027 57.9141 172.027 58.2031C172.027 58.4922 172.094 58.7539 172.227 58.9883C172.359 59.2148 172.551 59.3945 172.801 59.5273C173.051 59.6523 173.344 59.7148 173.68 59.7148C174.188 59.7148 174.629 59.6133 175.004 59.4102C175.379 59.207 175.668 58.957 175.871 58.6602C176.082 58.3633 176.191 58.082 176.199 57.8164L177.09 59.2461C176.965 59.5664 176.793 59.8984 176.574 60.2422C176.363 60.5859 176.094 60.9102 175.766 61.2148C175.438 61.5117 175.043 61.7578 174.582 61.9531C174.121 62.1406 173.574 62.2344 172.941 62.2344C172.137 62.2344 171.406 62.0742 170.75 61.7539C170.102 61.4258 169.586 60.9766 169.203 60.4062C168.828 59.8281 168.641 59.1719 168.641 58.4375C168.641 57.7734 168.766 57.1836 169.016 56.668C169.266 56.1523 169.633 55.7188 170.117 55.3672C170.609 55.0078 171.223 54.7383 171.957 54.5586C172.691 54.3711 173.543 54.2773 174.512 54.2773H176.469ZM185.586 44V62H182.199V44H185.586ZM191.938 44V62H188.551V44H191.938ZM200.914 44.9375H207.277C208.582 44.9375 209.703 45.1328 210.641 45.5234C211.586 45.9141 212.312 46.4922 212.82 47.2578C213.328 48.0234 213.582 48.9648 213.582 50.082C213.582 50.9961 213.426 51.7812 213.113 52.4375C212.809 53.0859 212.375 53.6289 211.812 54.0664C211.258 54.4961 210.605 54.8398 209.855 55.0977L208.742 55.6836H203.211L203.188 52.9414H207.301C207.918 52.9414 208.43 52.832 208.836 52.6133C209.242 52.3945 209.547 52.0898 209.75 51.6992C209.961 51.3086 210.066 50.8555 210.066 50.3398C210.066 49.793 209.965 49.3203 209.762 48.9219C209.559 48.5234 209.25 48.2188 208.836 48.0078C208.422 47.7969 207.902 47.6914 207.277 47.6914H204.43V62H200.914V44.9375ZM210.453 62L206.562 54.3945L210.277 54.3711L214.215 61.8359V62H210.453ZM222.922 59.1406V53.4922C222.922 53.0859 222.855 52.7383 222.723 52.4492C222.59 52.1523 222.383 51.9219 222.102 51.7578C221.828 51.5938 221.473 51.5117 221.035 51.5117C220.66 51.5117 220.336 51.5781 220.062 51.7109C219.789 51.8359 219.578 52.0195 219.43 52.2617C219.281 52.4961 219.207 52.7734 219.207 53.0938H215.832C215.832 52.5547 215.957 52.043 216.207 51.5586C216.457 51.0742 216.82 50.6484 217.297 50.2812C217.773 49.9062 218.34 49.6133 218.996 49.4023C219.66 49.1914 220.402 49.0859 221.223 49.0859C222.207 49.0859 223.082 49.25 223.848 49.5781C224.613 49.9062 225.215 50.3984 225.652 51.0547C226.098 51.7109 226.32 52.5312 226.32 53.5156V58.9414C226.32 59.6367 226.363 60.207 226.449 60.6523C226.535 61.0898 226.66 61.4727 226.824 61.8008V62H223.414C223.25 61.6562 223.125 61.2266 223.039 60.7109C222.961 60.1875 222.922 59.6641 222.922 59.1406ZM223.367 54.2773L223.391 56.1875H221.504C221.059 56.1875 220.672 56.2383 220.344 56.3398C220.016 56.4414 219.746 56.5859 219.535 56.7734C219.324 56.9531 219.168 57.1641 219.066 57.4062C218.973 57.6484 218.926 57.9141 218.926 58.2031C218.926 58.4922 218.992 58.7539 219.125 58.9883C219.258 59.2148 219.449 59.3945 219.699 59.5273C219.949 59.6523 220.242 59.7148 220.578 59.7148C221.086 59.7148 221.527 59.6133 221.902 59.4102C222.277 59.207 222.566 58.957 222.77 58.6602C222.98 58.3633 223.09 58.082 223.098 57.8164L223.988 59.2461C223.863 59.5664 223.691 59.8984 223.473 60.2422C223.262 60.5859 222.992 60.9102 222.664 61.2148C222.336 61.5117 221.941 61.7578 221.48 61.9531C221.02 62.1406 220.473 62.2344 219.84 62.2344C219.035 62.2344 218.305 62.0742 217.648 61.7539C217 61.4258 216.484 60.9766 216.102 60.4062C215.727 59.8281 215.539 59.1719 215.539 58.4375C215.539 57.7734 215.664 57.1836 215.914 56.668C216.164 56.1523 216.531 55.7188 217.016 55.3672C217.508 55.0078 218.121 54.7383 218.855 54.5586C219.59 54.3711 220.441 54.2773 221.41 54.2773H223.367ZM233.047 59.5391L235.859 49.3203H239.387L235.109 62H232.977L233.047 59.5391ZM231.113 49.3203L233.938 59.5508L233.996 62H231.852L227.574 49.3203H231.113ZM246.57 62.2344C245.586 62.2344 244.703 62.0781 243.922 61.7656C243.141 61.4453 242.477 61.0039 241.93 60.4414C241.391 59.8789 240.977 59.2266 240.688 58.4844C240.398 57.7344 240.254 56.9375 240.254 56.0938V55.625C240.254 54.6641 240.391 53.7852 240.664 52.9883C240.938 52.1914 241.328 51.5 241.836 50.9141C242.352 50.3281 242.977 49.8789 243.711 49.5664C244.445 49.2461 245.273 49.0859 246.195 49.0859C247.094 49.0859 247.891 49.2344 248.586 49.5312C249.281 49.8281 249.863 50.25 250.332 50.7969C250.809 51.3438 251.168 52 251.41 52.7656C251.652 53.5234 251.773 54.3672 251.773 55.2969V56.7031H241.695V54.4531H248.457V54.1953C248.457 53.7266 248.371 53.3086 248.199 52.9414C248.035 52.5664 247.785 52.2695 247.449 52.0508C247.113 51.832 246.684 51.7227 246.16 51.7227C245.715 51.7227 245.332 51.8203 245.012 52.0156C244.691 52.2109 244.43 52.4844 244.227 52.8359C244.031 53.1875 243.883 53.6016 243.781 54.0781C243.688 54.5469 243.641 55.0625 243.641 55.625V56.0938C243.641 56.6016 243.711 57.0703 243.852 57.5C244 57.9297 244.207 58.3008 244.473 58.6133C244.746 58.9258 245.074 59.168 245.457 59.3398C245.848 59.5117 246.289 59.5977 246.781 59.5977C247.391 59.5977 247.957 59.4805 248.48 59.2461C249.012 59.0039 249.469 58.6406 249.852 58.1562L251.492 59.9375C251.227 60.3203 250.863 60.6875 250.402 61.0391C249.949 61.3906 249.402 61.6797 248.762 61.9062C248.121 62.125 247.391 62.2344 246.57 62.2344Z" fill="#888888"/>
<path d="M107.205 107.146H99.251V101.191H107.205C108.289 101.191 109.168 101.008 109.842 100.642C110.516 100.275 111.006 99.77 111.314 99.1255C111.636 98.4663 111.797 97.7266 111.797 96.9062C111.797 96.0273 111.636 95.2144 111.314 94.4673C111.006 93.7202 110.516 93.1196 109.842 92.6655C109.168 92.1968 108.289 91.9624 107.205 91.9624H102.151V118H94.439V86.0078H107.205C109.769 86.0078 111.973 86.4766 113.819 87.4141C115.679 88.3516 117.107 89.6406 118.104 91.2812C119.1 92.9072 119.598 94.7676 119.598 96.8623C119.598 98.9277 119.1 100.729 118.104 102.268C117.107 103.806 115.679 105.007 113.819 105.871C111.973 106.721 109.769 107.146 107.205 107.146ZM130.87 100.114V118H123.465V94.2256H130.386L130.87 100.114ZM137.901 94.0498L137.769 100.927C137.476 100.898 137.081 100.861 136.583 100.817C136.084 100.773 135.667 100.751 135.33 100.751C134.466 100.751 133.719 100.854 133.089 101.059C132.474 101.25 131.961 101.542 131.551 101.938C131.155 102.319 130.862 102.802 130.672 103.388C130.496 103.974 130.416 104.655 130.43 105.432L129.09 104.553C129.09 102.956 129.244 101.506 129.551 100.202C129.874 98.8838 130.328 97.7485 130.914 96.7964C131.5 95.8296 132.21 95.0898 133.045 94.5771C133.88 94.0498 134.817 93.7861 135.857 93.7861C136.224 93.7861 136.583 93.8081 136.934 93.8521C137.3 93.896 137.623 93.9619 137.901 94.0498ZM138.736 106.354V105.893C138.736 104.15 138.985 102.546 139.483 101.081C139.981 99.6016 140.713 98.3198 141.68 97.2358C142.647 96.1519 143.841 95.3096 145.262 94.709C146.683 94.0938 148.323 93.7861 150.184 93.7861C152.059 93.7861 153.707 94.0938 155.127 94.709C156.563 95.3096 157.764 96.1519 158.731 97.2358C159.698 98.3198 160.43 99.6016 160.928 101.081C161.426 102.546 161.675 104.15 161.675 105.893V106.354C161.675 108.083 161.426 109.687 160.928 111.167C160.43 112.631 159.698 113.913 158.731 115.012C157.764 116.096 156.57 116.938 155.149 117.539C153.729 118.139 152.088 118.439 150.228 118.439C148.367 118.439 146.719 118.139 145.284 117.539C143.848 116.938 142.647 116.096 141.68 115.012C140.713 113.913 139.981 112.631 139.483 111.167C138.985 109.687 138.736 108.083 138.736 106.354ZM146.141 105.893V106.354C146.141 107.248 146.207 108.083 146.338 108.859C146.47 109.636 146.69 110.317 146.998 110.903C147.305 111.474 147.723 111.921 148.25 112.243C148.777 112.565 149.437 112.727 150.228 112.727C151.004 112.727 151.648 112.565 152.161 112.243C152.688 111.921 153.106 111.474 153.414 110.903C153.721 110.317 153.941 109.636 154.073 108.859C154.205 108.083 154.271 107.248 154.271 106.354V105.893C154.271 105.029 154.205 104.216 154.073 103.454C153.941 102.678 153.721 101.997 153.414 101.411C153.106 100.81 152.688 100.341 152.161 100.004C151.634 99.6675 150.975 99.499 150.184 99.499C149.407 99.499 148.755 99.6675 148.228 100.004C147.715 100.341 147.305 100.81 146.998 101.411C146.69 101.997 146.47 102.678 146.338 103.454C146.207 104.216 146.141 105.029 146.141 105.893ZM165.521 94.2256H172.947V118.769C172.947 120.673 172.581 122.277 171.849 123.581C171.116 124.899 170.069 125.896 168.707 126.569C167.344 127.258 165.718 127.602 163.829 127.602C163.199 127.602 162.62 127.573 162.093 127.514C161.551 127.47 160.958 127.375 160.313 127.229V121.625C160.694 121.684 161.045 121.728 161.368 121.757C161.69 121.801 162.042 121.823 162.422 121.823C163.096 121.823 163.66 121.713 164.114 121.494C164.568 121.274 164.913 120.937 165.147 120.483C165.396 120.029 165.521 119.458 165.521 118.769V94.2256ZM164.971 88.0952C164.971 87.0405 165.352 86.1763 166.114 85.5024C166.875 84.8286 167.864 84.4917 169.08 84.4917C170.296 84.4917 171.285 84.8286 172.046 85.5024C172.808 86.1763 173.189 87.0405 173.189 88.0952C173.189 89.1499 172.808 90.0142 172.046 90.688C171.285 91.3618 170.296 91.6987 169.08 91.6987C167.864 91.6987 166.875 91.3618 166.114 90.688C165.352 90.0142 164.971 89.1499 164.971 88.0952ZM188.658 118.439C186.724 118.439 184.996 118.139 183.472 117.539C181.949 116.923 180.66 116.081 179.605 115.012C178.565 113.942 177.767 112.712 177.21 111.32C176.668 109.929 176.397 108.457 176.397 106.904V106.069C176.397 104.326 176.639 102.714 177.122 101.235C177.605 99.7407 178.323 98.437 179.275 97.3237C180.228 96.2104 181.421 95.3462 182.857 94.731C184.292 94.1011 185.962 93.7861 187.867 93.7861C189.551 93.7861 191.06 94.0571 192.393 94.5991C193.726 95.1411 194.854 95.9175 195.777 96.9282C196.714 97.939 197.425 99.1621 197.908 100.598C198.406 102.033 198.655 103.645 198.655 105.432V108.442H179.231V103.806H191.426V103.234C191.441 102.443 191.302 101.77 191.009 101.213C190.73 100.656 190.32 100.231 189.778 99.9385C189.236 99.6455 188.577 99.499 187.801 99.499C186.995 99.499 186.329 99.6748 185.801 100.026C185.289 100.378 184.886 100.861 184.593 101.477C184.314 102.077 184.117 102.773 184 103.564C183.882 104.355 183.824 105.19 183.824 106.069V106.904C183.824 107.783 183.941 108.581 184.175 109.299C184.424 110.017 184.776 110.632 185.23 111.145C185.699 111.643 186.255 112.031 186.9 112.309C187.559 112.587 188.306 112.727 189.141 112.727C190.152 112.727 191.148 112.536 192.129 112.155C193.111 111.774 193.953 111.145 194.656 110.266L198.018 114.265C197.535 114.953 196.846 115.62 195.953 116.264C195.074 116.909 194.019 117.436 192.789 117.846C191.558 118.242 190.181 118.439 188.658 118.439ZM211.707 112.727C212.396 112.727 212.981 112.602 213.465 112.353C213.963 112.089 214.336 111.723 214.585 111.254C214.849 110.771 214.974 110.192 214.959 109.519H221.924C221.939 111.306 221.5 112.873 220.606 114.221C219.727 115.554 218.526 116.594 217.002 117.341C215.494 118.073 213.787 118.439 211.883 118.439C210.022 118.439 208.396 118.139 207.005 117.539C205.613 116.923 204.449 116.074 203.511 114.99C202.588 113.891 201.893 112.609 201.424 111.145C200.97 109.68 200.743 108.09 200.743 106.376V105.871C200.743 104.157 200.97 102.568 201.424 101.103C201.893 99.6235 202.588 98.3418 203.511 97.2578C204.449 96.1592 205.606 95.3096 206.983 94.709C208.375 94.0938 209.993 93.7861 211.839 93.7861C213.816 93.7861 215.56 94.1597 217.068 94.9067C218.592 95.6538 219.786 96.7378 220.65 98.1587C221.514 99.5796 221.939 101.301 221.924 103.322H214.959C214.974 102.604 214.864 101.96 214.629 101.389C214.395 100.817 214.029 100.363 213.531 100.026C213.047 99.6748 212.425 99.499 211.663 99.499C210.901 99.499 210.286 99.6675 209.817 100.004C209.349 100.341 208.99 100.81 208.741 101.411C208.506 101.997 208.345 102.67 208.257 103.432C208.184 104.194 208.147 105.007 208.147 105.871V106.376C208.147 107.255 208.184 108.083 208.257 108.859C208.345 109.621 208.514 110.295 208.763 110.881C209.012 111.452 209.371 111.906 209.839 112.243C210.308 112.565 210.931 112.727 211.707 112.727ZM237.613 94.2256V99.3672H223.287V94.2256H237.613ZM226.297 88.3149H233.702V110.244C233.702 110.874 233.775 111.364 233.921 111.716C234.068 112.053 234.317 112.294 234.668 112.441C235.035 112.573 235.518 112.639 236.119 112.639C236.543 112.639 236.895 112.631 237.173 112.617C237.452 112.587 237.715 112.551 237.964 112.507V117.802C237.334 118.007 236.675 118.161 235.987 118.264C235.298 118.381 234.566 118.439 233.79 118.439C232.208 118.439 230.853 118.19 229.725 117.692C228.611 117.194 227.762 116.411 227.176 115.341C226.59 114.272 226.297 112.88 226.297 111.167V88.3149ZM264.881 107.146H256.927V101.191H264.881C265.965 101.191 266.844 101.008 267.518 100.642C268.191 100.275 268.682 99.77 268.99 99.1255C269.312 98.4663 269.473 97.7266 269.473 96.9062C269.473 96.0273 269.312 95.2144 268.99 94.4673C268.682 93.7202 268.191 93.1196 267.518 92.6655C266.844 92.1968 265.965 91.9624 264.881 91.9624H259.827V118H252.115V86.0078H264.881C267.444 86.0078 269.649 86.4766 271.495 87.4141C273.355 88.3516 274.783 89.6406 275.779 91.2812C276.775 92.9072 277.273 94.7676 277.273 96.8623C277.273 98.9277 276.775 100.729 275.779 102.268C274.783 103.806 273.355 105.007 271.495 105.871C269.649 106.721 267.444 107.146 264.881 107.146ZM288.326 84.25V118H280.921V84.25H288.326ZM287.447 105.3L285.711 105.344C285.711 103.674 285.916 102.136 286.326 100.729C286.736 99.3232 287.322 98.1001 288.084 97.0601C288.846 96.02 289.761 95.2144 290.831 94.6431C291.9 94.0718 293.086 93.7861 294.39 93.7861C295.562 93.7861 296.631 93.9546 297.598 94.2915C298.58 94.6284 299.422 95.1704 300.125 95.9175C300.843 96.6646 301.392 97.6387 301.773 98.8398C302.168 100.041 302.366 101.506 302.366 103.234V118H294.917V103.19C294.917 102.224 294.778 101.477 294.5 100.949C294.236 100.407 293.855 100.034 293.357 99.8286C292.859 99.6089 292.251 99.499 291.534 99.499C290.669 99.499 289.966 99.6455 289.424 99.9385C288.882 100.231 288.465 100.642 288.172 101.169C287.894 101.682 287.703 102.29 287.601 102.993C287.498 103.696 287.447 104.465 287.447 105.3ZM314.297 94.2256V118H306.871V94.2256H314.297ZM306.431 88.0952C306.431 87.0405 306.812 86.1763 307.574 85.5024C308.335 84.8286 309.324 84.4917 310.54 84.4917C311.756 84.4917 312.745 84.8286 313.506 85.5024C314.268 86.1763 314.649 87.0405 314.649 88.0952C314.649 89.1499 314.268 90.0142 313.506 90.688C312.745 91.3618 311.756 91.6987 310.54 91.6987C309.324 91.6987 308.335 91.3618 307.574 90.688C306.812 90.0142 306.431 89.1499 306.431 88.0952ZM326.69 84.25V118H319.263V84.25H326.69ZM330.337 106.354V105.893C330.337 104.15 330.586 102.546 331.084 101.081C331.583 99.6016 332.315 98.3198 333.282 97.2358C334.249 96.1519 335.442 95.3096 336.863 94.709C338.284 94.0938 339.925 93.7861 341.785 93.7861C343.66 93.7861 345.308 94.0938 346.729 94.709C348.165 95.3096 349.366 96.1519 350.333 97.2358C351.299 98.3198 352.032 99.6016 352.53 101.081C353.028 102.546 353.277 104.15 353.277 105.893V106.354C353.277 108.083 353.028 109.687 352.53 111.167C352.032 112.631 351.299 113.913 350.333 115.012C349.366 116.096 348.172 116.938 346.751 117.539C345.33 118.139 343.689 118.439 341.829 118.439C339.969 118.439 338.321 118.139 336.885 117.539C335.45 116.938 334.249 116.096 333.282 115.012C332.315 113.913 331.583 112.631 331.084 111.167C330.586 109.687 330.337 108.083 330.337 106.354ZM337.742 105.893V106.354C337.742 107.248 337.808 108.083 337.94 108.859C338.072 109.636 338.292 110.317 338.599 110.903C338.907 111.474 339.324 111.921 339.852 112.243C340.379 112.565 341.038 112.727 341.829 112.727C342.605 112.727 343.25 112.565 343.763 112.243C344.29 111.921 344.708 111.474 345.015 110.903C345.323 110.317 345.542 109.636 345.674 108.859C345.806 108.083 345.872 107.248 345.872 106.354V105.893C345.872 105.029 345.806 104.216 345.674 103.454C345.542 102.678 345.323 101.997 345.015 101.411C344.708 100.81 344.29 100.341 343.763 100.004C343.235 99.6675 342.576 99.499 341.785 99.499C341.009 99.499 340.357 99.6675 339.83 100.004C339.317 100.341 338.907 100.81 338.599 101.411C338.292 101.997 338.072 102.678 337.94 103.454C337.808 104.216 337.742 105.029 337.742 105.893ZM369.031 111.32C369.031 110.91 368.892 110.559 368.614 110.266C368.35 109.958 367.881 109.68 367.208 109.431C366.534 109.167 365.589 108.903 364.373 108.64C363.216 108.391 362.125 108.061 361.099 107.651C360.088 107.241 359.202 106.743 358.44 106.157C357.679 105.571 357.078 104.875 356.639 104.069C356.214 103.264 356.001 102.341 356.001 101.301C356.001 100.29 356.214 99.3379 356.639 98.4443C357.078 97.5361 357.715 96.7378 358.55 96.0493C359.4 95.3462 360.433 94.7969 361.648 94.4014C362.864 93.9912 364.249 93.7861 365.801 93.7861C367.94 93.7861 369.786 94.1157 371.338 94.7749C372.891 95.4194 374.085 96.3276 374.92 97.4995C375.77 98.6567 376.194 99.9971 376.194 101.521H368.79C368.79 100.92 368.687 100.407 368.482 99.9824C368.292 99.5576 367.977 99.2354 367.537 99.0156C367.098 98.7812 366.512 98.6641 365.779 98.6641C365.267 98.6641 364.798 98.7593 364.373 98.9497C363.963 99.1401 363.633 99.4038 363.384 99.7407C363.135 100.078 363.011 100.473 363.011 100.927C363.011 101.25 363.084 101.542 363.23 101.806C363.392 102.055 363.633 102.29 363.956 102.509C364.278 102.714 364.688 102.905 365.186 103.081C365.684 103.242 366.285 103.388 366.988 103.52C368.584 103.813 370.079 104.23 371.47 104.772C372.862 105.314 373.99 106.083 374.854 107.08C375.733 108.076 376.172 109.416 376.172 111.101C376.172 112.155 375.931 113.129 375.447 114.023C374.964 114.902 374.268 115.678 373.36 116.352C372.452 117.011 371.36 117.524 370.086 117.89C368.812 118.256 367.376 118.439 365.779 118.439C363.509 118.439 361.59 118.037 360.022 117.231C358.455 116.411 357.269 115.385 356.463 114.155C355.672 112.91 355.276 111.65 355.276 110.375H362.176C362.205 111.108 362.381 111.708 362.703 112.177C363.04 112.646 363.487 112.99 364.043 113.21C364.6 113.43 365.245 113.54 365.977 113.54C366.651 113.54 367.208 113.444 367.647 113.254C368.101 113.063 368.445 112.807 368.68 112.485C368.914 112.148 369.031 111.76 369.031 111.32ZM378.721 106.354V105.893C378.721 104.15 378.97 102.546 379.468 101.081C379.966 99.6016 380.699 98.3198 381.666 97.2358C382.632 96.1519 383.826 95.3096 385.247 94.709C386.668 94.0938 388.309 93.7861 390.169 93.7861C392.044 93.7861 393.692 94.0938 395.113 94.709C396.548 95.3096 397.75 96.1519 398.716 97.2358C399.683 98.3198 400.416 99.6016 400.914 101.081C401.412 102.546 401.661 104.15 401.661 105.893V106.354C401.661 108.083 401.412 109.687 400.914 111.167C400.416 112.631 399.683 113.913 398.716 115.012C397.75 116.096 396.556 116.938 395.135 117.539C393.714 118.139 392.073 118.439 390.213 118.439C388.353 118.439 386.705 118.139 385.269 117.539C383.833 116.938 382.632 116.096 381.666 115.012C380.699 113.913 379.966 112.631 379.468 111.167C378.97 109.687 378.721 108.083 378.721 106.354ZM386.126 105.893V106.354C386.126 107.248 386.192 108.083 386.324 108.859C386.456 109.636 386.675 110.317 386.983 110.903C387.291 111.474 387.708 111.921 388.235 112.243C388.763 112.565 389.422 112.727 390.213 112.727C390.989 112.727 391.634 112.565 392.146 112.243C392.674 111.921 393.091 111.474 393.399 110.903C393.707 110.317 393.926 109.636 394.058 108.859C394.19 108.083 394.256 107.248 394.256 106.354V105.893C394.256 105.029 394.19 104.216 394.058 103.454C393.926 102.678 393.707 101.997 393.399 101.411C393.091 100.81 392.674 100.341 392.146 100.004C391.619 99.6675 390.96 99.499 390.169 99.499C389.393 99.499 388.741 99.6675 388.213 100.004C387.701 100.341 387.291 100.81 386.983 101.411C386.675 101.997 386.456 102.678 386.324 103.454C386.192 104.216 386.126 105.029 386.126 105.893ZM412.427 98.7959V127.141H405.022V94.2256H411.922L412.427 98.7959ZM427.017 105.827V106.289C427.017 108.017 426.819 109.621 426.424 111.101C426.028 112.58 425.442 113.869 424.666 114.968C423.89 116.066 422.923 116.923 421.766 117.539C420.623 118.139 419.297 118.439 417.789 118.439C416.368 118.439 415.145 118.125 414.119 117.495C413.094 116.865 412.237 115.993 411.548 114.88C410.86 113.767 410.303 112.492 409.878 111.057C409.454 109.621 409.117 108.105 408.868 106.508V105.915C409.117 104.201 409.454 102.612 409.878 101.147C410.303 99.6675 410.86 98.3784 411.548 97.2798C412.237 96.1812 413.086 95.3242 414.097 94.709C415.123 94.0938 416.346 93.7861 417.767 93.7861C419.275 93.7861 420.601 94.0718 421.744 94.6431C422.901 95.2144 423.868 96.0347 424.644 97.104C425.435 98.1587 426.028 99.4258 426.424 100.905C426.819 102.385 427.017 104.025 427.017 105.827ZM419.612 106.289V105.827C419.612 104.904 419.546 104.062 419.415 103.3C419.283 102.524 419.07 101.85 418.777 101.279C418.499 100.708 418.125 100.268 417.657 99.9604C417.188 99.6528 416.609 99.499 415.921 99.499C415.13 99.499 414.463 99.6235 413.921 99.8726C413.394 100.107 412.969 100.473 412.647 100.971C412.339 101.455 412.12 102.062 411.988 102.795C411.871 103.513 411.819 104.355 411.834 105.322V107.124C411.805 108.237 411.915 109.218 412.164 110.068C412.413 110.903 412.845 111.555 413.46 112.023C414.075 112.492 414.91 112.727 415.965 112.727C416.668 112.727 417.254 112.565 417.723 112.243C418.191 111.906 418.565 111.445 418.843 110.859C419.122 110.258 419.319 109.57 419.437 108.793C419.554 108.017 419.612 107.182 419.612 106.289ZM437.564 84.25V118H430.159V84.25H437.564ZM436.685 105.3L434.949 105.344C434.949 103.674 435.154 102.136 435.564 100.729C435.975 99.3232 436.561 98.1001 437.322 97.0601C438.084 96.02 439 95.2144 440.069 94.6431C441.138 94.0718 442.325 93.7861 443.628 93.7861C444.8 93.7861 445.87 93.9546 446.836 94.2915C447.818 94.6284 448.66 95.1704 449.363 95.9175C450.081 96.6646 450.63 97.6387 451.011 98.8398C451.407 100.041 451.604 101.506 451.604 103.234V118H444.156V103.19C444.156 102.224 444.017 101.477 443.738 100.949C443.475 100.407 443.094 100.034 442.596 99.8286C442.098 99.6089 441.49 99.499 440.772 99.499C439.908 99.499 439.205 99.6455 438.663 99.9385C438.121 100.231 437.703 100.642 437.41 101.169C437.132 101.682 436.941 102.29 436.839 102.993C436.736 103.696 436.685 104.465 436.685 105.3ZM463.008 115.209L469.161 94.2256H477.115L467.557 121.538C467.352 122.138 467.081 122.783 466.744 123.471C466.407 124.174 465.945 124.841 465.359 125.471C464.773 126.101 464.019 126.613 463.096 127.009C462.188 127.404 461.06 127.602 459.712 127.602C458.995 127.602 458.467 127.565 458.13 127.492C457.808 127.434 457.31 127.324 456.636 127.163V121.867C456.827 121.867 456.988 121.867 457.12 121.867C457.266 121.867 457.427 121.867 457.603 121.867C458.394 121.867 459.024 121.787 459.493 121.625C459.976 121.464 460.342 121.23 460.591 120.922C460.855 120.615 461.06 120.241 461.207 119.802L463.008 115.209ZM461.448 94.2256L466.128 110.859L466.941 118.703H461.976L453.516 94.2256H461.448Z" fill="#424241"/>
<path d="M1363 15C1363 6.71573 1356.28 0 1348 0H1134V167H1348C1356.28 167 1363 160.284 1363 152V15Z" fill="#27293E"/>
<path d="M1234.26 106.286H1262.74V111.857H1234.26V106.286ZM1239.96 117.429H1257.04V123H1239.96V117.429ZM1248.5 45C1240.95 45 1233.71 47.9349 1228.37 53.1592C1223.03 58.3834 1220.03 65.469 1220.03 72.8571C1219.84 76.9057 1220.63 80.9412 1222.34 84.6315C1224.05 88.3219 1226.64 91.5616 1229.88 94.0843C1232.73 96.675 1234.26 98.1514 1234.26 100.714H1239.96C1239.96 95.5886 1236.8 92.7193 1233.72 89.9614C1231.06 87.9676 1228.94 85.3658 1227.55 82.3838C1226.15 79.4019 1225.53 76.1308 1225.72 72.8571C1225.72 66.9466 1228.12 61.2781 1232.39 57.0988C1236.67 52.9194 1242.46 50.5714 1248.5 50.5714C1254.54 50.5714 1260.33 52.9194 1264.61 57.0988C1268.88 61.2781 1271.28 66.9466 1271.28 72.8571C1271.47 76.1333 1270.84 79.4059 1269.44 82.388C1268.04 85.3701 1265.92 87.9706 1263.25 89.9614C1260.2 92.7471 1257.04 95.5329 1257.04 100.714H1262.74C1262.74 98.1514 1264.25 96.675 1267.12 94.0564C1270.36 91.5381 1272.94 88.3031 1274.66 84.6176C1276.37 80.9321 1277.16 76.9014 1276.97 72.8571C1276.97 69.1989 1276.24 65.5765 1274.81 62.1967C1273.37 58.8169 1271.28 55.7459 1268.63 53.1592C1265.99 50.5724 1262.85 48.5205 1259.4 47.1205C1255.94 45.7205 1252.24 45 1248.5 45Z" fill="white"/>
</svg>
