<svg width="1363" height="301" viewBox="0 0 1363 301" fill="none" xmlns="http://www.w3.org/2000/svg">
<rect width="1363" height="301" rx="15" fill="#F0F0F0"/>
<path d="M0 15C0 6.71573 6.71573 0 15 0H37V301H15C6.71573 301 0 294.284 0 286V15Z" fill="#27293E"/>
<path d="M104.407 104.898V144H94.981V104.898H104.407ZM119.607 121.173V128.424H101.722V121.173H119.607ZM121.138 104.898V112.176H101.722V104.898H121.138ZM122.911 129.767V129.203C122.911 127.072 123.215 125.112 123.824 123.321C124.432 121.513 125.328 119.946 126.509 118.622C127.691 117.297 129.15 116.267 130.887 115.533C132.623 114.781 134.629 114.405 136.902 114.405C139.194 114.405 141.208 114.781 142.945 115.533C144.699 116.267 146.167 117.297 147.349 118.622C148.531 119.946 149.426 121.513 150.035 123.321C150.643 125.112 150.948 127.072 150.948 129.203V129.767C150.948 131.879 150.643 133.84 150.035 135.648C149.426 137.438 148.531 139.005 147.349 140.348C146.167 141.673 144.708 142.702 142.972 143.436C141.235 144.17 139.23 144.537 136.956 144.537C134.682 144.537 132.668 144.17 130.914 143.436C129.159 142.702 127.691 141.673 126.509 140.348C125.328 139.005 124.432 137.438 123.824 135.648C123.215 133.84 122.911 131.879 122.911 129.767ZM131.961 129.203V129.767C131.961 130.859 132.042 131.879 132.203 132.828C132.364 133.777 132.632 134.61 133.008 135.326C133.384 136.024 133.895 136.57 134.539 136.964C135.184 137.358 135.989 137.555 136.956 137.555C137.905 137.555 138.693 137.358 139.319 136.964C139.964 136.57 140.474 136.024 140.85 135.326C141.226 134.61 141.495 133.777 141.656 132.828C141.817 131.879 141.897 130.859 141.897 129.767V129.203C141.897 128.146 141.817 127.153 141.656 126.222C141.495 125.273 141.226 124.44 140.85 123.724C140.474 122.99 139.964 122.417 139.319 122.005C138.675 121.594 137.869 121.388 136.902 121.388C135.953 121.388 135.157 121.594 134.512 122.005C133.886 122.417 133.384 122.99 133.008 123.724C132.632 124.44 132.364 125.273 132.203 126.222C132.042 127.153 131.961 128.146 131.961 129.203ZM153.848 129.767V129.203C153.848 127.072 154.153 125.112 154.761 123.321C155.37 121.513 156.265 119.946 157.447 118.622C158.628 117.297 160.088 116.267 161.824 115.533C163.561 114.781 165.566 114.405 167.84 114.405C170.132 114.405 172.146 114.781 173.882 115.533C175.637 116.267 177.105 117.297 178.287 118.622C179.468 119.946 180.363 121.513 180.972 123.321C181.581 125.112 181.885 127.072 181.885 129.203V129.767C181.885 131.879 181.581 133.84 180.972 135.648C180.363 137.438 179.468 139.005 178.287 140.348C177.105 141.673 175.646 142.702 173.909 143.436C172.173 144.17 170.167 144.537 167.894 144.537C165.62 144.537 163.606 144.17 161.851 143.436C160.097 142.702 158.628 141.673 157.447 140.348C156.265 139.005 155.37 137.438 154.761 135.648C154.153 133.84 153.848 131.879 153.848 129.767ZM162.898 129.203V129.767C162.898 130.859 162.979 131.879 163.14 132.828C163.301 133.777 163.57 134.61 163.946 135.326C164.322 136.024 164.832 136.57 165.477 136.964C166.121 137.358 166.927 137.555 167.894 137.555C168.842 137.555 169.63 137.358 170.257 136.964C170.901 136.57 171.412 136.024 171.788 135.326C172.164 134.61 172.432 133.777 172.593 132.828C172.754 131.879 172.835 130.859 172.835 129.767V129.203C172.835 128.146 172.754 127.153 172.593 126.222C172.432 125.273 172.164 124.44 171.788 123.724C171.412 122.99 170.901 122.417 170.257 122.005C169.612 121.594 168.807 121.388 167.84 121.388C166.891 121.388 166.094 121.594 165.45 122.005C164.823 122.417 164.322 122.99 163.946 123.724C163.57 124.44 163.301 125.273 163.14 126.222C162.979 127.153 162.898 128.146 162.898 129.203ZM201.221 114.942V121.227H183.711V114.942H201.221ZM187.391 107.718H196.441V134.52C196.441 135.29 196.53 135.89 196.709 136.319C196.889 136.731 197.193 137.027 197.623 137.206C198.07 137.367 198.661 137.447 199.395 137.447C199.914 137.447 200.344 137.438 200.684 137.42C201.024 137.385 201.347 137.34 201.651 137.286V143.758C200.881 144.009 200.075 144.197 199.234 144.322C198.392 144.465 197.497 144.537 196.548 144.537C194.615 144.537 192.959 144.233 191.58 143.624C190.219 143.015 189.181 142.057 188.465 140.75C187.749 139.444 187.391 137.743 187.391 135.648V107.718ZM221.202 127.376H211.131L211.077 121.2H219.241C220.709 121.2 221.882 121.039 222.759 120.716C223.637 120.376 224.272 119.884 224.666 119.239C225.078 118.595 225.284 117.789 225.284 116.822C225.284 115.712 225.078 114.817 224.666 114.137C224.254 113.456 223.601 112.964 222.706 112.66C221.828 112.337 220.691 112.176 219.295 112.176H214.676V144H205.25V104.898H219.295C221.712 104.898 223.869 105.122 225.767 105.57C227.665 106 229.276 106.662 230.601 107.557C231.944 108.452 232.964 109.58 233.663 110.941C234.361 112.284 234.71 113.868 234.71 115.694C234.71 117.288 234.37 118.783 233.689 120.179C233.009 121.576 231.872 122.713 230.279 123.59C228.703 124.449 226.546 124.897 223.807 124.933L221.202 127.376ZM220.826 144H208.848L212.071 136.749H220.826C222.115 136.749 223.144 136.552 223.914 136.158C224.702 135.746 225.266 135.209 225.606 134.547C225.964 133.867 226.143 133.115 226.143 132.291C226.143 131.288 225.973 130.42 225.633 129.686C225.311 128.952 224.791 128.388 224.075 127.994C223.359 127.582 222.401 127.376 221.202 127.376H213.279L213.333 121.2H222.813L225.015 123.67C227.629 123.563 229.697 123.93 231.219 124.771C232.758 125.613 233.86 126.723 234.522 128.102C235.184 129.48 235.516 130.921 235.516 132.425C235.516 134.986 234.961 137.125 233.851 138.844C232.758 140.562 231.12 141.852 228.936 142.711C226.752 143.57 224.048 144 220.826 144ZM255.416 136.695V124.718C255.416 123.894 255.299 123.187 255.066 122.596C254.834 122.005 254.467 121.549 253.965 121.227C253.464 120.886 252.793 120.716 251.951 120.716C251.271 120.716 250.689 120.833 250.206 121.065C249.722 121.298 249.355 121.647 249.104 122.113C248.854 122.578 248.729 123.169 248.729 123.885H239.678C239.678 122.542 239.974 121.298 240.564 120.152C241.173 118.989 242.033 117.977 243.143 117.118C244.271 116.258 245.613 115.596 247.171 115.13C248.746 114.647 250.501 114.405 252.435 114.405C254.744 114.405 256.803 114.79 258.611 115.56C260.438 116.33 261.879 117.485 262.935 119.024C263.991 120.546 264.52 122.462 264.52 124.771V136.668C264.52 138.566 264.627 140.007 264.842 140.992C265.057 141.959 265.361 142.809 265.755 143.543V144H256.678C256.248 143.105 255.926 142.013 255.711 140.724C255.514 139.417 255.416 138.074 255.416 136.695ZM256.517 126.249L256.57 131.083H252.569C251.727 131.083 251.011 131.199 250.42 131.432C249.847 131.664 249.382 131.987 249.024 132.398C248.684 132.792 248.433 133.24 248.272 133.741C248.129 134.243 248.057 134.771 248.057 135.326C248.057 135.863 248.182 136.346 248.433 136.776C248.702 137.188 249.06 137.51 249.507 137.743C249.955 137.975 250.456 138.092 251.011 138.092C252.014 138.092 252.864 137.904 253.562 137.528C254.279 137.134 254.825 136.66 255.201 136.104C255.577 135.549 255.765 135.03 255.765 134.547L257.752 138.253C257.394 138.969 256.982 139.694 256.517 140.428C256.069 141.162 255.505 141.843 254.825 142.469C254.162 143.078 253.348 143.579 252.381 143.973C251.414 144.349 250.241 144.537 248.863 144.537C247.072 144.537 245.425 144.17 243.921 143.436C242.435 142.702 241.245 141.681 240.35 140.375C239.454 139.05 239.007 137.528 239.007 135.809C239.007 134.305 239.275 132.962 239.812 131.781C240.368 130.599 241.2 129.597 242.31 128.773C243.42 127.949 244.834 127.323 246.553 126.893C248.272 126.463 250.295 126.249 252.623 126.249H256.517ZM279.102 102.75V144H270.025V102.75H279.102ZM294.249 102.75V144H285.171V102.75H294.249ZM313.96 104.898H329.349C332.356 104.898 334.97 105.346 337.19 106.241C339.41 107.136 341.12 108.461 342.32 110.216C343.537 111.97 344.146 114.137 344.146 116.715C344.146 118.953 343.797 120.824 343.099 122.328C342.4 123.832 341.425 125.076 340.171 126.061C338.936 127.027 337.495 127.824 335.848 128.451L332.759 130.196H319.842L319.788 122.918H329.349C330.548 122.918 331.542 122.704 332.33 122.274C333.117 121.844 333.708 121.236 334.102 120.448C334.514 119.642 334.72 118.684 334.72 117.574C334.72 116.446 334.514 115.479 334.102 114.674C333.69 113.868 333.082 113.25 332.276 112.821C331.488 112.391 330.512 112.176 329.349 112.176H323.387V144H313.96V104.898ZM335.364 144L326.717 126.705L336.707 126.651L345.462 143.597V144H335.364ZM364.502 136.695V124.718C364.502 123.894 364.386 123.187 364.153 122.596C363.921 122.005 363.554 121.549 363.052 121.227C362.551 120.886 361.88 120.716 361.038 120.716C360.358 120.716 359.776 120.833 359.292 121.065C358.809 121.298 358.442 121.647 358.191 122.113C357.941 122.578 357.815 123.169 357.815 123.885H348.765C348.765 122.542 349.061 121.298 349.651 120.152C350.26 118.989 351.119 117.977 352.229 117.118C353.357 116.258 354.7 115.596 356.258 115.13C357.833 114.647 359.588 114.405 361.521 114.405C363.831 114.405 365.89 114.79 367.698 115.56C369.524 116.33 370.966 117.485 372.022 119.024C373.078 120.546 373.606 122.462 373.606 124.771V136.668C373.606 138.566 373.714 140.007 373.929 140.992C374.144 141.959 374.448 142.809 374.842 143.543V144H365.765C365.335 143.105 365.013 142.013 364.798 140.724C364.601 139.417 364.502 138.074 364.502 136.695ZM365.604 126.249L365.657 131.083H361.656C360.814 131.083 360.098 131.199 359.507 131.432C358.934 131.664 358.469 131.987 358.111 132.398C357.771 132.792 357.52 133.24 357.359 133.741C357.216 134.243 357.144 134.771 357.144 135.326C357.144 135.863 357.269 136.346 357.52 136.776C357.789 137.188 358.147 137.51 358.594 137.743C359.042 137.975 359.543 138.092 360.098 138.092C361.101 138.092 361.951 137.904 362.649 137.528C363.366 137.134 363.912 136.66 364.288 136.104C364.664 135.549 364.852 135.03 364.852 134.547L366.839 138.253C366.481 138.969 366.069 139.694 365.604 140.428C365.156 141.162 364.592 141.843 363.912 142.469C363.249 143.078 362.435 143.579 361.468 143.973C360.501 144.349 359.328 144.537 357.95 144.537C356.159 144.537 354.512 144.17 353.008 143.436C351.522 142.702 350.332 141.681 349.437 140.375C348.541 139.05 348.094 137.528 348.094 135.809C348.094 134.305 348.362 132.962 348.899 131.781C349.454 130.599 350.287 129.597 351.397 128.773C352.507 127.949 353.921 127.323 355.64 126.893C357.359 126.463 359.382 126.249 361.709 126.249H365.604ZM388.672 137.796L394.393 114.942H403.926L394.419 144H388.78L388.672 137.796ZM385.289 114.942L390.928 137.796L390.875 144H385.208L375.728 114.942H385.289ZM420.308 144.537C417.945 144.537 415.832 144.17 413.97 143.436C412.108 142.684 410.533 141.655 409.244 140.348C407.972 139.041 406.997 137.537 406.316 135.836C405.654 134.135 405.323 132.336 405.323 130.438V129.417C405.323 127.287 405.618 125.318 406.209 123.509C406.8 121.683 407.677 120.09 408.841 118.729C410.005 117.368 411.464 116.312 413.218 115.56C414.973 114.79 417.014 114.405 419.341 114.405C421.4 114.405 423.244 114.736 424.874 115.399C426.503 116.061 427.881 117.01 429.009 118.246C430.155 119.481 431.023 120.976 431.614 122.73C432.223 124.485 432.527 126.454 432.527 128.639V132.318H408.787V126.651H423.692V125.953C423.71 124.986 423.54 124.163 423.182 123.482C422.841 122.802 422.34 122.283 421.678 121.925C421.015 121.567 420.21 121.388 419.261 121.388C418.276 121.388 417.461 121.603 416.817 122.032C416.19 122.462 415.698 123.053 415.34 123.805C415 124.539 414.758 125.389 414.615 126.356C414.472 127.323 414.4 128.343 414.4 129.417V130.438C414.4 131.512 414.543 132.488 414.83 133.365C415.134 134.243 415.564 134.994 416.119 135.621C416.692 136.23 417.372 136.704 418.16 137.044C418.965 137.385 419.878 137.555 420.899 137.555C422.134 137.555 423.352 137.322 424.551 136.856C425.751 136.391 426.78 135.621 427.64 134.547L431.749 139.435C431.158 140.276 430.316 141.091 429.224 141.878C428.15 142.666 426.861 143.311 425.357 143.812C423.853 144.295 422.17 144.537 420.308 144.537Z" fill="black"/>
<path d="M104.339 59.3726L97.5713 80H92.1196L101.365 55.1172H104.834L104.339 59.3726ZM109.961 80L103.177 59.3726L102.63 55.1172H106.133L115.43 80H109.961ZM109.654 70.7373V74.7534H96.5117V70.7373H109.654ZM122.625 53.75V80H117.686V53.75H122.625ZM131.888 61.5088V80H126.949V61.5088H131.888ZM126.641 56.6895C126.641 55.9717 126.892 55.3792 127.393 54.9121C127.894 54.445 128.567 54.2114 129.41 54.2114C130.241 54.2114 130.908 54.445 131.409 54.9121C131.922 55.3792 132.178 55.9717 132.178 56.6895C132.178 57.4072 131.922 57.9997 131.409 58.4668C130.908 58.9339 130.241 59.1675 129.41 59.1675C128.567 59.1675 127.894 58.9339 127.393 58.4668C126.892 57.9997 126.641 57.4072 126.641 56.6895ZM165.418 66.9775V68.1567C165.418 70.048 165.162 71.7456 164.649 73.2495C164.136 74.7534 163.413 76.0352 162.479 77.0947C161.544 78.1429 160.428 78.9461 159.129 79.5044C157.841 80.0627 156.412 80.3418 154.839 80.3418C153.278 80.3418 151.849 80.0627 150.55 79.5044C149.262 78.9461 148.146 78.1429 147.2 77.0947C146.255 76.0352 145.52 74.7534 144.996 73.2495C144.483 71.7456 144.227 70.048 144.227 68.1567V66.9775C144.227 65.0749 144.483 63.3773 144.996 61.8848C145.508 60.3809 146.232 59.0991 147.166 58.0396C148.112 56.98 149.228 56.1711 150.516 55.6128C151.814 55.0545 153.244 54.7754 154.805 54.7754C156.377 54.7754 157.807 55.0545 159.095 55.6128C160.394 56.1711 161.51 56.98 162.444 58.0396C163.39 59.0991 164.119 60.3809 164.632 61.8848C165.156 63.3773 165.418 65.0749 165.418 66.9775ZM160.24 68.1567V66.9434C160.24 65.6217 160.12 64.4596 159.881 63.457C159.642 62.4544 159.288 61.6113 158.821 60.9277C158.354 60.2441 157.785 59.7314 157.112 59.3896C156.44 59.0365 155.671 58.8599 154.805 58.8599C153.939 58.8599 153.17 59.0365 152.498 59.3896C151.837 59.7314 151.273 60.2441 150.806 60.9277C150.35 61.6113 150.003 62.4544 149.764 63.457C149.524 64.4596 149.405 65.6217 149.405 66.9434V68.1567C149.405 69.467 149.524 70.6291 149.764 71.6431C150.003 72.6457 150.356 73.4945 150.823 74.1895C151.29 74.873 151.86 75.3914 152.532 75.7446C153.204 76.0978 153.973 76.2744 154.839 76.2744C155.705 76.2744 156.474 76.0978 157.146 75.7446C157.819 75.3914 158.383 74.873 158.838 74.1895C159.294 73.4945 159.642 72.6457 159.881 71.6431C160.12 70.6291 160.24 69.467 160.24 68.1567ZM168.802 53.75H173.724V75.7617L173.228 80H168.802V53.75ZM185.43 70.5664V70.9253C185.43 72.3039 185.282 73.5685 184.986 74.7192C184.701 75.87 184.257 76.8669 183.653 77.71C183.049 78.5417 182.297 79.1911 181.397 79.6582C180.508 80.1139 179.46 80.3418 178.252 80.3418C177.125 80.3418 176.145 80.1139 175.313 79.6582C174.493 79.2025 173.803 78.5588 173.245 77.7271C172.687 76.8953 172.237 75.9212 171.895 74.8047C171.553 73.6882 171.297 72.4691 171.126 71.1475V70.3613C171.297 69.0397 171.553 67.8206 171.895 66.7041C172.237 65.5876 172.687 64.6134 173.245 63.7817C173.803 62.95 174.493 62.3063 175.313 61.8506C176.133 61.3949 177.102 61.167 178.218 61.167C179.437 61.167 180.497 61.4006 181.397 61.8677C182.308 62.3234 183.06 62.9728 183.653 63.8159C184.257 64.6476 184.701 65.6388 184.986 66.7896C185.282 67.9289 185.43 69.1878 185.43 70.5664ZM180.508 70.9253V70.5664C180.508 69.8145 180.451 69.1081 180.337 68.4473C180.235 67.7751 180.053 67.1883 179.791 66.687C179.528 66.1743 179.17 65.7699 178.714 65.4736C178.27 65.1774 177.694 65.0293 176.988 65.0293C176.316 65.0293 175.746 65.1432 175.279 65.3711C174.812 65.599 174.424 65.918 174.117 66.3281C173.82 66.7383 173.598 67.2282 173.45 67.7979C173.302 68.3561 173.211 68.9714 173.177 69.6436V71.8823C173.211 72.7824 173.359 73.5799 173.621 74.2749C173.895 74.9585 174.305 75.4997 174.852 75.8984C175.41 76.2858 176.133 76.4795 177.022 76.4795C177.717 76.4795 178.292 76.3428 178.748 76.0693C179.204 75.7959 179.557 75.4085 179.808 74.9072C180.07 74.4059 180.252 73.8192 180.354 73.147C180.457 72.4634 180.508 71.7228 180.508 70.9253ZM197 80.3418C195.564 80.3418 194.277 80.1139 193.138 79.6582C191.998 79.1911 191.03 78.5474 190.232 77.7271C189.446 76.9067 188.842 75.9554 188.421 74.873C187.999 73.7793 187.789 72.6172 187.789 71.3867V70.7031C187.789 69.3018 187.988 68.02 188.387 66.8579C188.785 65.6958 189.355 64.6875 190.096 63.833C190.848 62.9785 191.759 62.3234 192.83 61.8677C193.901 61.4006 195.109 61.167 196.453 61.167C197.763 61.167 198.925 61.3835 199.939 61.8164C200.953 62.2493 201.802 62.8646 202.486 63.6621C203.181 64.4596 203.705 65.4167 204.058 66.5332C204.411 67.6383 204.588 68.8688 204.588 70.2246V72.2754H189.891V68.9941H199.751V68.6182C199.751 67.9346 199.626 67.325 199.375 66.7896C199.136 66.2427 198.772 65.8097 198.282 65.4907C197.792 65.1717 197.165 65.0122 196.402 65.0122C195.752 65.0122 195.194 65.1546 194.727 65.4395C194.26 65.7243 193.878 66.123 193.582 66.6357C193.297 67.1484 193.081 67.7523 192.933 68.4473C192.796 69.1309 192.728 69.8828 192.728 70.7031V71.3867C192.728 72.1273 192.83 72.8109 193.035 73.4375C193.252 74.0641 193.554 74.6053 193.941 75.061C194.34 75.5168 194.818 75.87 195.376 76.1206C195.946 76.3713 196.59 76.4966 197.308 76.4966C198.196 76.4966 199.022 76.3257 199.786 75.9839C200.56 75.6307 201.227 75.1009 201.785 74.3945L204.178 76.9922C203.79 77.5505 203.261 78.0859 202.588 78.5986C201.928 79.1113 201.13 79.5329 200.196 79.8633C199.262 80.1823 198.196 80.3418 197 80.3418ZM212.586 61.5088V80H207.647V61.5088H212.586ZM207.339 56.6895C207.339 55.9717 207.59 55.3792 208.091 54.9121C208.593 54.445 209.265 54.2114 210.108 54.2114C210.94 54.2114 211.606 54.445 212.107 54.9121C212.62 55.3792 212.876 55.9717 212.876 56.6895C212.876 57.4072 212.62 57.9997 212.107 58.4668C211.606 58.9339 210.94 59.1675 210.108 59.1675C209.265 59.1675 208.593 58.9339 208.091 58.4668C207.59 57.9997 207.339 57.4072 207.339 56.6895ZM227.574 75.9668V53.75H232.53V80H228.069L227.574 75.9668ZM215.884 70.9766V70.6177C215.884 69.2049 216.044 67.9232 216.363 66.7725C216.682 65.6104 217.149 64.6134 217.764 63.7817C218.379 62.95 219.137 62.3063 220.037 61.8506C220.937 61.3949 221.963 61.167 223.113 61.167C224.196 61.167 225.141 61.3949 225.95 61.8506C226.771 62.3063 227.465 62.9557 228.035 63.7988C228.616 64.6305 229.083 65.616 229.437 66.7554C229.79 67.8833 230.046 69.1195 230.206 70.4639V71.25C230.046 72.5374 229.79 73.7337 229.437 74.8389C229.083 75.944 228.616 76.9124 228.035 77.7441C227.465 78.5645 226.771 79.2025 225.95 79.6582C225.13 80.1139 224.173 80.3418 223.079 80.3418C221.928 80.3418 220.903 80.1082 220.003 79.6411C219.114 79.174 218.362 78.5189 217.747 77.6758C217.143 76.8327 216.682 75.8415 216.363 74.7021C216.044 73.5628 215.884 72.321 215.884 70.9766ZM220.806 70.6177V70.9766C220.806 71.7399 220.863 72.452 220.977 73.1128C221.102 73.7736 221.302 74.3604 221.575 74.873C221.86 75.3743 222.225 75.7674 222.669 76.0522C223.125 76.3257 223.677 76.4624 224.327 76.4624C225.17 76.4624 225.865 76.2744 226.412 75.8984C226.958 75.5111 227.374 74.9813 227.659 74.3091C227.955 73.6369 228.126 72.8621 228.172 71.9849V69.7461C228.138 69.0283 228.035 68.3846 227.864 67.8149C227.705 67.2339 227.465 66.7383 227.146 66.3281C226.839 65.918 226.451 65.599 225.984 65.3711C225.529 65.1432 224.987 65.0293 224.361 65.0293C223.723 65.0293 223.176 65.1774 222.72 65.4736C222.264 65.7585 221.894 66.1515 221.609 66.6528C221.336 67.1541 221.131 67.7466 220.994 68.4302C220.869 69.1024 220.806 69.8315 220.806 70.6177Z" fill="#888888"/>
<rect x="92" y="181" width="1179" height="80" rx="13.3333" fill="#CCCCCC"/>
<rect x="107" y="196.333" width="208" height="49.3333" rx="4.66667" fill="#888888" stroke="#888888" stroke-width="4"/>
<path d="M166.656 213.167H169.635L173.021 223.719L176.406 213.167H179.385L174.229 228.333H171.813L166.656 213.167ZM164.844 213.167H167.927L168.5 224.792V228.333H164.844V213.167ZM178.115 213.167H181.208V228.333H177.542V224.792L178.115 213.167ZM182.948 222.812V222.594C182.948 221.767 183.066 221.007 183.302 220.312C183.538 219.611 183.885 219.003 184.344 218.49C184.802 217.976 185.368 217.576 186.042 217.292C186.715 217 187.493 216.854 188.375 216.854C189.264 216.854 190.045 217 190.719 217.292C191.399 217.576 191.969 217.976 192.427 218.49C192.885 219.003 193.233 219.611 193.469 220.312C193.705 221.007 193.823 221.767 193.823 222.594V222.812C193.823 223.632 193.705 224.392 193.469 225.094C193.233 225.788 192.885 226.396 192.427 226.917C191.969 227.431 191.403 227.83 190.729 228.115C190.056 228.399 189.278 228.542 188.396 228.542C187.514 228.542 186.733 228.399 186.052 228.115C185.372 227.83 184.802 227.431 184.344 226.917C183.885 226.396 183.538 225.788 183.302 225.094C183.066 224.392 182.948 223.632 182.948 222.812ZM186.458 222.594V222.812C186.458 223.236 186.49 223.632 186.552 224C186.615 224.368 186.719 224.691 186.865 224.969C187.01 225.24 187.208 225.451 187.458 225.604C187.708 225.757 188.021 225.833 188.396 225.833C188.764 225.833 189.069 225.757 189.313 225.604C189.563 225.451 189.76 225.24 189.906 224.969C190.052 224.691 190.156 224.368 190.219 224C190.281 223.632 190.313 223.236 190.313 222.812V222.594C190.313 222.184 190.281 221.799 190.219 221.437C190.156 221.069 190.052 220.747 189.906 220.469C189.76 220.184 189.563 219.962 189.313 219.802C189.063 219.642 188.75 219.562 188.375 219.562C188.007 219.562 187.698 219.642 187.448 219.802C187.205 219.962 187.01 220.184 186.865 220.469C186.719 220.747 186.615 221.069 186.552 221.437C186.49 221.799 186.458 222.184 186.458 222.594ZM198.833 219.469V228.333H195.323V217.062H198.615L198.833 219.469ZM198.417 222.312L197.594 222.333C197.594 221.472 197.698 220.705 197.906 220.031C198.115 219.351 198.41 218.774 198.792 218.302C199.174 217.83 199.628 217.472 200.156 217.229C200.691 216.979 201.285 216.854 201.938 216.854C202.458 216.854 202.934 216.931 203.365 217.083C203.802 217.236 204.177 217.483 204.49 217.823C204.809 218.163 205.052 218.615 205.219 219.177C205.392 219.733 205.479 220.42 205.479 221.24V228.333H201.948V221.229C201.948 220.778 201.885 220.434 201.76 220.198C201.635 219.955 201.455 219.788 201.219 219.698C200.983 219.608 200.694 219.562 200.354 219.562C199.993 219.562 199.688 219.632 199.438 219.771C199.188 219.91 198.986 220.104 198.833 220.354C198.688 220.597 198.58 220.885 198.51 221.219C198.448 221.552 198.417 221.917 198.417 222.312ZM214.51 217.062H217.698V227.896C217.698 228.937 217.458 229.819 216.979 230.542C216.5 231.271 215.83 231.823 214.969 232.198C214.115 232.58 213.115 232.771 211.969 232.771C211.462 232.771 210.944 232.705 210.417 232.573C209.889 232.448 209.396 232.26 208.938 232.01C208.479 231.76 208.094 231.451 207.781 231.083L209.25 229.021C209.535 229.34 209.892 229.611 210.323 229.833C210.753 230.062 211.26 230.177 211.844 230.177C212.351 230.177 212.774 230.087 213.115 229.906C213.462 229.726 213.726 229.462 213.906 229.115C214.087 228.774 214.177 228.361 214.177 227.875V219.729L214.51 217.062ZM207.021 222.833V222.615C207.021 221.76 207.125 220.983 207.333 220.281C207.549 219.573 207.854 218.965 208.25 218.458C208.653 217.944 209.139 217.549 209.708 217.271C210.278 216.993 210.92 216.854 211.635 216.854C212.406 216.854 213.038 217.003 213.531 217.302C214.031 217.594 214.431 218.003 214.729 218.531C215.035 219.059 215.271 219.677 215.438 220.385C215.611 221.087 215.757 221.844 215.875 222.656V222.917C215.757 223.681 215.594 224.403 215.385 225.083C215.184 225.757 214.92 226.354 214.594 226.875C214.267 227.396 213.858 227.806 213.365 228.104C212.878 228.396 212.295 228.542 211.615 228.542C210.906 228.542 210.267 228.399 209.698 228.115C209.135 227.83 208.653 227.431 208.25 226.917C207.854 226.403 207.549 225.799 207.333 225.104C207.125 224.41 207.021 223.653 207.021 222.833ZM210.531 222.615V222.833C210.531 223.257 210.569 223.649 210.646 224.01C210.729 224.372 210.854 224.691 211.021 224.969C211.188 225.24 211.392 225.451 211.635 225.604C211.885 225.757 212.177 225.833 212.51 225.833C213.017 225.833 213.427 225.726 213.74 225.51C214.052 225.295 214.278 224.99 214.417 224.594C214.556 224.198 214.615 223.733 214.594 223.198V222.375C214.608 221.917 214.576 221.514 214.5 221.167C214.424 220.812 214.302 220.517 214.135 220.281C213.976 220.045 213.76 219.868 213.49 219.75C213.226 219.625 212.906 219.562 212.531 219.562C212.205 219.562 211.917 219.639 211.667 219.792C211.417 219.944 211.208 220.16 211.042 220.437C210.875 220.708 210.747 221.031 210.656 221.406C210.573 221.774 210.531 222.177 210.531 222.615ZM219.281 222.812V222.594C219.281 221.767 219.399 221.007 219.635 220.312C219.872 219.611 220.219 219.003 220.677 218.49C221.135 217.976 221.701 217.576 222.375 217.292C223.049 217 223.826 216.854 224.708 216.854C225.597 216.854 226.378 217 227.052 217.292C227.733 217.576 228.302 217.976 228.76 218.49C229.219 219.003 229.566 219.611 229.802 220.312C230.038 221.007 230.156 221.767 230.156 222.594V222.812C230.156 223.632 230.038 224.392 229.802 225.094C229.566 225.788 229.219 226.396 228.76 226.917C228.302 227.431 227.736 227.83 227.063 228.115C226.389 228.399 225.611 228.542 224.729 228.542C223.847 228.542 223.066 228.399 222.385 228.115C221.705 227.83 221.135 227.431 220.677 226.917C220.219 226.396 219.872 225.788 219.635 225.094C219.399 224.392 219.281 223.632 219.281 222.812ZM222.792 222.594V222.812C222.792 223.236 222.823 223.632 222.885 224C222.948 224.368 223.052 224.691 223.198 224.969C223.344 225.24 223.542 225.451 223.792 225.604C224.042 225.757 224.354 225.833 224.729 225.833C225.097 225.833 225.403 225.757 225.646 225.604C225.896 225.451 226.094 225.24 226.24 224.969C226.385 224.691 226.49 224.368 226.552 224C226.615 223.632 226.646 223.236 226.646 222.812V222.594C226.646 222.184 226.615 221.799 226.552 221.437C226.49 221.069 226.385 220.747 226.24 220.469C226.094 220.184 225.896 219.962 225.646 219.802C225.396 219.642 225.083 219.562 224.708 219.562C224.34 219.562 224.031 219.642 223.781 219.802C223.538 219.962 223.344 220.184 223.198 220.469C223.052 220.747 222.948 221.069 222.885 221.437C222.823 221.799 222.792 222.184 222.792 222.594ZM236.813 228.333H233.448L233.469 225.521H236.813C237.507 225.521 238.094 225.354 238.573 225.021C239.059 224.687 239.427 224.191 239.677 223.531C239.934 222.865 240.063 222.045 240.063 221.073V220.417C240.063 219.687 239.99 219.049 239.844 218.5C239.705 217.944 239.497 217.483 239.219 217.115C238.941 216.74 238.594 216.458 238.177 216.271C237.767 216.083 237.295 215.99 236.76 215.99H233.385V213.167H236.76C237.788 213.167 238.729 213.344 239.583 213.698C240.444 214.045 241.188 214.545 241.813 215.198C242.444 215.844 242.931 216.611 243.271 217.5C243.618 218.382 243.792 219.361 243.792 220.437V221.073C243.792 222.142 243.618 223.122 243.271 224.01C242.931 224.899 242.448 225.667 241.823 226.312C241.198 226.958 240.458 227.458 239.604 227.812C238.757 228.16 237.826 228.333 236.813 228.333ZM235.542 213.167V228.333H231.885V213.167H235.542ZM251.885 221.885H247.979L247.958 219.49H251.125C251.694 219.49 252.149 219.427 252.49 219.302C252.83 219.17 253.076 218.979 253.229 218.729C253.389 218.479 253.469 218.167 253.469 217.792C253.469 217.361 253.389 217.014 253.229 216.75C253.069 216.486 252.816 216.295 252.469 216.177C252.128 216.052 251.688 215.99 251.146 215.99H249.354V228.333H245.698V213.167H251.146C252.083 213.167 252.92 213.253 253.656 213.427C254.392 213.594 255.017 213.851 255.531 214.198C256.052 214.545 256.448 214.983 256.719 215.51C256.99 216.031 257.125 216.646 257.125 217.354C257.125 217.972 256.993 218.552 256.729 219.094C256.465 219.635 256.024 220.076 255.406 220.417C254.795 220.75 253.958 220.924 252.896 220.937L251.885 221.885ZM251.74 228.333H247.094L248.344 225.521H251.74C252.24 225.521 252.639 225.444 252.938 225.292C253.243 225.132 253.462 224.924 253.594 224.667C253.733 224.403 253.802 224.111 253.802 223.792C253.802 223.403 253.736 223.066 253.604 222.781C253.479 222.497 253.278 222.278 253 222.125C252.722 221.965 252.351 221.885 251.885 221.885H248.813L248.833 219.49H252.51L253.365 220.448C254.378 220.406 255.181 220.549 255.771 220.875C256.368 221.201 256.795 221.632 257.052 222.167C257.309 222.701 257.438 223.26 257.438 223.844C257.438 224.837 257.222 225.667 256.792 226.333C256.368 227 255.733 227.5 254.885 227.833C254.038 228.167 252.99 228.333 251.74 228.333Z" fill="white"/>
<rect x="339" y="196.333" width="208" height="49.3333" rx="4.66667" fill="#888888" stroke="#888888" stroke-width="4"/>
<path d="M418.844 213.167V228.333H415.198L409.833 218.896V228.333H406.177V213.167H409.833L415.198 222.604V213.167H418.844ZM420.552 222.812V222.594C420.552 221.767 420.67 221.007 420.906 220.312C421.142 219.611 421.49 219.003 421.948 218.49C422.406 217.976 422.972 217.576 423.646 217.292C424.319 217 425.097 216.854 425.979 216.854C426.868 216.854 427.649 217 428.323 217.292C429.003 217.576 429.573 217.976 430.031 218.49C430.49 219.003 430.837 219.611 431.073 220.312C431.309 221.007 431.427 221.767 431.427 222.594V222.812C431.427 223.632 431.309 224.392 431.073 225.094C430.837 225.788 430.49 226.396 430.031 226.917C429.573 227.431 429.007 227.83 428.333 228.115C427.66 228.399 426.882 228.542 426 228.542C425.118 228.542 424.337 228.399 423.656 228.115C422.976 227.83 422.406 227.431 421.948 226.917C421.49 226.396 421.142 225.788 420.906 225.094C420.67 224.392 420.552 223.632 420.552 222.812ZM424.062 222.594V222.812C424.062 223.236 424.094 223.632 424.156 224C424.219 224.368 424.323 224.691 424.469 224.969C424.615 225.24 424.812 225.451 425.062 225.604C425.312 225.757 425.625 225.833 426 225.833C426.368 225.833 426.674 225.757 426.917 225.604C427.167 225.451 427.365 225.24 427.51 224.969C427.656 224.691 427.76 224.368 427.823 224C427.885 223.632 427.917 223.236 427.917 222.812V222.594C427.917 222.184 427.885 221.799 427.823 221.437C427.76 221.069 427.656 220.747 427.51 220.469C427.365 220.184 427.167 219.962 426.917 219.802C426.667 219.642 426.354 219.562 425.979 219.562C425.611 219.562 425.302 219.642 425.052 219.802C424.809 219.962 424.615 220.184 424.469 220.469C424.323 220.747 424.219 221.069 424.156 221.437C424.094 221.799 424.062 222.184 424.062 222.594ZM439.469 225.75V212.333H443V228.333H439.833L439.469 225.75ZM432.552 222.833V222.615C432.552 221.76 432.646 220.983 432.833 220.281C433.021 219.573 433.299 218.965 433.667 218.458C434.035 217.944 434.493 217.549 435.042 217.271C435.59 216.993 436.222 216.854 436.938 216.854C437.576 216.854 438.135 217.003 438.615 217.302C439.094 217.594 439.503 218.003 439.844 218.531C440.184 219.059 440.462 219.677 440.677 220.385C440.892 221.087 441.056 221.844 441.167 222.656V222.917C441.056 223.681 440.892 224.403 440.677 225.083C440.462 225.757 440.184 226.354 439.844 226.875C439.503 227.396 439.09 227.806 438.604 228.104C438.125 228.396 437.563 228.542 436.917 228.542C436.201 228.542 435.569 228.399 435.021 228.115C434.479 227.83 434.024 227.431 433.656 226.917C433.295 226.403 433.021 225.799 432.833 225.104C432.646 224.41 432.552 223.653 432.552 222.833ZM436.063 222.615V222.833C436.063 223.257 436.09 223.649 436.146 224.01C436.201 224.372 436.295 224.691 436.427 224.969C436.566 225.24 436.747 225.451 436.969 225.604C437.198 225.757 437.479 225.833 437.813 225.833C438.264 225.833 438.635 225.726 438.927 225.51C439.226 225.295 439.444 224.99 439.583 224.594C439.729 224.198 439.792 223.733 439.771 223.198V222.375C439.785 221.917 439.753 221.514 439.677 221.167C439.601 220.812 439.479 220.517 439.313 220.281C439.153 220.045 438.948 219.868 438.698 219.75C438.455 219.625 438.167 219.562 437.833 219.562C437.507 219.562 437.229 219.639 437 219.792C436.778 219.944 436.597 220.16 436.458 220.437C436.319 220.708 436.219 221.031 436.156 221.406C436.094 221.774 436.063 222.177 436.063 222.615ZM450.448 228.542C449.531 228.542 448.712 228.399 447.99 228.115C447.267 227.823 446.656 227.424 446.156 226.917C445.663 226.41 445.285 225.826 445.021 225.167C444.764 224.507 444.635 223.809 444.635 223.073V222.677C444.635 221.851 444.75 221.087 444.979 220.385C445.208 219.677 445.549 219.059 446 218.531C446.451 218.003 447.017 217.594 447.698 217.302C448.378 217.003 449.17 216.854 450.073 216.854C450.872 216.854 451.587 216.983 452.219 217.24C452.851 217.497 453.385 217.865 453.823 218.344C454.267 218.823 454.604 219.403 454.833 220.083C455.069 220.764 455.188 221.528 455.188 222.375V223.802H445.979V221.604H451.76V221.333C451.767 220.958 451.701 220.639 451.563 220.375C451.431 220.111 451.236 219.91 450.979 219.771C450.722 219.632 450.41 219.562 450.042 219.562C449.66 219.562 449.344 219.646 449.094 219.812C448.851 219.979 448.66 220.208 448.521 220.5C448.389 220.785 448.295 221.115 448.24 221.49C448.184 221.865 448.156 222.26 448.156 222.677V223.073C448.156 223.49 448.212 223.868 448.323 224.208C448.441 224.549 448.608 224.84 448.823 225.083C449.045 225.319 449.309 225.503 449.615 225.635C449.927 225.767 450.281 225.833 450.677 225.833C451.156 225.833 451.628 225.743 452.094 225.562C452.559 225.382 452.958 225.083 453.292 224.667L454.885 226.562C454.656 226.889 454.33 227.205 453.906 227.51C453.49 227.816 452.99 228.066 452.406 228.26C451.823 228.448 451.17 228.542 450.448 228.542ZM462.813 223.573V213.167H466.458V223.573C466.458 224.587 466.226 225.465 465.76 226.208C465.302 226.951 464.677 227.528 463.885 227.937C463.101 228.34 462.219 228.542 461.24 228.542C460.226 228.542 459.323 228.372 458.531 228.031C457.747 227.691 457.128 227.167 456.677 226.458C456.233 225.75 456.01 224.847 456.01 223.75H459.677C459.677 224.264 459.736 224.667 459.854 224.958C459.972 225.243 460.146 225.444 460.375 225.562C460.611 225.674 460.899 225.729 461.24 225.729C461.573 225.729 461.854 225.646 462.083 225.479C462.319 225.306 462.5 225.059 462.625 224.74C462.75 224.413 462.813 224.024 462.813 223.573ZM476.594 224.302C476.594 224.066 476.559 223.854 476.49 223.667C476.42 223.472 476.292 223.292 476.104 223.125C475.917 222.958 475.646 222.792 475.292 222.625C474.944 222.451 474.486 222.271 473.917 222.083C473.25 221.861 472.608 221.611 471.99 221.333C471.372 221.049 470.819 220.719 470.333 220.344C469.847 219.962 469.462 219.517 469.177 219.01C468.892 218.497 468.75 217.899 468.75 217.219C468.75 216.566 468.896 215.979 469.188 215.458C469.479 214.931 469.885 214.483 470.406 214.115C470.934 213.74 471.552 213.455 472.26 213.26C472.969 213.059 473.743 212.958 474.583 212.958C475.694 212.958 476.674 213.153 477.521 213.542C478.375 213.924 479.042 214.469 479.521 215.177C480.007 215.878 480.25 216.708 480.25 217.667H476.615C476.615 217.285 476.535 216.948 476.375 216.656C476.222 216.365 475.99 216.135 475.677 215.969C475.365 215.802 474.972 215.719 474.5 215.719C474.042 215.719 473.656 215.788 473.344 215.927C473.031 216.066 472.795 216.253 472.635 216.49C472.476 216.719 472.396 216.972 472.396 217.25C472.396 217.479 472.458 217.687 472.583 217.875C472.715 218.056 472.899 218.226 473.135 218.385C473.378 218.545 473.67 218.698 474.01 218.844C474.358 218.99 474.747 219.132 475.177 219.271C475.983 219.528 476.698 219.816 477.323 220.135C477.955 220.448 478.486 220.806 478.917 221.208C479.354 221.604 479.684 222.056 479.906 222.562C480.135 223.069 480.25 223.642 480.25 224.281C480.25 224.962 480.118 225.566 479.854 226.094C479.59 226.622 479.212 227.069 478.719 227.437C478.226 227.799 477.635 228.073 476.948 228.26C476.26 228.448 475.493 228.542 474.646 228.542C473.868 228.542 473.101 228.444 472.344 228.25C471.594 228.049 470.913 227.743 470.302 227.333C469.691 226.917 469.201 226.385 468.833 225.74C468.472 225.087 468.292 224.312 468.292 223.417H471.958C471.958 223.861 472.017 224.236 472.135 224.542C472.253 224.847 472.427 225.094 472.656 225.281C472.885 225.462 473.167 225.594 473.5 225.677C473.833 225.753 474.215 225.792 474.646 225.792C475.111 225.792 475.486 225.726 475.771 225.594C476.056 225.455 476.264 225.274 476.396 225.052C476.528 224.823 476.594 224.573 476.594 224.302Z" fill="white"/>
<rect x="571" y="196.333" width="208" height="49.3333" rx="4.66667" fill="#888888" stroke="#888888" stroke-width="4"/>
<path d="M614.833 213.167H620.802C621.969 213.167 622.983 213.34 623.844 213.687C624.705 214.035 625.368 214.549 625.833 215.229C626.306 215.91 626.542 216.75 626.542 217.75C626.542 218.618 626.406 219.344 626.135 219.927C625.865 220.51 625.486 220.993 625 221.375C624.521 221.75 623.962 222.059 623.323 222.302L622.125 222.979H617.115L617.094 220.156H620.802C621.267 220.156 621.653 220.073 621.958 219.906C622.264 219.74 622.493 219.503 622.646 219.198C622.806 218.885 622.885 218.514 622.885 218.083C622.885 217.646 622.806 217.271 622.646 216.958C622.486 216.646 622.25 216.406 621.937 216.24C621.632 216.073 621.253 215.99 620.802 215.99H618.49V228.333H614.833V213.167ZM623.135 228.333L619.781 221.625L623.656 221.604L627.052 228.177V228.333H623.135ZM634.042 228.542C633.125 228.542 632.306 228.399 631.583 228.115C630.861 227.823 630.25 227.424 629.75 226.917C629.257 226.41 628.878 225.826 628.615 225.167C628.358 224.507 628.229 223.809 628.229 223.073V222.677C628.229 221.851 628.344 221.087 628.573 220.385C628.802 219.677 629.142 219.059 629.594 218.531C630.045 218.003 630.611 217.594 631.292 217.302C631.972 217.003 632.764 216.854 633.667 216.854C634.465 216.854 635.181 216.983 635.813 217.24C636.444 217.497 636.979 217.865 637.417 218.344C637.861 218.823 638.198 219.403 638.427 220.083C638.663 220.764 638.781 221.528 638.781 222.375V223.802H629.573V221.604H635.354V221.333C635.361 220.958 635.295 220.639 635.156 220.375C635.024 220.111 634.83 219.91 634.573 219.771C634.316 219.632 634.003 219.562 633.635 219.562C633.253 219.562 632.938 219.646 632.688 219.812C632.444 219.979 632.253 220.208 632.115 220.5C631.983 220.785 631.889 221.115 631.833 221.49C631.778 221.865 631.75 222.26 631.75 222.677V223.073C631.75 223.49 631.806 223.868 631.917 224.208C632.035 224.549 632.201 224.84 632.417 225.083C632.639 225.319 632.903 225.503 633.208 225.635C633.521 225.767 633.875 225.833 634.271 225.833C634.75 225.833 635.222 225.743 635.688 225.562C636.153 225.382 636.552 225.083 636.885 224.667L638.479 226.562C638.25 226.889 637.924 227.205 637.5 227.51C637.083 227.816 636.583 228.066 636 228.26C635.417 228.448 634.764 228.542 634.042 228.542ZM646.063 225.5V220.854C646.063 220.535 646.017 220.26 645.927 220.031C645.837 219.802 645.694 219.625 645.5 219.5C645.306 219.368 645.045 219.302 644.719 219.302C644.455 219.302 644.229 219.347 644.042 219.437C643.854 219.528 643.712 219.663 643.615 219.844C643.517 220.024 643.469 220.253 643.469 220.531H639.958C639.958 220.01 640.073 219.528 640.302 219.083C640.538 218.632 640.872 218.24 641.302 217.906C641.74 217.573 642.26 217.316 642.865 217.135C643.476 216.948 644.156 216.854 644.906 216.854C645.802 216.854 646.601 217.003 647.302 217.302C648.01 217.601 648.569 218.049 648.979 218.646C649.389 219.236 649.594 219.979 649.594 220.875V225.49C649.594 226.226 649.635 226.785 649.719 227.167C649.802 227.542 649.92 227.872 650.073 228.156V228.333H646.552C646.385 227.986 646.26 227.562 646.177 227.062C646.101 226.556 646.063 226.035 646.063 225.5ZM646.49 221.448L646.51 223.323H644.958C644.632 223.323 644.354 223.368 644.125 223.458C643.903 223.549 643.722 223.674 643.583 223.833C643.451 223.986 643.354 224.16 643.292 224.354C643.236 224.549 643.208 224.753 643.208 224.969C643.208 225.177 643.257 225.365 643.354 225.531C643.458 225.691 643.597 225.816 643.771 225.906C643.944 225.997 644.139 226.042 644.354 226.042C644.743 226.042 645.073 225.969 645.344 225.823C645.622 225.67 645.833 225.486 645.979 225.271C646.125 225.056 646.198 224.854 646.198 224.667L646.969 226.104C646.83 226.382 646.67 226.663 646.49 226.948C646.316 227.233 646.097 227.497 645.833 227.74C645.576 227.976 645.26 228.17 644.885 228.323C644.51 228.469 644.056 228.542 643.521 228.542C642.826 228.542 642.188 228.399 641.604 228.115C641.028 227.83 640.566 227.434 640.219 226.927C639.872 226.413 639.698 225.823 639.698 225.156C639.698 224.573 639.802 224.052 640.01 223.594C640.226 223.135 640.549 222.747 640.979 222.427C641.41 222.108 641.958 221.865 642.625 221.698C643.292 221.531 644.076 221.448 644.979 221.448H646.49ZM656.302 225.833C656.628 225.833 656.906 225.774 657.135 225.656C657.372 225.531 657.549 225.358 657.667 225.135C657.792 224.906 657.851 224.632 657.844 224.312H661.146C661.153 225.16 660.944 225.903 660.521 226.542C660.104 227.174 659.535 227.667 658.812 228.021C658.097 228.368 657.288 228.542 656.385 228.542C655.503 228.542 654.733 228.399 654.073 228.115C653.413 227.823 652.861 227.42 652.417 226.906C651.979 226.385 651.649 225.778 651.427 225.083C651.212 224.389 651.104 223.635 651.104 222.823V222.583C651.104 221.771 651.212 221.017 651.427 220.323C651.649 219.622 651.979 219.014 652.417 218.5C652.861 217.979 653.41 217.576 654.062 217.292C654.722 217 655.49 216.854 656.365 216.854C657.302 216.854 658.128 217.031 658.844 217.385C659.566 217.74 660.132 218.253 660.542 218.927C660.951 219.601 661.153 220.417 661.146 221.375H657.844C657.851 221.035 657.799 220.729 657.687 220.458C657.576 220.187 657.403 219.972 657.167 219.812C656.937 219.646 656.642 219.562 656.281 219.562C655.92 219.562 655.628 219.642 655.406 219.802C655.184 219.962 655.014 220.184 654.896 220.469C654.785 220.747 654.708 221.066 654.667 221.427C654.632 221.788 654.615 222.174 654.615 222.583V222.823C654.615 223.24 654.632 223.632 654.667 224C654.708 224.361 654.788 224.681 654.906 224.958C655.024 225.229 655.194 225.444 655.417 225.604C655.639 225.757 655.934 225.833 656.302 225.833ZM668.583 217.062V219.5H661.792V217.062H668.583ZM663.219 214.26H666.729V224.656C666.729 224.955 666.764 225.187 666.833 225.354C666.903 225.514 667.021 225.628 667.188 225.698C667.361 225.76 667.59 225.792 667.875 225.792C668.076 225.792 668.243 225.788 668.375 225.781C668.507 225.767 668.632 225.75 668.75 225.729V228.24C668.451 228.337 668.139 228.41 667.813 228.458C667.486 228.514 667.139 228.542 666.771 228.542C666.021 228.542 665.378 228.424 664.844 228.187C664.316 227.951 663.913 227.58 663.635 227.073C663.358 226.566 663.219 225.906 663.219 225.094V214.26ZM688.125 213.167V228.333H684.479L679.115 218.896V228.333H675.458V213.167H679.115L684.479 222.604V213.167H688.125ZM696.125 225.5V220.854C696.125 220.535 696.08 220.26 695.99 220.031C695.899 219.802 695.757 219.625 695.563 219.5C695.368 219.368 695.108 219.302 694.781 219.302C694.517 219.302 694.292 219.347 694.104 219.437C693.917 219.528 693.774 219.663 693.677 219.844C693.58 220.024 693.531 220.253 693.531 220.531H690.021C690.021 220.01 690.135 219.528 690.365 219.083C690.601 218.632 690.934 218.24 691.365 217.906C691.802 217.573 692.323 217.316 692.927 217.135C693.538 216.948 694.219 216.854 694.969 216.854C695.865 216.854 696.663 217.003 697.365 217.302C698.073 217.601 698.632 218.049 699.042 218.646C699.451 219.236 699.656 219.979 699.656 220.875V225.49C699.656 226.226 699.698 226.785 699.781 227.167C699.865 227.542 699.983 227.872 700.135 228.156V228.333H696.615C696.448 227.986 696.323 227.562 696.24 227.062C696.163 226.556 696.125 226.035 696.125 225.5ZM696.552 221.448L696.573 223.323H695.021C694.694 223.323 694.417 223.368 694.188 223.458C693.965 223.549 693.785 223.674 693.646 223.833C693.514 223.986 693.417 224.16 693.354 224.354C693.299 224.549 693.271 224.753 693.271 224.969C693.271 225.177 693.319 225.365 693.417 225.531C693.521 225.691 693.66 225.816 693.833 225.906C694.007 225.997 694.201 226.042 694.417 226.042C694.806 226.042 695.135 225.969 695.406 225.823C695.684 225.67 695.896 225.486 696.042 225.271C696.188 225.056 696.26 224.854 696.26 224.667L697.031 226.104C696.892 226.382 696.733 226.663 696.552 226.948C696.378 227.233 696.16 227.497 695.896 227.74C695.639 227.976 695.323 228.17 694.948 228.323C694.573 228.469 694.118 228.542 693.583 228.542C692.889 228.542 692.25 228.399 691.667 228.115C691.09 227.83 690.628 227.434 690.281 226.927C689.934 226.413 689.76 225.823 689.76 225.156C689.76 224.573 689.865 224.052 690.073 223.594C690.288 223.135 690.611 222.747 691.042 222.427C691.472 222.108 692.021 221.865 692.688 221.698C693.354 221.531 694.139 221.448 695.042 221.448H696.552ZM707.542 217.062V219.5H700.75V217.062H707.542ZM702.177 214.26H705.687V224.656C705.687 224.955 705.722 225.187 705.792 225.354C705.861 225.514 705.979 225.628 706.146 225.698C706.319 225.76 706.549 225.792 706.833 225.792C707.035 225.792 707.201 225.788 707.333 225.781C707.465 225.767 707.59 225.75 707.708 225.729V228.24C707.41 228.337 707.097 228.41 706.771 228.458C706.444 228.514 706.097 228.542 705.729 228.542C704.979 228.542 704.337 228.424 703.802 228.187C703.274 227.951 702.872 227.58 702.594 227.073C702.316 226.566 702.177 225.906 702.177 225.094V214.26ZM712.646 217.062V228.333H709.125V217.062H712.646ZM708.917 214.156C708.917 213.656 709.097 213.247 709.458 212.927C709.819 212.608 710.288 212.448 710.865 212.448C711.441 212.448 711.91 212.608 712.271 212.927C712.632 213.247 712.813 213.656 712.813 214.156C712.813 214.656 712.632 215.066 712.271 215.385C711.91 215.705 711.441 215.865 710.865 215.865C710.288 215.865 709.819 215.705 709.458 215.385C709.097 215.066 708.917 214.656 708.917 214.156ZM718.875 225.927L721.094 217.062H724.792L721.104 228.333H718.917L718.875 225.927ZM717.563 217.062L719.75 225.927L719.729 228.333H717.531L713.854 217.062H717.563ZM731.146 228.542C730.229 228.542 729.41 228.399 728.688 228.115C727.965 227.823 727.354 227.424 726.854 226.917C726.361 226.41 725.983 225.826 725.719 225.167C725.462 224.507 725.333 223.809 725.333 223.073V222.677C725.333 221.851 725.448 221.087 725.677 220.385C725.906 219.677 726.247 219.059 726.698 218.531C727.149 218.003 727.715 217.594 728.396 217.302C729.076 217.003 729.868 216.854 730.771 216.854C731.569 216.854 732.285 216.983 732.917 217.24C733.549 217.497 734.083 217.865 734.521 218.344C734.965 218.823 735.302 219.403 735.531 220.083C735.767 220.764 735.885 221.528 735.885 222.375V223.802H726.677V221.604H732.458V221.333C732.465 220.958 732.399 220.639 732.26 220.375C732.128 220.111 731.934 219.91 731.677 219.771C731.42 219.632 731.108 219.562 730.74 219.562C730.358 219.562 730.042 219.646 729.792 219.812C729.549 219.979 729.358 220.208 729.219 220.5C729.087 220.785 728.993 221.115 728.938 221.49C728.882 221.865 728.854 222.26 728.854 222.677V223.073C728.854 223.49 728.91 223.868 729.021 224.208C729.139 224.549 729.306 224.84 729.521 225.083C729.743 225.319 730.007 225.503 730.313 225.635C730.625 225.767 730.979 225.833 731.375 225.833C731.854 225.833 732.326 225.743 732.792 225.562C733.257 225.382 733.656 225.083 733.99 224.667L735.583 226.562C735.354 226.889 735.028 227.205 734.604 227.51C734.188 227.816 733.688 228.066 733.104 228.26C732.521 228.448 731.868 228.542 731.146 228.542Z" fill="white"/>
<rect x="803" y="196.333" width="208" height="49.3333" rx="4.66667" fill="#888888" stroke="#888888" stroke-width="4"/>
<path d="M869.281 224.302C869.281 224.066 869.247 223.854 869.177 223.667C869.108 223.472 868.979 223.292 868.792 223.125C868.604 222.958 868.333 222.792 867.979 222.625C867.632 222.451 867.174 222.271 866.604 222.083C865.938 221.861 865.295 221.611 864.677 221.333C864.059 221.049 863.507 220.719 863.021 220.344C862.535 219.962 862.149 219.517 861.865 219.01C861.58 218.497 861.438 217.899 861.438 217.219C861.438 216.566 861.583 215.979 861.875 215.458C862.167 214.931 862.573 214.483 863.094 214.115C863.622 213.74 864.24 213.455 864.948 213.26C865.656 213.059 866.431 212.958 867.271 212.958C868.382 212.958 869.361 213.153 870.208 213.542C871.063 213.924 871.729 214.469 872.208 215.177C872.694 215.878 872.938 216.708 872.938 217.667H869.302C869.302 217.285 869.222 216.948 869.063 216.656C868.91 216.365 868.677 216.135 868.365 215.969C868.052 215.802 867.66 215.719 867.188 215.719C866.729 215.719 866.344 215.788 866.031 215.927C865.719 216.066 865.483 216.253 865.323 216.49C865.163 216.719 865.083 216.972 865.083 217.25C865.083 217.479 865.146 217.687 865.271 217.875C865.403 218.056 865.587 218.226 865.823 218.385C866.066 218.545 866.358 218.698 866.698 218.844C867.045 218.99 867.434 219.132 867.865 219.271C868.67 219.528 869.385 219.816 870.01 220.135C870.642 220.448 871.174 220.806 871.604 221.208C872.042 221.604 872.372 222.056 872.594 222.562C872.823 223.069 872.938 223.642 872.938 224.281C872.938 224.962 872.806 225.566 872.542 226.094C872.278 226.622 871.899 227.069 871.406 227.437C870.913 227.799 870.323 228.073 869.635 228.26C868.948 228.448 868.181 228.542 867.333 228.542C866.556 228.542 865.788 228.444 865.031 228.25C864.281 228.049 863.601 227.743 862.99 227.333C862.378 226.917 861.889 226.385 861.521 225.74C861.16 225.087 860.979 224.312 860.979 223.417H864.646C864.646 223.861 864.705 224.236 864.823 224.542C864.941 224.847 865.115 225.094 865.344 225.281C865.573 225.462 865.854 225.594 866.188 225.677C866.521 225.753 866.903 225.792 867.333 225.792C867.799 225.792 868.174 225.726 868.458 225.594C868.743 225.455 868.951 225.274 869.083 225.052C869.215 224.823 869.281 224.573 869.281 224.302ZM874.219 222.812V222.594C874.219 221.767 874.337 221.007 874.573 220.312C874.809 219.611 875.156 219.003 875.615 218.49C876.073 217.976 876.639 217.576 877.312 217.292C877.986 217 878.764 216.854 879.646 216.854C880.535 216.854 881.316 217 881.99 217.292C882.67 217.576 883.24 217.976 883.698 218.49C884.156 219.003 884.503 219.611 884.74 220.312C884.976 221.007 885.094 221.767 885.094 222.594V222.812C885.094 223.632 884.976 224.392 884.74 225.094C884.503 225.788 884.156 226.396 883.698 226.917C883.24 227.431 882.674 227.83 882 228.115C881.326 228.399 880.549 228.542 879.667 228.542C878.785 228.542 878.003 228.399 877.323 228.115C876.642 227.83 876.073 227.431 875.615 226.917C875.156 226.396 874.809 225.788 874.573 225.094C874.337 224.392 874.219 223.632 874.219 222.812ZM877.729 222.594V222.812C877.729 223.236 877.76 223.632 877.823 224C877.885 224.368 877.99 224.691 878.135 224.969C878.281 225.24 878.479 225.451 878.729 225.604C878.979 225.757 879.292 225.833 879.667 225.833C880.035 225.833 880.34 225.757 880.583 225.604C880.833 225.451 881.031 225.24 881.177 224.969C881.323 224.691 881.427 224.368 881.49 224C881.552 223.632 881.583 223.236 881.583 222.812V222.594C881.583 222.184 881.552 221.799 881.49 221.437C881.427 221.069 881.323 220.747 881.177 220.469C881.031 220.184 880.833 219.962 880.583 219.802C880.333 219.642 880.021 219.562 879.646 219.562C879.278 219.562 878.969 219.642 878.719 219.802C878.476 219.962 878.281 220.184 878.135 220.469C877.99 220.747 877.885 221.069 877.823 221.437C877.76 221.799 877.729 222.184 877.729 222.594ZM891.417 225.833C891.743 225.833 892.021 225.774 892.25 225.656C892.486 225.531 892.663 225.358 892.781 225.135C892.906 224.906 892.965 224.632 892.958 224.312H896.26C896.267 225.16 896.059 225.903 895.635 226.542C895.219 227.174 894.649 227.667 893.927 228.021C893.212 228.368 892.403 228.542 891.5 228.542C890.618 228.542 889.847 228.399 889.188 228.115C888.528 227.823 887.976 227.42 887.531 226.906C887.094 226.385 886.764 225.778 886.542 225.083C886.326 224.389 886.219 223.635 886.219 222.823V222.583C886.219 221.771 886.326 221.017 886.542 220.323C886.764 219.622 887.094 219.014 887.531 218.5C887.976 217.979 888.524 217.576 889.177 217.292C889.837 217 890.604 216.854 891.479 216.854C892.417 216.854 893.243 217.031 893.958 217.385C894.681 217.74 895.247 218.253 895.656 218.927C896.066 219.601 896.267 220.417 896.26 221.375H892.958C892.965 221.035 892.913 220.729 892.802 220.458C892.691 220.187 892.517 219.972 892.281 219.812C892.052 219.646 891.757 219.562 891.396 219.562C891.035 219.562 890.743 219.642 890.521 219.802C890.299 219.962 890.128 220.184 890.01 220.469C889.899 220.747 889.823 221.066 889.781 221.427C889.747 221.788 889.729 222.174 889.729 222.583V222.823C889.729 223.24 889.747 223.632 889.781 224C889.823 224.361 889.903 224.681 890.021 224.958C890.139 225.229 890.309 225.444 890.531 225.604C890.753 225.757 891.049 225.833 891.417 225.833ZM901.302 212.323V228.333H897.792V212.323H901.302ZM908.51 217.062L903.615 222.802L901.052 225.365L899.521 223.135L901.656 220.354L904.302 217.062H908.51ZM904.75 228.333L901.74 223.198L904.333 221.354L908.771 228.333H904.75ZM914.677 228.542C913.76 228.542 912.941 228.399 912.219 228.115C911.497 227.823 910.885 227.424 910.385 226.917C909.892 226.41 909.514 225.826 909.25 225.167C908.993 224.507 908.865 223.809 908.865 223.073V222.677C908.865 221.851 908.979 221.087 909.208 220.385C909.438 219.677 909.778 219.059 910.229 218.531C910.681 218.003 911.247 217.594 911.927 217.302C912.608 217.003 913.399 216.854 914.302 216.854C915.101 216.854 915.816 216.983 916.448 217.24C917.08 217.497 917.615 217.865 918.052 218.344C918.497 218.823 918.833 219.403 919.063 220.083C919.299 220.764 919.417 221.528 919.417 222.375V223.802H910.208V221.604H915.99V221.333C915.997 220.958 915.931 220.639 915.792 220.375C915.66 220.111 915.465 219.91 915.208 219.771C914.951 219.632 914.639 219.562 914.271 219.562C913.889 219.562 913.573 219.646 913.323 219.812C913.08 219.979 912.889 220.208 912.75 220.5C912.618 220.785 912.524 221.115 912.469 221.49C912.413 221.865 912.385 222.26 912.385 222.677V223.073C912.385 223.49 912.441 223.868 912.552 224.208C912.67 224.549 912.837 224.84 913.052 225.083C913.274 225.319 913.538 225.503 913.844 225.635C914.156 225.767 914.51 225.833 914.906 225.833C915.385 225.833 915.858 225.743 916.323 225.562C916.788 225.382 917.188 225.083 917.521 224.667L919.115 226.562C918.885 226.889 918.559 227.205 918.135 227.51C917.719 227.816 917.219 228.066 916.635 228.26C916.052 228.448 915.399 228.542 914.677 228.542ZM926.781 217.062V219.5H919.99V217.062H926.781ZM921.417 214.26H924.927V224.656C924.927 224.955 924.962 225.187 925.031 225.354C925.101 225.514 925.219 225.628 925.385 225.698C925.559 225.76 925.788 225.792 926.073 225.792C926.274 225.792 926.441 225.788 926.573 225.781C926.705 225.767 926.83 225.75 926.948 225.729V228.24C926.649 228.337 926.337 228.41 926.01 228.458C925.684 228.514 925.337 228.542 924.969 228.542C924.219 228.542 923.576 228.424 923.042 228.187C922.514 227.951 922.111 227.58 921.833 227.073C921.556 226.566 921.417 225.906 921.417 225.094V214.26ZM937.542 213.167V228.333H933.896V213.167H937.542ZM952.948 220.448V221.062C952.948 222.222 952.785 223.264 952.458 224.187C952.139 225.104 951.684 225.889 951.094 226.542C950.503 227.187 949.806 227.684 949 228.031C948.194 228.372 947.306 228.542 946.333 228.542C945.354 228.542 944.458 228.372 943.646 228.031C942.84 227.684 942.139 227.187 941.542 226.542C940.951 225.889 940.493 225.104 940.167 224.187C939.847 223.264 939.688 222.222 939.688 221.062V220.448C939.688 219.288 939.847 218.247 940.167 217.323C940.493 216.399 940.948 215.615 941.531 214.969C942.122 214.316 942.819 213.819 943.625 213.479C944.438 213.132 945.333 212.958 946.313 212.958C947.285 212.958 948.174 213.132 948.979 213.479C949.792 213.819 950.493 214.316 951.083 214.969C951.674 215.615 952.132 216.399 952.458 217.323C952.785 218.247 952.948 219.288 952.948 220.448ZM949.24 221.062V220.427C949.24 219.677 949.174 219.017 949.042 218.448C948.917 217.872 948.729 217.389 948.479 217C948.229 216.611 947.92 216.319 947.552 216.125C947.191 215.924 946.778 215.823 946.313 215.823C945.826 215.823 945.403 215.924 945.042 216.125C944.681 216.319 944.378 216.611 944.135 217C943.892 217.389 943.708 217.872 943.583 218.448C943.465 219.017 943.406 219.677 943.406 220.427V221.062C943.406 221.806 943.465 222.465 943.583 223.042C943.708 223.611 943.892 224.094 944.135 224.49C944.385 224.885 944.691 225.184 945.052 225.385C945.42 225.587 945.847 225.687 946.333 225.687C946.799 225.687 947.212 225.587 947.573 225.385C947.934 225.184 948.236 224.885 948.479 224.49C948.729 224.094 948.917 223.611 949.042 223.042C949.174 222.465 949.24 221.806 949.24 221.062Z" fill="white"/>
</svg>
