<svg width="1363" height="167" viewBox="0 0 1363 167" fill="none" xmlns="http://www.w3.org/2000/svg">
<rect width="1363" height="167" rx="15" fill="#F0F0F0"/>
<path d="M0 15C0 6.71573 6.71573 0 15 0H37V167H15C6.71573 167 0 160.284 0 152V15Z" fill="#424241"/>
<path d="M100.906 54.9219L93.3945 52.2383V49.0859L103.602 53.375V55.6367L100.906 54.9219ZM93.3945 57.1719L100.918 54.4297L103.602 53.7852V56.0352L93.3945 60.3242V57.1719ZM115.414 44.9375V62H111.898V44.9375H115.414ZM122.211 52.2266V54.9688H114.453V52.2266H122.211ZM123.031 44.9375V47.6914H114.453V44.9375H123.031ZM124.062 55.7891V55.543C124.062 54.6133 124.195 53.7578 124.461 52.9766C124.727 52.1875 125.113 51.5039 125.621 50.9258C126.129 50.3477 126.754 49.8984 127.496 49.5781C128.238 49.25 129.09 49.0859 130.051 49.0859C131.012 49.0859 131.867 49.25 132.617 49.5781C133.367 49.8984 133.996 50.3477 134.504 50.9258C135.02 51.5039 135.41 52.1875 135.676 52.9766C135.941 53.7578 136.074 54.6133 136.074 55.543V55.7891C136.074 56.7109 135.941 57.5664 135.676 58.3555C135.41 59.1367 135.02 59.8203 134.504 60.4062C133.996 60.9844 133.371 61.4336 132.629 61.7539C131.887 62.0742 131.035 62.2344 130.074 62.2344C129.113 62.2344 128.258 62.0742 127.508 61.7539C126.766 61.4336 126.137 60.9844 125.621 60.4062C125.113 59.8203 124.727 59.1367 124.461 58.3555C124.195 57.5664 124.062 56.7109 124.062 55.7891ZM127.438 55.543V55.7891C127.438 56.3203 127.484 56.8164 127.578 57.2773C127.672 57.7383 127.82 58.1445 128.023 58.4961C128.234 58.8398 128.508 59.1094 128.844 59.3047C129.18 59.5 129.59 59.5977 130.074 59.5977C130.543 59.5977 130.945 59.5 131.281 59.3047C131.617 59.1094 131.887 58.8398 132.09 58.4961C132.293 58.1445 132.441 57.7383 132.535 57.2773C132.637 56.8164 132.688 56.3203 132.688 55.7891V55.543C132.688 55.0273 132.637 54.543 132.535 54.0898C132.441 53.6289 132.289 53.2227 132.078 52.8711C131.875 52.5117 131.605 52.2305 131.27 52.0273C130.934 51.8242 130.527 51.7227 130.051 51.7227C129.574 51.7227 129.168 51.8242 128.832 52.0273C128.504 52.2305 128.234 52.5117 128.023 52.8711C127.82 53.2227 127.672 53.6289 127.578 54.0898C127.484 54.543 127.438 55.0273 127.438 55.543ZM137.609 55.7891V55.543C137.609 54.6133 137.742 53.7578 138.008 52.9766C138.273 52.1875 138.66 51.5039 139.168 50.9258C139.676 50.3477 140.301 49.8984 141.043 49.5781C141.785 49.25 142.637 49.0859 143.598 49.0859C144.559 49.0859 145.414 49.25 146.164 49.5781C146.914 49.8984 147.543 50.3477 148.051 50.9258C148.566 51.5039 148.957 52.1875 149.223 52.9766C149.488 53.7578 149.621 54.6133 149.621 55.543V55.7891C149.621 56.7109 149.488 57.5664 149.223 58.3555C148.957 59.1367 148.566 59.8203 148.051 60.4062C147.543 60.9844 146.918 61.4336 146.176 61.7539C145.434 62.0742 144.582 62.2344 143.621 62.2344C142.66 62.2344 141.805 62.0742 141.055 61.7539C140.312 61.4336 139.684 60.9844 139.168 60.4062C138.66 59.8203 138.273 59.1367 138.008 58.3555C137.742 57.5664 137.609 56.7109 137.609 55.7891ZM140.984 55.543V55.7891C140.984 56.3203 141.031 56.8164 141.125 57.2773C141.219 57.7383 141.367 58.1445 141.57 58.4961C141.781 58.8398 142.055 59.1094 142.391 59.3047C142.727 59.5 143.137 59.5977 143.621 59.5977C144.09 59.5977 144.492 59.5 144.828 59.3047C145.164 59.1094 145.434 58.8398 145.637 58.4961C145.84 58.1445 145.988 57.7383 146.082 57.2773C146.184 56.8164 146.234 56.3203 146.234 55.7891V55.543C146.234 55.0273 146.184 54.543 146.082 54.0898C145.988 53.6289 145.836 53.2227 145.625 52.8711C145.422 52.5117 145.152 52.2305 144.816 52.0273C144.48 51.8242 144.074 51.7227 143.598 51.7227C143.121 51.7227 142.715 51.8242 142.379 52.0273C142.051 52.2305 141.781 52.5117 141.57 52.8711C141.367 53.2227 141.219 53.6289 141.125 54.0898C141.031 54.543 140.984 55.0273 140.984 55.543ZM157.906 49.3203V51.7109H150.523V49.3203H157.906ZM152.352 46.1914H155.727V58.1797C155.727 58.5469 155.773 58.8281 155.867 59.0234C155.969 59.2188 156.117 59.3555 156.312 59.4336C156.508 59.5039 156.754 59.5391 157.051 59.5391C157.262 59.5391 157.449 59.5312 157.613 59.5156C157.785 59.4922 157.93 59.4688 158.047 59.4453L158.059 61.9297C157.77 62.0234 157.457 62.0977 157.121 62.1523C156.785 62.207 156.414 62.2344 156.008 62.2344C155.266 62.2344 154.617 62.1133 154.062 61.8711C153.516 61.6211 153.094 61.2227 152.797 60.6758C152.5 60.1289 152.352 59.4102 152.352 58.5195V46.1914ZM166.719 54.5117H162.336L162.312 52.0977H165.992C166.641 52.0977 167.172 52.0156 167.586 51.8516C168 51.6797 168.309 51.4336 168.512 51.1133C168.723 50.7852 168.828 50.3867 168.828 49.918C168.828 49.3867 168.727 48.957 168.523 48.6289C168.328 48.3008 168.02 48.0625 167.598 47.9141C167.184 47.7656 166.648 47.6914 165.992 47.6914H163.555V62H160.039V44.9375H165.992C166.984 44.9375 167.871 45.0312 168.652 45.2188C169.441 45.4062 170.109 45.6914 170.656 46.0742C171.203 46.457 171.621 46.9414 171.91 47.5273C172.199 48.1055 172.344 48.793 172.344 49.5898C172.344 50.293 172.184 50.9414 171.863 51.5352C171.551 52.1289 171.055 52.6133 170.375 52.9883C169.703 53.3633 168.824 53.5703 167.738 53.6094L166.719 54.5117ZM166.566 62H161.375L162.746 59.2578H166.566C167.184 59.2578 167.688 59.1602 168.078 58.9648C168.469 58.7617 168.758 58.4883 168.945 58.1445C169.133 57.8008 169.227 57.4062 169.227 56.9609C169.227 56.4609 169.141 56.0273 168.969 55.6602C168.805 55.293 168.539 55.0117 168.172 54.8164C167.805 54.6133 167.32 54.5117 166.719 54.5117H163.332L163.355 52.0977H167.574L168.383 53.0469C169.422 53.0312 170.258 53.2148 170.891 53.5977C171.531 53.9727 171.996 54.4609 172.285 55.0625C172.582 55.6641 172.73 56.3086 172.73 56.9961C172.73 58.0898 172.492 59.0117 172.016 59.7617C171.539 60.5039 170.84 61.0625 169.918 61.4375C169.004 61.8125 167.887 62 166.566 62ZM182 59.1406V53.4922C182 53.0859 181.934 52.7383 181.801 52.4492C181.668 52.1523 181.461 51.9219 181.18 51.7578C180.906 51.5938 180.551 51.5117 180.113 51.5117C179.738 51.5117 179.414 51.5781 179.141 51.7109C178.867 51.8359 178.656 52.0195 178.508 52.2617C178.359 52.4961 178.285 52.7734 178.285 53.0938H174.91C174.91 52.5547 175.035 52.043 175.285 51.5586C175.535 51.0742 175.898 50.6484 176.375 50.2812C176.852 49.9062 177.418 49.6133 178.074 49.4023C178.738 49.1914 179.48 49.0859 180.301 49.0859C181.285 49.0859 182.16 49.25 182.926 49.5781C183.691 49.9062 184.293 50.3984 184.73 51.0547C185.176 51.7109 185.398 52.5312 185.398 53.5156V58.9414C185.398 59.6367 185.441 60.207 185.527 60.6523C185.613 61.0898 185.738 61.4727 185.902 61.8008V62H182.492C182.328 61.6562 182.203 61.2266 182.117 60.7109C182.039 60.1875 182 59.6641 182 59.1406ZM182.445 54.2773L182.469 56.1875H180.582C180.137 56.1875 179.75 56.2383 179.422 56.3398C179.094 56.4414 178.824 56.5859 178.613 56.7734C178.402 56.9531 178.246 57.1641 178.145 57.4062C178.051 57.6484 178.004 57.9141 178.004 58.2031C178.004 58.4922 178.07 58.7539 178.203 58.9883C178.336 59.2148 178.527 59.3945 178.777 59.5273C179.027 59.6523 179.32 59.7148 179.656 59.7148C180.164 59.7148 180.605 59.6133 180.98 59.4102C181.355 59.207 181.645 58.957 181.848 58.6602C182.059 58.3633 182.168 58.082 182.176 57.8164L183.066 59.2461C182.941 59.5664 182.77 59.8984 182.551 60.2422C182.34 60.5859 182.07 60.9102 181.742 61.2148C181.414 61.5117 181.02 61.7578 180.559 61.9531C180.098 62.1406 179.551 62.2344 178.918 62.2344C178.113 62.2344 177.383 62.0742 176.727 61.7539C176.078 61.4258 175.562 60.9766 175.18 60.4062C174.805 59.8281 174.617 59.1719 174.617 58.4375C174.617 57.7734 174.742 57.1836 174.992 56.668C175.242 56.1523 175.609 55.7188 176.094 55.3672C176.586 55.0078 177.199 54.7383 177.934 54.5586C178.668 54.3711 179.52 54.2773 180.488 54.2773H182.445ZM191.562 44V62H188.176V44H191.562ZM197.914 44V62H194.527V44H197.914ZM206.891 44.9375H213.254C214.559 44.9375 215.68 45.1328 216.617 45.5234C217.562 45.9141 218.289 46.4922 218.797 47.2578C219.305 48.0234 219.559 48.9648 219.559 50.082C219.559 50.9961 219.402 51.7812 219.09 52.4375C218.785 53.0859 218.352 53.6289 217.789 54.0664C217.234 54.4961 216.582 54.8398 215.832 55.0977L214.719 55.6836H209.188L209.164 52.9414H213.277C213.895 52.9414 214.406 52.832 214.812 52.6133C215.219 52.3945 215.523 52.0898 215.727 51.6992C215.938 51.3086 216.043 50.8555 216.043 50.3398C216.043 49.793 215.941 49.3203 215.738 48.9219C215.535 48.5234 215.227 48.2188 214.812 48.0078C214.398 47.7969 213.879 47.6914 213.254 47.6914H210.406V62H206.891V44.9375ZM216.43 62L212.539 54.3945L216.254 54.3711L220.191 61.8359V62H216.43ZM228.898 59.1406V53.4922C228.898 53.0859 228.832 52.7383 228.699 52.4492C228.566 52.1523 228.359 51.9219 228.078 51.7578C227.805 51.5938 227.449 51.5117 227.012 51.5117C226.637 51.5117 226.312 51.5781 226.039 51.7109C225.766 51.8359 225.555 52.0195 225.406 52.2617C225.258 52.4961 225.184 52.7734 225.184 53.0938H221.809C221.809 52.5547 221.934 52.043 222.184 51.5586C222.434 51.0742 222.797 50.6484 223.273 50.2812C223.75 49.9062 224.316 49.6133 224.973 49.4023C225.637 49.1914 226.379 49.0859 227.199 49.0859C228.184 49.0859 229.059 49.25 229.824 49.5781C230.59 49.9062 231.191 50.3984 231.629 51.0547C232.074 51.7109 232.297 52.5312 232.297 53.5156V58.9414C232.297 59.6367 232.34 60.207 232.426 60.6523C232.512 61.0898 232.637 61.4727 232.801 61.8008V62H229.391C229.227 61.6562 229.102 61.2266 229.016 60.7109C228.938 60.1875 228.898 59.6641 228.898 59.1406ZM229.344 54.2773L229.367 56.1875H227.48C227.035 56.1875 226.648 56.2383 226.32 56.3398C225.992 56.4414 225.723 56.5859 225.512 56.7734C225.301 56.9531 225.145 57.1641 225.043 57.4062C224.949 57.6484 224.902 57.9141 224.902 58.2031C224.902 58.4922 224.969 58.7539 225.102 58.9883C225.234 59.2148 225.426 59.3945 225.676 59.5273C225.926 59.6523 226.219 59.7148 226.555 59.7148C227.062 59.7148 227.504 59.6133 227.879 59.4102C228.254 59.207 228.543 58.957 228.746 58.6602C228.957 58.3633 229.066 58.082 229.074 57.8164L229.965 59.2461C229.84 59.5664 229.668 59.8984 229.449 60.2422C229.238 60.5859 228.969 60.9102 228.641 61.2148C228.312 61.5117 227.918 61.7578 227.457 61.9531C226.996 62.1406 226.449 62.2344 225.816 62.2344C225.012 62.2344 224.281 62.0742 223.625 61.7539C222.977 61.4258 222.461 60.9766 222.078 60.4062C221.703 59.8281 221.516 59.1719 221.516 58.4375C221.516 57.7734 221.641 57.1836 221.891 56.668C222.141 56.1523 222.508 55.7188 222.992 55.3672C223.484 55.0078 224.098 54.7383 224.832 54.5586C225.566 54.3711 226.418 54.2773 227.387 54.2773H229.344ZM239.023 59.5391L241.836 49.3203H245.363L241.086 62H238.953L239.023 59.5391ZM237.09 49.3203L239.914 59.5508L239.973 62H237.828L233.551 49.3203H237.09ZM252.547 62.2344C251.562 62.2344 250.68 62.0781 249.898 61.7656C249.117 61.4453 248.453 61.0039 247.906 60.4414C247.367 59.8789 246.953 59.2266 246.664 58.4844C246.375 57.7344 246.23 56.9375 246.23 56.0938V55.625C246.23 54.6641 246.367 53.7852 246.641 52.9883C246.914 52.1914 247.305 51.5 247.812 50.9141C248.328 50.3281 248.953 49.8789 249.688 49.5664C250.422 49.2461 251.25 49.0859 252.172 49.0859C253.07 49.0859 253.867 49.2344 254.562 49.5312C255.258 49.8281 255.84 50.25 256.309 50.7969C256.785 51.3438 257.145 52 257.387 52.7656C257.629 53.5234 257.75 54.3672 257.75 55.2969V56.7031H247.672V54.4531H254.434V54.1953C254.434 53.7266 254.348 53.3086 254.176 52.9414C254.012 52.5664 253.762 52.2695 253.426 52.0508C253.09 51.832 252.66 51.7227 252.137 51.7227C251.691 51.7227 251.309 51.8203 250.988 52.0156C250.668 52.2109 250.406 52.4844 250.203 52.8359C250.008 53.1875 249.859 53.6016 249.758 54.0781C249.664 54.5469 249.617 55.0625 249.617 55.625V56.0938C249.617 56.6016 249.688 57.0703 249.828 57.5C249.977 57.9297 250.184 58.3008 250.449 58.6133C250.723 58.9258 251.051 59.168 251.434 59.3398C251.824 59.5117 252.266 59.5977 252.758 59.5977C253.367 59.5977 253.934 59.4805 254.457 59.2461C254.988 59.0039 255.445 58.6406 255.828 58.1562L257.469 59.9375C257.203 60.3203 256.84 60.6875 256.379 61.0391C255.926 61.3906 255.379 61.6797 254.738 61.9062C254.098 62.125 253.367 62.2344 252.547 62.2344Z" fill="#888888"/>
<path d="M115.994 98.708V104.641H99.5806V98.708H115.994ZM102.151 86.0078V118H94.439V86.0078H102.151ZM121.18 86.0078V118H113.489V86.0078H121.18ZM124.805 106.354V105.893C124.805 104.15 125.054 102.546 125.552 101.081C126.05 99.6016 126.783 98.3198 127.75 97.2358C128.716 96.1519 129.91 95.3096 131.331 94.709C132.752 94.0938 134.393 93.7861 136.253 93.7861C138.128 93.7861 139.776 94.0938 141.197 94.709C142.632 95.3096 143.833 96.1519 144.8 97.2358C145.767 98.3198 146.5 99.6016 146.998 101.081C147.496 102.546 147.745 104.15 147.745 105.893V106.354C147.745 108.083 147.496 109.687 146.998 111.167C146.5 112.631 145.767 113.913 144.8 115.012C143.833 116.096 142.64 116.938 141.219 117.539C139.798 118.139 138.157 118.439 136.297 118.439C134.437 118.439 132.789 118.139 131.353 117.539C129.917 116.938 128.716 116.096 127.75 115.012C126.783 113.913 126.05 112.631 125.552 111.167C125.054 109.687 124.805 108.083 124.805 106.354ZM132.21 105.893V106.354C132.21 107.248 132.276 108.083 132.408 108.859C132.54 109.636 132.759 110.317 133.067 110.903C133.375 111.474 133.792 111.921 134.319 112.243C134.847 112.565 135.506 112.727 136.297 112.727C137.073 112.727 137.718 112.565 138.23 112.243C138.758 111.921 139.175 111.474 139.483 110.903C139.791 110.317 140.01 109.636 140.142 108.859C140.274 108.083 140.34 107.248 140.34 106.354V105.893C140.34 105.029 140.274 104.216 140.142 103.454C140.01 102.678 139.791 101.997 139.483 101.411C139.175 100.81 138.758 100.341 138.23 100.004C137.703 99.6675 137.044 99.499 136.253 99.499C135.477 99.499 134.825 99.6675 134.297 100.004C133.785 100.341 133.375 100.81 133.067 101.411C132.759 101.997 132.54 102.678 132.408 103.454C132.276 104.216 132.21 105.029 132.21 105.893ZM158.27 110.925L162.664 94.2256H167.3L165.652 102.597L161.302 118H157.588L158.27 110.925ZM156.534 94.2256L159.258 110.793L159.566 118H155.062L149.437 94.2256H156.534ZM171.211 110.441L173.958 94.2256H181.055L175.474 118H170.97L171.211 110.441ZM167.828 94.2256L172.266 110.881L172.947 118H169.19L164.927 102.641L163.345 94.2256H167.828ZM209.466 86.0078V118H201.753V86.0078H209.466ZM219.09 86.0078V91.9624H192.349V86.0078H219.09ZM216.475 106.354V105.893C216.475 104.15 216.724 102.546 217.222 101.081C217.72 99.6016 218.453 98.3198 219.419 97.2358C220.386 96.1519 221.58 95.3096 223.001 94.709C224.422 94.0938 226.062 93.7861 227.923 93.7861C229.798 93.7861 231.446 94.0938 232.867 94.709C234.302 95.3096 235.503 96.1519 236.47 97.2358C237.437 98.3198 238.169 99.6016 238.667 101.081C239.166 102.546 239.415 104.15 239.415 105.893V106.354C239.415 108.083 239.166 109.687 238.667 111.167C238.169 112.631 237.437 113.913 236.47 115.012C235.503 116.096 234.31 116.938 232.889 117.539C231.468 118.139 229.827 118.439 227.967 118.439C226.106 118.439 224.458 118.139 223.023 117.539C221.587 116.938 220.386 116.096 219.419 115.012C218.453 113.913 217.72 112.631 217.222 111.167C216.724 109.687 216.475 108.083 216.475 106.354ZM223.88 105.893V106.354C223.88 107.248 223.946 108.083 224.078 108.859C224.209 109.636 224.429 110.317 224.737 110.903C225.044 111.474 225.462 111.921 225.989 112.243C226.517 112.565 227.176 112.727 227.967 112.727C228.743 112.727 229.388 112.565 229.9 112.243C230.428 111.921 230.845 111.474 231.153 110.903C231.46 110.317 231.68 109.636 231.812 108.859C231.944 108.083 232.01 107.248 232.01 106.354V105.893C232.01 105.029 231.944 104.216 231.812 103.454C231.68 102.678 231.46 101.997 231.153 101.411C230.845 100.81 230.428 100.341 229.9 100.004C229.373 99.6675 228.714 99.499 227.923 99.499C227.146 99.499 226.495 99.6675 225.967 100.004C225.455 100.341 225.044 100.81 224.737 101.411C224.429 101.997 224.209 102.678 224.078 103.454C223.946 104.216 223.88 105.029 223.88 105.893ZM254.268 86.0078H266.858C269.319 86.0078 271.458 86.374 273.274 87.1064C275.091 87.8389 276.49 88.9229 277.471 90.3584C278.467 91.7939 278.965 93.5664 278.965 95.6758C278.965 97.5068 278.68 99.0376 278.108 100.268C277.537 101.499 276.739 102.517 275.713 103.322C274.703 104.113 273.523 104.765 272.176 105.278L269.649 106.706H259.08L259.036 100.751H266.858C267.84 100.751 268.653 100.576 269.297 100.224C269.942 99.8726 270.425 99.3745 270.748 98.73C271.084 98.0708 271.253 97.2871 271.253 96.3789C271.253 95.4561 271.084 94.665 270.748 94.0059C270.411 93.3467 269.913 92.8413 269.253 92.4897C268.609 92.1382 267.811 91.9624 266.858 91.9624H261.98V118H254.268V86.0078ZM271.78 118L264.705 103.85L272.879 103.806L280.042 117.67V118H271.78ZM297.159 112.221V94.2256H304.585V118H297.642L297.159 112.221ZM297.862 107.387L299.795 107.343C299.795 108.94 299.605 110.419 299.224 111.782C298.843 113.129 298.279 114.301 297.532 115.297C296.8 116.293 295.892 117.07 294.808 117.626C293.738 118.168 292.5 118.439 291.094 118.439C289.922 118.439 288.846 118.278 287.864 117.956C286.897 117.619 286.062 117.099 285.359 116.396C284.656 115.678 284.107 114.763 283.711 113.649C283.331 112.521 283.14 111.174 283.14 109.606V94.2256H290.545V109.65C290.545 110.178 290.611 110.632 290.743 111.013C290.875 111.394 291.065 111.716 291.314 111.979C291.563 112.229 291.871 112.419 292.237 112.551C292.618 112.668 293.05 112.727 293.533 112.727C294.646 112.727 295.518 112.492 296.148 112.023C296.778 111.555 297.217 110.917 297.466 110.112C297.73 109.306 297.862 108.398 297.862 107.387ZM315.945 99.3013V118H308.541V94.2256H315.484L315.945 99.3013ZM315.066 105.3L313.331 105.344C313.331 103.527 313.55 101.909 313.99 100.488C314.429 99.0522 315.052 97.8364 315.857 96.8403C316.663 95.8442 317.623 95.0898 318.736 94.5771C319.864 94.0498 321.116 93.7861 322.493 93.7861C323.592 93.7861 324.595 93.9473 325.503 94.2695C326.426 94.5918 327.217 95.1118 327.876 95.8296C328.55 96.5474 329.063 97.4995 329.415 98.686C329.781 99.8579 329.964 101.308 329.964 103.037V118H322.515V103.015C322.515 102.062 322.383 101.337 322.12 100.839C321.856 100.327 321.475 99.9751 320.977 99.7847C320.479 99.5942 319.871 99.499 319.153 99.499C318.392 99.499 317.747 99.6455 317.22 99.9385C316.692 100.231 316.268 100.642 315.945 101.169C315.638 101.682 315.411 102.29 315.264 102.993C315.132 103.696 315.066 104.465 315.066 105.3ZM345.85 107.871H339.544C339.544 106.582 339.632 105.446 339.808 104.465C339.998 103.469 340.32 102.575 340.774 101.784C341.229 100.993 341.844 100.261 342.62 99.5869C343.309 99.0156 343.902 98.4663 344.4 97.939C344.898 97.4116 345.279 96.877 345.542 96.335C345.806 95.793 345.938 95.2144 345.938 94.5991C345.938 93.8374 345.828 93.2148 345.608 92.7314C345.403 92.248 345.088 91.8892 344.664 91.6548C344.253 91.4058 343.733 91.2812 343.104 91.2812C342.591 91.2812 342.107 91.4058 341.653 91.6548C341.214 91.9038 340.855 92.292 340.577 92.8193C340.298 93.332 340.145 94.0132 340.115 94.8628H332.667C332.71 92.6802 333.194 90.9077 334.117 89.5454C335.054 88.1685 336.299 87.165 337.852 86.5352C339.419 85.8906 341.17 85.5684 343.104 85.5684C345.242 85.5684 347.081 85.8979 348.619 86.5571C350.157 87.2163 351.336 88.1978 352.156 89.5015C352.977 90.7905 353.387 92.3799 353.387 94.2695C353.387 95.5293 353.145 96.6279 352.662 97.5654C352.193 98.4883 351.556 99.3525 350.75 100.158C349.959 100.949 349.073 101.799 348.091 102.707C347.242 103.454 346.663 104.216 346.355 104.992C346.048 105.754 345.879 106.713 345.85 107.871ZM338.643 114.55C338.643 113.496 339.024 112.617 339.786 111.914C340.547 111.196 341.536 110.837 342.752 110.837C343.968 110.837 344.957 111.196 345.718 111.914C346.48 112.617 346.861 113.496 346.861 114.55C346.861 115.605 346.48 116.491 345.718 117.209C344.957 117.912 343.968 118.264 342.752 118.264C341.536 118.264 340.547 117.912 339.786 117.209C339.024 116.491 338.643 115.605 338.643 114.55Z" fill="#424241"/>
<path d="M1363 15C1363 6.71573 1356.28 0 1348 0H1134V167H1348C1356.28 167 1363 160.284 1363 152V15Z" fill="#27293E"/>
<path d="M1260.77 81.3079C1263.96 81.3079 1267.09 82.2553 1269.74 84.0303C1272.4 85.8053 1274.47 88.3282 1275.69 91.2799C1276.92 94.2316 1277.24 97.4796 1276.61 100.613C1275.99 103.747 1274.45 106.625 1272.19 108.884C1269.93 111.143 1267.05 112.682 1263.92 113.305C1260.79 113.928 1257.54 113.608 1254.59 112.386C1251.64 111.163 1249.11 109.093 1247.34 106.436C1245.56 103.78 1244.62 100.657 1244.62 97.4617C1244.62 93.1774 1246.32 89.0686 1249.35 86.0392C1252.38 83.0098 1256.48 81.3079 1260.77 81.3079ZM1260.77 75.9233C1256.51 75.9233 1252.35 77.1865 1248.8 79.5532C1245.26 81.9198 1242.5 85.2837 1240.87 89.2193C1239.24 93.1549 1238.81 97.4856 1239.64 101.664C1240.48 105.842 1242.53 109.679 1245.54 112.692C1248.55 115.704 1252.39 117.755 1256.57 118.586C1260.75 119.417 1265.08 118.991 1269.01 117.361C1272.95 115.73 1276.31 112.97 1278.68 109.428C1281.04 105.886 1282.31 101.722 1282.31 97.4617C1282.31 91.7493 1280.04 86.271 1276 82.2317C1271.96 78.1925 1266.48 75.9233 1260.77 75.9233Z" fill="white"/>
<path d="M1274.23 49H1220.38C1218.96 49 1217.59 49.5673 1216.58 50.5771C1215.57 51.5869 1215 52.9565 1215 54.3846V108.231C1215 109.659 1215.57 111.028 1216.58 112.038C1217.59 113.048 1218.96 113.615 1220.38 113.615H1231.15V108.231H1220.38V70.5384H1279.62V54.3846C1279.62 52.9565 1279.05 51.5869 1278.04 50.5771C1277.03 49.5673 1275.66 49 1274.23 49ZM1220.38 65.1538V54.3846H1274.23V65.1538H1220.38Z" fill="white"/>
<path d="M1255.38 89.3849V105.539L1268.85 97.4618L1255.38 89.3849Z" fill="white"/>
</svg>
